%TF.GenerationSoftware,Altium Limited,Altium Designer,21.2.2 (38)*%
G04 Layer_Color=16777215*
%FSLAX26Y26*%
%MOIN*%
%TF.SameCoordinates,75BC83C2-9D79-468A-8CB9-4745F9D1B378*%
%TF.FilePolarity,Positive*%
%TF.FileFunction,Other,Top_Assembly*%
%TF.Part,Single*%
G01*
G75*
%TA.AperFunction,NonConductor*%
%ADD45C,0.003937*%
D45*
X500984Y-496063D02*
Y-409449D01*
X443898Y-496063D02*
Y-409449D01*
X500984D01*
X443898Y-496063D02*
X500984D01*
X616142Y-545275D02*
X879921D01*
X616142Y-399606D02*
X879921D01*
X616142Y-545275D02*
Y-399606D01*
X879921Y-545275D02*
Y-399606D01*
X1139764Y-505906D02*
Y-438976D01*
X1104331Y-505906D02*
Y-438976D01*
X1139764D01*
X1104331Y-505906D02*
X1139764D01*
X1032480Y-515748D02*
Y-429134D01*
X975394Y-515748D02*
Y-429134D01*
X1032480D01*
X975394Y-515748D02*
X1032480D01*
X1104331Y340551D02*
X1139764D01*
X1104331Y407480D02*
X1139764D01*
X1104331Y340551D02*
Y407480D01*
X1139764Y340551D02*
Y407480D01*
X1501968Y375984D02*
Y411417D01*
X1568898Y375984D02*
Y411417D01*
X1501968D02*
X1568898D01*
X1501968Y375984D02*
X1568898D01*
X1521653Y494094D02*
Y529528D01*
X1588583Y494094D02*
Y529528D01*
X1521653D02*
X1588583D01*
X1521653Y494094D02*
X1588583D01*
X1746063Y494094D02*
Y529528D01*
X1679134Y494094D02*
Y529528D01*
Y494094D02*
X1746063D01*
X1679134Y529528D02*
X1746063D01*
X1104331Y163386D02*
X1139764D01*
X1104331Y230315D02*
X1139764D01*
X1104331Y163386D02*
Y230315D01*
X1139764Y163386D02*
Y230315D01*
X1771653Y366142D02*
Y421260D01*
X1653543Y366142D02*
Y421260D01*
X1771653D01*
X1653543Y366142D02*
X1771653D01*
X1139764Y-131890D02*
Y-64961D01*
X1104331Y-131890D02*
Y-64961D01*
X1139764D01*
X1104331Y-131890D02*
X1139764D01*
X1417323Y-240157D02*
Y240157D01*
X1929134D01*
Y-240157D02*
Y240157D01*
X1417323Y-240157D02*
X1929134D01*
X1104331Y5906D02*
X1139764D01*
X1104331Y72835D02*
X1139764D01*
X1104331Y5906D02*
Y72835D01*
X1139764Y5906D02*
Y72835D01*
%TF.MD5,2b67d7a12b7c97ec87d3c5c440f808b2*%
M02*
