M48
;Layer_Color=9474304
;FILE_FORMAT=2:5
INCH,LZ
;TYPE=PLATED
T1F00S00C0.02800
T2F00S00C0.03543
T3F00S00C0.04134
T4F00S00C0.12205
;TYPE=NON_PLATED
T5F00S00C0.09291
%
T01
X0181102Y-0019685
X0169291Y0007874
X0180709Y0043701
X0159898Y0046277
X0161417Y0066929
X0149606Y0021654
X0129921Y0029528
X0076772Y0017717
X0051181Y0021654
X0135827Y-003937
X0129921Y-0066929
X011811Y0074803
T02
X0160236Y-0010039
Y-0002007
Y0006024
X0150235Y001004
Y0002008
Y-0006023
T03
X0059803Y-0013937
X0069803
X0079803
X0089803
Y-0003937
X0079803
X0069803
X0059803
T04
X001378Y0
X0139764Y-0057087
Y0072835
T05
X0169291Y-0023621
Y0023623
M30
