%TF.GenerationSoftware,Altium Limited,Altium Designer,21.2.2 (38)*%
G04 Layer_Physical_Order=1*
G04 Layer_Color=255*
%FSLAX26Y26*%
%MOIN*%
%TF.SameCoordinates,75BC83C2-9D79-468A-8CB9-4745F9D1B378*%
%TF.FilePolarity,Positive*%
%TF.FileFunction,Copper,L1,Top,Signal*%
%TF.Part,Single*%
G01*
G75*
%TA.AperFunction,SMDPad,CuDef*%
G04:AMPARAMS|DCode=10|XSize=51.181mil|YSize=29.921mil|CornerRadius=3.74mil|HoleSize=0mil|Usage=FLASHONLY|Rotation=180.000|XOffset=0mil|YOffset=0mil|HoleType=Round|Shape=RoundedRectangle|*
%AMROUNDEDRECTD10*
21,1,0.051181,0.022441,0,0,180.0*
21,1,0.043701,0.029921,0,0,180.0*
1,1,0.007480,-0.021850,0.011220*
1,1,0.007480,0.021850,0.011220*
1,1,0.007480,0.021850,-0.011220*
1,1,0.007480,-0.021850,-0.011220*
%
%ADD10ROUNDEDRECTD10*%
%ADD11R,0.035433X0.074803*%
%ADD12R,0.125984X0.074803*%
%ADD13R,0.037402X0.037402*%
%ADD14R,0.039370X0.031496*%
%ADD15R,0.031496X0.039370*%
%ADD16R,0.023622X0.029528*%
%TA.AperFunction,Conductor*%
%ADD17C,0.019685*%
%TA.AperFunction,NonConductor*%
%ADD18C,0.010000*%
%TA.AperFunction,ComponentPad*%
%ADD19C,0.062008*%
%ADD20R,0.062008X0.062008*%
%ADD21C,0.055118*%
%ADD22C,0.092913*%
%ADD23R,0.055118X0.055118*%
%TA.AperFunction,ViaPad*%
%ADD24C,0.122047*%
%ADD25C,0.028000*%
%ADD26C,0.039370*%
%ADD27C,0.050000*%
G36*
X2204724Y984252D02*
Y-1062992D01*
X-177165D01*
Y905512D01*
Y1023622D01*
X2125984D01*
X2145669Y1043307D01*
X2204724Y984252D01*
D02*
G37*
%LPC*%
G36*
X1186102Y771938D02*
Y753032D01*
X1205009D01*
X1201449Y761626D01*
X1194697Y768378D01*
X1186102Y771938D01*
D02*
G37*
G36*
X1176102D02*
X1167507Y768378D01*
X1160756Y761626D01*
X1157196Y753032D01*
X1176102D01*
Y771938D01*
D02*
G37*
G36*
X1404633Y799370D02*
X1402638D01*
Y733346D01*
X1468661D01*
Y735342D01*
X1465932Y749063D01*
X1460578Y761989D01*
X1452805Y773621D01*
X1442913Y783514D01*
X1431280Y791287D01*
X1418355Y796641D01*
X1404633Y799370D01*
D02*
G37*
G36*
X1392638D02*
X1390643D01*
X1376921Y796641D01*
X1363995Y791287D01*
X1352363Y783514D01*
X1342470Y773621D01*
X1334697Y761989D01*
X1329344Y749063D01*
X1326614Y735342D01*
Y733346D01*
X1392638D01*
Y799370D01*
D02*
G37*
G36*
X1205009Y743032D02*
X1186102D01*
Y724125D01*
X1194697Y727685D01*
X1201449Y734437D01*
X1205009Y743032D01*
D02*
G37*
G36*
X1176102D02*
X1157196D01*
X1160756Y734437D01*
X1167507Y727685D01*
X1176102Y724125D01*
Y743032D01*
D02*
G37*
G36*
X1619173Y693198D02*
Y674291D01*
X1638080D01*
X1634519Y682886D01*
X1627768Y689638D01*
X1619173Y693198D01*
D02*
G37*
G36*
X1609173D02*
X1600578Y689638D01*
X1593827Y682886D01*
X1590267Y674291D01*
X1609173D01*
Y693198D01*
D02*
G37*
G36*
X1468661Y723346D02*
X1402638D01*
Y657323D01*
X1404633D01*
X1418355Y660052D01*
X1431280Y665406D01*
X1442913Y673179D01*
X1452805Y683072D01*
X1460578Y694704D01*
X1465932Y707630D01*
X1468661Y721351D01*
Y723346D01*
D02*
G37*
G36*
X1392638D02*
X1326614D01*
Y721351D01*
X1329344Y707630D01*
X1334697Y694704D01*
X1342470Y683072D01*
X1352363Y673179D01*
X1363995Y665406D01*
X1376921Y660052D01*
X1390643Y657323D01*
X1392638D01*
Y723346D01*
D02*
G37*
G36*
X1638080Y664291D02*
X1619173D01*
Y645385D01*
X1627768Y648945D01*
X1634519Y655696D01*
X1638080Y664291D01*
D02*
G37*
G36*
X1609173D02*
X1590267D01*
X1593827Y655696D01*
X1600578Y648945D01*
X1609173Y645385D01*
Y664291D01*
D02*
G37*
G36*
X1627953Y610782D02*
X1509842D01*
X1502100Y609242D01*
X1495537Y604857D01*
X1255399Y364719D01*
X1151732D01*
Y370236D01*
X1092362D01*
Y318740D01*
X1142806D01*
X1200241Y261305D01*
Y249716D01*
X1195241Y246067D01*
X1190554Y247000D01*
X1151732D01*
Y252126D01*
X1092362D01*
Y202397D01*
X1092362Y200630D01*
X1088701Y197397D01*
X796451D01*
X795723Y198656D01*
X789207Y205172D01*
X781226Y209780D01*
X772324Y212165D01*
X763109D01*
X754207Y209780D01*
X746226Y205172D01*
X739710Y198656D01*
X735102Y190675D01*
X732716Y181773D01*
Y172558D01*
X735102Y163656D01*
X739710Y155675D01*
X746226Y149158D01*
X754207Y144551D01*
X763109Y142165D01*
X772324D01*
X781226Y144551D01*
X789207Y149158D01*
X795723Y155675D01*
X796451Y156934D01*
X1092362D01*
Y141575D01*
X1151732D01*
Y193071D01*
X1118096D01*
X1116142Y193460D01*
X1113021D01*
X1109663Y197490D01*
X1111669Y200630D01*
X1151732D01*
Y206537D01*
X1182174D01*
X1200241Y188470D01*
Y33051D01*
X1195241Y29219D01*
X1190945Y30074D01*
X1151732D01*
Y35590D01*
X1092362D01*
Y-15906D01*
X1151732D01*
Y-10389D01*
X1182565D01*
X1200241Y-28065D01*
Y-109730D01*
X1192407Y-117564D01*
X1150748D01*
Y-102520D01*
Y-78819D01*
X1122047D01*
X1093346D01*
Y-102520D01*
Y-117564D01*
X932789D01*
X930843Y-114193D01*
X923208Y-106559D01*
X913858Y-101161D01*
X903430Y-98366D01*
X892633D01*
X882205Y-101161D01*
X872855Y-106559D01*
X865220Y-114193D01*
X859822Y-123543D01*
X857028Y-133972D01*
Y-144768D01*
X859822Y-155197D01*
X865220Y-164547D01*
X872855Y-172181D01*
X882205Y-177580D01*
X892633Y-180374D01*
X903430D01*
X913858Y-177580D01*
X923208Y-172181D01*
X930843Y-164547D01*
X934607Y-158026D01*
X1200241D01*
Y-483746D01*
X1196344Y-487643D01*
X1150748D01*
Y-476535D01*
Y-452835D01*
X1122047D01*
X1093346D01*
Y-476535D01*
Y-487643D01*
X1036292D01*
X1035693Y-486748D01*
X1031149Y-483711D01*
X1025787Y-482644D01*
X982087D01*
X976726Y-483711D01*
X972181Y-486748D01*
X969144Y-491292D01*
X968077Y-496654D01*
Y-519094D01*
X968921Y-523334D01*
X923904Y-568351D01*
X866299D01*
Y-541181D01*
X810866D01*
Y-629375D01*
X775748D01*
Y-593583D01*
X748032D01*
X720315D01*
Y-629375D01*
X697356D01*
X685586Y-617604D01*
Y-596457D01*
X685197Y-594502D01*
Y-541181D01*
X629764D01*
Y-568351D01*
X591845D01*
X508301Y-484808D01*
Y-476969D01*
X507234Y-471607D01*
X504197Y-467062D01*
X499652Y-464026D01*
X494291Y-462959D01*
X450591D01*
X445229Y-464026D01*
X440685Y-467062D01*
X437648Y-471607D01*
X436581Y-476969D01*
Y-499409D01*
X437648Y-504771D01*
X440685Y-509315D01*
X445229Y-512352D01*
X450591Y-513419D01*
X479689D01*
X569159Y-602888D01*
X575722Y-607274D01*
X583465Y-608814D01*
X629764D01*
Y-635984D01*
X648172D01*
X651049Y-640290D01*
X674671Y-663912D01*
X681234Y-668298D01*
X688976Y-669837D01*
X1141732D01*
X1149475Y-668298D01*
X1156038Y-663912D01*
X1274148Y-545802D01*
X1278534Y-539238D01*
X1280074Y-531496D01*
Y-150492D01*
X1461092Y30526D01*
X1465575Y27938D01*
X1464811Y25085D01*
X1497355D01*
Y60980D01*
X1496643Y62038D01*
X1496578Y62413D01*
X1496825Y62841D01*
X1539914D01*
Y80169D01*
X1553400D01*
X1565553Y68015D01*
X1564796Y65187D01*
Y55298D01*
X1567355Y45745D01*
X1572300Y37181D01*
X1579293Y30188D01*
X1587858Y25243D01*
X1597410Y22684D01*
X1607299D01*
X1616852Y25243D01*
X1625417Y30188D01*
X1632409Y37181D01*
X1637354Y45745D01*
X1639914Y55298D01*
Y65187D01*
X1637354Y74740D01*
X1632409Y83304D01*
X1625417Y90297D01*
X1616852Y95242D01*
X1607299Y97802D01*
X1597410D01*
X1593924Y96867D01*
X1576085Y114706D01*
X1569522Y119091D01*
X1561780Y120631D01*
X1539914D01*
Y137959D01*
X1464796D01*
Y91452D01*
X1245704Y-127640D01*
X1244988Y-127606D01*
X1240704Y-126040D01*
Y-118110D01*
Y-19685D01*
Y196850D01*
Y269685D01*
X1239164Y277427D01*
X1234778Y283991D01*
X1199131Y319638D01*
X1201044Y324257D01*
X1263780D01*
X1271522Y325797D01*
X1278085Y330183D01*
X1518223Y570320D01*
X1619573D01*
X1657323Y532570D01*
Y482126D01*
X1708819D01*
Y541496D01*
X1702096D01*
X1701762Y543175D01*
X1697377Y549739D01*
X1642258Y604857D01*
X1635695Y609242D01*
X1627953Y610782D01*
D02*
G37*
G36*
X1029848Y797593D02*
X466553D01*
X462652Y796817D01*
X459344Y794606D01*
X457134Y791299D01*
X456358Y787397D01*
Y447721D01*
X457134Y443820D01*
X459344Y440512D01*
X462652Y438302D01*
X466553Y437526D01*
X1029848D01*
X1033750Y438302D01*
X1037057Y440512D01*
X1039268Y443820D01*
X1040044Y447721D01*
Y787397D01*
X1039268Y791299D01*
X1037057Y794606D01*
X1033750Y796817D01*
X1029848Y797593D01*
D02*
G37*
G36*
X1610394Y541496D02*
X1558898D01*
Y482126D01*
X1564474D01*
X1565955Y474685D01*
X1569872Y468822D01*
X1569296Y466673D01*
Y458857D01*
X1571319Y451307D01*
X1575227Y444538D01*
X1580754Y439011D01*
X1587523Y435103D01*
X1595073Y433080D01*
X1602889D01*
X1610439Y435103D01*
X1617208Y439011D01*
X1622735Y444538D01*
X1626643Y451307D01*
X1628666Y458857D01*
Y466673D01*
X1626643Y474223D01*
X1622735Y480992D01*
X1617208Y486519D01*
X1610439Y490427D01*
X1610394Y490439D01*
Y541496D01*
D02*
G37*
G36*
X1767874D02*
X1716378D01*
Y482126D01*
X1721895D01*
Y470978D01*
X1712707Y461790D01*
X1712613Y461772D01*
X1690787D01*
Y412244D01*
X1734409D01*
Y416777D01*
X1785337D01*
X1788860Y413254D01*
X1795629Y409346D01*
X1803178Y407323D01*
X1810995D01*
X1818545Y409346D01*
X1825314Y413254D01*
X1830841Y418781D01*
X1834749Y425550D01*
X1836772Y433100D01*
Y440916D01*
X1834749Y448466D01*
X1830841Y455235D01*
X1825314Y460762D01*
X1818545Y464670D01*
X1810995Y466693D01*
X1803178D01*
X1795629Y464670D01*
X1788860Y460762D01*
X1785337Y457239D01*
X1765232D01*
X1762060Y461104D01*
X1762357Y462598D01*
Y482126D01*
X1767874D01*
Y541496D01*
D02*
G37*
G36*
X1151732Y429291D02*
X1092362D01*
Y423774D01*
X856299D01*
X848557Y422235D01*
X841994Y417849D01*
X681701Y257557D01*
X677316Y250993D01*
X675776Y243251D01*
Y-4872D01*
X672855Y-6559D01*
X665220Y-14193D01*
X659822Y-23543D01*
X657028Y-33972D01*
Y-44768D01*
X659822Y-55197D01*
X665220Y-64547D01*
X672855Y-72181D01*
X682205Y-77580D01*
X692633Y-80374D01*
X703430D01*
X713858Y-77580D01*
X723208Y-72181D01*
X730843Y-64547D01*
X736241Y-55197D01*
X739035Y-44768D01*
Y-33972D01*
X736241Y-23543D01*
X730843Y-14193D01*
X723208Y-6559D01*
X716238Y-2535D01*
Y234871D01*
X864679Y383312D01*
X1092362D01*
Y377795D01*
X1151732D01*
Y429291D01*
D02*
G37*
G36*
X1771811Y375158D02*
X1755000D01*
Y355394D01*
X1771811D01*
Y375158D01*
D02*
G37*
G36*
X1745000D02*
X1728189D01*
Y355394D01*
X1745000D01*
Y375158D01*
D02*
G37*
G36*
X1771811Y345394D02*
X1755000D01*
Y325630D01*
X1771811D01*
Y345394D01*
D02*
G37*
G36*
X1745000D02*
X1728189D01*
Y325630D01*
X1745000D01*
Y345394D01*
D02*
G37*
G36*
X1590709Y423386D02*
X1539213D01*
Y364016D01*
X1590709D01*
Y373470D01*
X1626462D01*
X1653386Y346546D01*
Y325630D01*
X1697008D01*
Y375158D01*
X1681997D01*
X1649148Y408006D01*
X1642585Y412392D01*
X1634842Y413932D01*
X1590709D01*
Y423386D01*
D02*
G37*
G36*
X1304213Y319182D02*
Y300276D01*
X1323119D01*
X1319559Y308870D01*
X1312807Y315622D01*
X1304213Y319182D01*
D02*
G37*
G36*
X1294213D02*
X1285618Y315622D01*
X1278866Y308870D01*
X1275306Y300276D01*
X1294213D01*
Y319182D01*
D02*
G37*
G36*
X1323119Y290276D02*
X1304213D01*
Y271369D01*
X1312807Y274929D01*
X1319559Y281681D01*
X1323119Y290276D01*
D02*
G37*
G36*
X1294213D02*
X1275306D01*
X1278866Y281681D01*
X1285618Y274929D01*
X1294213Y271369D01*
Y290276D01*
D02*
G37*
G36*
X516811Y240442D02*
Y221535D01*
X535717D01*
X532157Y230130D01*
X525406Y236882D01*
X516811Y240442D01*
D02*
G37*
G36*
X506811D02*
X498216Y236882D01*
X491465Y230130D01*
X487905Y221535D01*
X506811D01*
Y240442D01*
D02*
G37*
G36*
X535717Y211535D02*
X516811D01*
Y192629D01*
X525406Y196189D01*
X532157Y202940D01*
X535717Y211535D01*
D02*
G37*
G36*
X506811D02*
X487905D01*
X491465Y202940D01*
X498216Y196189D01*
X506811Y192629D01*
Y211535D01*
D02*
G37*
G36*
X1551339Y541496D02*
X1499842D01*
Y512985D01*
X1491600Y504743D01*
X1487214Y498179D01*
X1485674Y490437D01*
Y423386D01*
X1480158D01*
Y364016D01*
X1485674D01*
Y244484D01*
X1484605Y244197D01*
X1477836Y240289D01*
X1472309Y234762D01*
X1468401Y227993D01*
X1466378Y220444D01*
Y212627D01*
X1468401Y205077D01*
X1472309Y198308D01*
X1477836Y192781D01*
X1484605Y188873D01*
X1492155Y186850D01*
X1499971D01*
X1507521Y188873D01*
X1514290Y192781D01*
X1519817Y198308D01*
X1523725Y205077D01*
X1525748Y212627D01*
Y220444D01*
X1524686Y224409D01*
X1526137Y231705D01*
Y364016D01*
X1531653D01*
Y423386D01*
X1526137D01*
Y482057D01*
X1526206Y482126D01*
X1551339D01*
Y541496D01*
D02*
G37*
G36*
X1700339Y292684D02*
X1685473D01*
X1671114Y288836D01*
X1658241Y281404D01*
X1647729Y270892D01*
X1640297Y258018D01*
X1636449Y243660D01*
Y228794D01*
X1640297Y214435D01*
X1647729Y201562D01*
X1658241Y191050D01*
X1671114Y183618D01*
X1685473Y179770D01*
X1700339D01*
X1714697Y183618D01*
X1727571Y191050D01*
X1738082Y201562D01*
X1745515Y214435D01*
X1749363Y228794D01*
Y243660D01*
X1745515Y258018D01*
X1738082Y270892D01*
X1727571Y281404D01*
X1714697Y288836D01*
X1700339Y292684D01*
D02*
G37*
G36*
X1697913Y102647D02*
Y83740D01*
X1716820D01*
X1713260Y92335D01*
X1706508Y99086D01*
X1697913Y102647D01*
D02*
G37*
G36*
X1687913D02*
X1679319Y99086D01*
X1672567Y92335D01*
X1669007Y83740D01*
X1687913D01*
Y102647D01*
D02*
G37*
G36*
X1716820Y73740D02*
X1697913D01*
Y54834D01*
X1706508Y58394D01*
X1713260Y65145D01*
X1716820Y73740D01*
D02*
G37*
G36*
X1687913D02*
X1669007D01*
X1672567Y65145D01*
X1679319Y58394D01*
X1687913Y54834D01*
Y73740D01*
D02*
G37*
G36*
X1151732Y94646D02*
X1092362D01*
Y88706D01*
X855876D01*
X848134Y87165D01*
X841570Y82780D01*
X783726Y24936D01*
X779340Y18372D01*
X777800Y10630D01*
Y-3703D01*
X772855Y-6559D01*
X765220Y-14193D01*
X759822Y-23543D01*
X757028Y-33972D01*
Y-44768D01*
X759822Y-55197D01*
X765220Y-64547D01*
X772855Y-72181D01*
X782205Y-77580D01*
X792633Y-80374D01*
X803430D01*
X813858Y-77580D01*
X823208Y-72181D01*
X830843Y-64547D01*
X836241Y-55197D01*
X839035Y-44768D01*
Y-33972D01*
X836241Y-23543D01*
X830843Y-14193D01*
X823208Y-6559D01*
X818263Y-3703D01*
Y2250D01*
X864256Y48243D01*
X1092362D01*
Y43150D01*
X1151732D01*
Y94646D01*
D02*
G37*
G36*
X1507355Y57629D02*
Y25085D01*
X1539899D01*
X1537354Y34582D01*
X1532409Y43147D01*
X1525417Y50140D01*
X1516852Y55084D01*
X1507355Y57629D01*
D02*
G37*
G36*
X144791Y71024D02*
X142795D01*
Y5000D01*
X208819D01*
Y6995D01*
X206089Y20717D01*
X200736Y33642D01*
X192963Y45275D01*
X183070Y55168D01*
X171438Y62940D01*
X158512Y68294D01*
X144791Y71024D01*
D02*
G37*
G36*
X132795D02*
X130800D01*
X117079Y68294D01*
X104153Y62940D01*
X92520Y55168D01*
X82628Y45275D01*
X74855Y33642D01*
X69501Y20717D01*
X66772Y6995D01*
Y5000D01*
X132795D01*
Y71024D01*
D02*
G37*
G36*
X1539899Y15085D02*
X1507355D01*
Y-17459D01*
X1516852Y-14914D01*
X1525417Y-9970D01*
X1532409Y-2977D01*
X1537354Y5588D01*
X1539899Y15085D01*
D02*
G37*
G36*
X1497355D02*
X1464811D01*
X1467355Y5588D01*
X1472300Y-2977D01*
X1479293Y-9970D01*
X1487858Y-14914D01*
X1497355Y-17459D01*
Y15085D01*
D02*
G37*
G36*
X639035Y1634D02*
X603032D01*
Y-34370D01*
X639035D01*
Y1634D01*
D02*
G37*
G36*
X593032D02*
X557028D01*
Y-34370D01*
X593032D01*
Y1634D01*
D02*
G37*
G36*
X1607299Y17487D02*
X1597410D01*
X1587858Y14927D01*
X1579293Y9982D01*
X1572300Y2990D01*
X1567355Y-5575D01*
X1564796Y-15128D01*
Y-25017D01*
X1567355Y-34569D01*
X1572300Y-43134D01*
X1579293Y-50127D01*
X1587858Y-55072D01*
X1597410Y-57631D01*
X1607299D01*
X1616852Y-55072D01*
X1625417Y-50127D01*
X1632409Y-43134D01*
X1637354Y-34569D01*
X1639914Y-25017D01*
Y-15128D01*
X1637354Y-5575D01*
X1632409Y2990D01*
X1625417Y9982D01*
X1616852Y14927D01*
X1607299Y17487D01*
D02*
G37*
G36*
X1150748Y-45118D02*
X1127047D01*
Y-68819D01*
X1150748D01*
Y-45118D01*
D02*
G37*
G36*
X1117047D02*
X1093346D01*
Y-68819D01*
X1117047D01*
Y-45118D01*
D02*
G37*
G36*
X208819Y-5000D02*
X142795D01*
Y-71024D01*
X144791D01*
X158512Y-68294D01*
X171438Y-62940D01*
X183070Y-55168D01*
X192963Y-45275D01*
X200736Y-33642D01*
X206089Y-20717D01*
X208819Y-6995D01*
Y-5000D01*
D02*
G37*
G36*
X132795D02*
X66772D01*
Y-6995D01*
X69501Y-20717D01*
X74855Y-33642D01*
X82628Y-45275D01*
X92520Y-55168D01*
X104153Y-62940D01*
X117079Y-68294D01*
X130800Y-71024D01*
X132795D01*
Y-5000D01*
D02*
G37*
G36*
X939035Y1634D02*
X857028D01*
Y-80374D01*
X939035D01*
Y1634D01*
D02*
G37*
G36*
X639035Y-44370D02*
X603032D01*
Y-80374D01*
X639035D01*
Y-44370D01*
D02*
G37*
G36*
X593032D02*
X557028D01*
Y-80374D01*
X593032D01*
Y-44370D01*
D02*
G37*
G36*
X1607355Y-62843D02*
Y-95387D01*
X1639899D01*
X1637354Y-85890D01*
X1632409Y-77326D01*
X1625417Y-70333D01*
X1616852Y-65388D01*
X1607355Y-62843D01*
D02*
G37*
G36*
X1597355D02*
X1587858Y-65388D01*
X1579293Y-70333D01*
X1572300Y-77326D01*
X1567355Y-85890D01*
X1564811Y-95387D01*
X1597355D01*
Y-62843D01*
D02*
G37*
G36*
X1507299Y-22671D02*
X1497410D01*
X1487858Y-25230D01*
X1479293Y-30175D01*
X1472300Y-37168D01*
X1467355Y-45733D01*
X1464796Y-55285D01*
Y-65174D01*
X1467355Y-74727D01*
X1472300Y-83292D01*
X1479293Y-90284D01*
X1487858Y-95229D01*
X1497410Y-97789D01*
X1507299D01*
X1516852Y-95229D01*
X1525417Y-90284D01*
X1532409Y-83292D01*
X1537354Y-74727D01*
X1539914Y-65174D01*
Y-55285D01*
X1537354Y-45733D01*
X1532409Y-37168D01*
X1525417Y-30175D01*
X1516852Y-25230D01*
X1507299Y-22671D01*
D02*
G37*
G36*
X1639899Y-105387D02*
X1607355D01*
Y-137931D01*
X1616852Y-135387D01*
X1625417Y-130442D01*
X1632409Y-123449D01*
X1637354Y-114885D01*
X1639899Y-105387D01*
D02*
G37*
G36*
X1597355D02*
X1564811D01*
X1567355Y-114885D01*
X1572300Y-123449D01*
X1579293Y-130442D01*
X1587858Y-135387D01*
X1597355Y-137931D01*
Y-105387D01*
D02*
G37*
G36*
X803430Y-98366D02*
X792633D01*
X782205Y-101161D01*
X772855Y-106559D01*
X765220Y-114193D01*
X759822Y-123543D01*
X757028Y-133972D01*
Y-144768D01*
X759822Y-155197D01*
X765220Y-164547D01*
X772855Y-172181D01*
X782205Y-177580D01*
X792633Y-180374D01*
X803430D01*
X813858Y-177580D01*
X823208Y-172181D01*
X830843Y-164547D01*
X836241Y-155197D01*
X839035Y-144768D01*
Y-133972D01*
X836241Y-123543D01*
X830843Y-114193D01*
X823208Y-106559D01*
X813858Y-101161D01*
X803430Y-98366D01*
D02*
G37*
G36*
X703430D02*
X692633D01*
X682205Y-101161D01*
X672855Y-106559D01*
X665220Y-114193D01*
X659822Y-123543D01*
X657028Y-133972D01*
Y-144768D01*
X659822Y-155197D01*
X665220Y-164547D01*
X672855Y-172181D01*
X682205Y-177580D01*
X692633Y-180374D01*
X703430D01*
X713858Y-177580D01*
X723208Y-172181D01*
X730843Y-164547D01*
X736241Y-155197D01*
X739035Y-144768D01*
Y-133972D01*
X736241Y-123543D01*
X730843Y-114193D01*
X723208Y-106559D01*
X713858Y-101161D01*
X703430Y-98366D01*
D02*
G37*
G36*
X603430D02*
X592633D01*
X582205Y-101161D01*
X572855Y-106559D01*
X565220Y-114193D01*
X559822Y-123543D01*
X557028Y-133972D01*
Y-144768D01*
X559822Y-155197D01*
X565220Y-164547D01*
X572855Y-172181D01*
X582205Y-177580D01*
X592633Y-180374D01*
X603430D01*
X613858Y-177580D01*
X623208Y-172181D01*
X630843Y-164547D01*
X636241Y-155197D01*
X639035Y-144768D01*
Y-133972D01*
X636241Y-123543D01*
X630843Y-114193D01*
X623208Y-106559D01*
X613858Y-101161D01*
X603430Y-98366D01*
D02*
G37*
G36*
X1816024Y-172944D02*
Y-191850D01*
X1834930D01*
X1831370Y-183256D01*
X1824619Y-176504D01*
X1816024Y-172944D01*
D02*
G37*
G36*
X1806024D02*
X1797429Y-176504D01*
X1790677Y-183256D01*
X1787117Y-191850D01*
X1806024D01*
Y-172944D01*
D02*
G37*
G36*
X1834930Y-201850D02*
X1816024D01*
Y-220757D01*
X1824619Y-217197D01*
X1831370Y-210445D01*
X1834930Y-201850D01*
D02*
G37*
G36*
X1806024D02*
X1787117D01*
X1790677Y-210445D01*
X1797429Y-217197D01*
X1806024Y-220757D01*
Y-201850D01*
D02*
G37*
G36*
X1700339Y-179757D02*
X1685473D01*
X1671114Y-183605D01*
X1658241Y-191037D01*
X1647729Y-201549D01*
X1640297Y-214423D01*
X1636449Y-228781D01*
Y-243647D01*
X1640297Y-258006D01*
X1647729Y-270879D01*
X1658241Y-281391D01*
X1671114Y-288823D01*
X1685473Y-292671D01*
X1700339D01*
X1714697Y-288823D01*
X1727571Y-281391D01*
X1738082Y-270879D01*
X1745515Y-258006D01*
X1749363Y-243647D01*
Y-228781D01*
X1745515Y-214423D01*
X1738082Y-201549D01*
X1727571Y-191037D01*
X1714697Y-183605D01*
X1700339Y-179757D01*
D02*
G37*
G36*
X2027559Y344842D02*
X1870079D01*
X1866177Y344065D01*
X1862869Y341855D01*
X1860659Y338548D01*
X1859883Y334646D01*
Y-334646D01*
X1860659Y-338548D01*
X1862869Y-341855D01*
X1866177Y-344065D01*
X1870079Y-344842D01*
X2027559D01*
X2031461Y-344065D01*
X2034769Y-341855D01*
X2036979Y-338548D01*
X2037755Y-334646D01*
Y334646D01*
X2036979Y338548D01*
X2034769Y341855D01*
X2031461Y344065D01*
X2027559Y344842D01*
D02*
G37*
G36*
X821024Y-308898D02*
X753032D01*
Y-351299D01*
X821024D01*
Y-308898D01*
D02*
G37*
G36*
X743032D02*
X675039D01*
Y-351299D01*
X743032D01*
Y-308898D01*
D02*
G37*
G36*
X1363268Y-369795D02*
Y-388701D01*
X1382174D01*
X1378614Y-380106D01*
X1371863Y-373355D01*
X1363268Y-369795D01*
D02*
G37*
G36*
X1353268D02*
X1344673Y-373355D01*
X1337921Y-380106D01*
X1334361Y-388701D01*
X1353268D01*
Y-369795D01*
D02*
G37*
G36*
X821024Y-361299D02*
X753032D01*
Y-403701D01*
X821024D01*
Y-361299D01*
D02*
G37*
G36*
X743032D02*
X675039D01*
Y-403701D01*
X743032D01*
Y-361299D01*
D02*
G37*
G36*
X494291Y-392487D02*
X477441D01*
Y-412716D01*
X508301D01*
Y-406496D01*
X507234Y-401135D01*
X504197Y-396590D01*
X499652Y-393553D01*
X494291Y-392487D01*
D02*
G37*
G36*
X467441D02*
X450591D01*
X445229Y-393553D01*
X440685Y-396590D01*
X437648Y-401135D01*
X436581Y-406496D01*
Y-412716D01*
X467441D01*
Y-392487D01*
D02*
G37*
G36*
X1382174Y-398701D02*
X1363268D01*
Y-417607D01*
X1371863Y-414047D01*
X1378614Y-407296D01*
X1382174Y-398701D01*
D02*
G37*
G36*
X1353268D02*
X1334361D01*
X1337921Y-407296D01*
X1344673Y-414047D01*
X1353268Y-417607D01*
Y-398701D01*
D02*
G37*
G36*
X1025787Y-412172D02*
X1008937D01*
Y-432402D01*
X1039797D01*
Y-426181D01*
X1038730Y-420820D01*
X1035693Y-416275D01*
X1031149Y-413238D01*
X1025787Y-412172D01*
D02*
G37*
G36*
X998937D02*
X982087D01*
X976726Y-413238D01*
X972181Y-416275D01*
X969144Y-420820D01*
X968077Y-426181D01*
Y-432402D01*
X998937D01*
Y-412172D01*
D02*
G37*
G36*
X1150748Y-419134D02*
X1127047D01*
Y-442835D01*
X1150748D01*
Y-419134D01*
D02*
G37*
G36*
X1117047D02*
X1093346D01*
Y-442835D01*
X1117047D01*
Y-419134D01*
D02*
G37*
G36*
X508301Y-422716D02*
X477441D01*
Y-442946D01*
X494291D01*
X499652Y-441880D01*
X504197Y-438843D01*
X507234Y-434298D01*
X508301Y-428937D01*
Y-422716D01*
D02*
G37*
G36*
X467441D02*
X436581D01*
Y-428937D01*
X437648Y-434298D01*
X440685Y-438843D01*
X445229Y-441880D01*
X450591Y-442946D01*
X467441D01*
Y-422716D01*
D02*
G37*
G36*
X1039797Y-442402D02*
X1008937D01*
Y-462631D01*
X1025787D01*
X1031149Y-461565D01*
X1035693Y-458528D01*
X1038730Y-453983D01*
X1039797Y-448622D01*
Y-442402D01*
D02*
G37*
G36*
X998937D02*
X968077D01*
Y-448622D01*
X969144Y-453983D01*
X972181Y-458528D01*
X976726Y-461565D01*
X982087Y-462631D01*
X998937D01*
Y-442402D01*
D02*
G37*
G36*
X1404633Y-499842D02*
X1402638D01*
Y-565866D01*
X1468661D01*
Y-563871D01*
X1465932Y-550149D01*
X1460578Y-537224D01*
X1452805Y-525591D01*
X1442913Y-515698D01*
X1431280Y-507926D01*
X1418355Y-502572D01*
X1404633Y-499842D01*
D02*
G37*
G36*
X1392638D02*
X1390643D01*
X1376921Y-502572D01*
X1363995Y-507926D01*
X1352363Y-515698D01*
X1342470Y-525591D01*
X1334697Y-537224D01*
X1329344Y-550149D01*
X1326614Y-563871D01*
Y-565866D01*
X1392638D01*
Y-499842D01*
D02*
G37*
G36*
X775748Y-541181D02*
X753032D01*
Y-583583D01*
X775748D01*
Y-541181D01*
D02*
G37*
G36*
X743032D02*
X720315D01*
Y-583583D01*
X743032D01*
Y-541181D01*
D02*
G37*
G36*
X1468661Y-575866D02*
X1402638D01*
Y-641890D01*
X1404633D01*
X1418355Y-639160D01*
X1431280Y-633806D01*
X1442913Y-626034D01*
X1452805Y-616141D01*
X1460578Y-604508D01*
X1465932Y-591583D01*
X1468661Y-577861D01*
Y-575866D01*
D02*
G37*
G36*
X1392638D02*
X1326614D01*
Y-577861D01*
X1329344Y-591583D01*
X1334697Y-604508D01*
X1342470Y-616141D01*
X1352363Y-626034D01*
X1363995Y-633806D01*
X1376921Y-639160D01*
X1390643Y-641890D01*
X1392638D01*
Y-575866D01*
D02*
G37*
G36*
X1304213Y-645385D02*
Y-664291D01*
X1323119D01*
X1319559Y-655696D01*
X1312807Y-648945D01*
X1304213Y-645385D01*
D02*
G37*
G36*
X1294213D02*
X1285618Y-648945D01*
X1278866Y-655696D01*
X1275306Y-664291D01*
X1294213D01*
Y-645385D01*
D02*
G37*
G36*
X1323119Y-674291D02*
X1304213D01*
Y-693198D01*
X1312807Y-689638D01*
X1319559Y-682886D01*
X1323119Y-674291D01*
D02*
G37*
G36*
X1294213D02*
X1275306D01*
X1278866Y-682886D01*
X1285618Y-689638D01*
X1294213Y-693198D01*
Y-674291D01*
D02*
G37*
%LPD*%
G36*
X1235326Y-506632D02*
X1239611Y-508198D01*
Y-523116D01*
X1133352Y-629375D01*
X866299D01*
Y-608814D01*
X932284D01*
X940026Y-607274D01*
X946589Y-602888D01*
X1016374Y-533104D01*
X1025787D01*
X1031149Y-532037D01*
X1035693Y-529000D01*
X1036292Y-528105D01*
X1204724D01*
X1212466Y-526565D01*
X1219030Y-522180D01*
X1234611Y-506598D01*
X1235326Y-506632D01*
D02*
G37*
D10*
X472441Y-417716D02*
D03*
Y-488189D02*
D03*
X1003937Y-437401D02*
D03*
Y-507874D02*
D03*
D11*
X657480Y-588583D02*
D03*
X748032D02*
D03*
X838583D02*
D03*
D12*
X748032Y-356299D02*
D03*
D13*
X1122047Y-447835D02*
D03*
Y-497047D02*
D03*
Y-73819D02*
D03*
Y-123031D02*
D03*
D14*
Y344488D02*
D03*
Y403543D02*
D03*
Y167323D02*
D03*
Y226378D02*
D03*
Y9842D02*
D03*
Y68898D02*
D03*
D15*
X1505906Y393701D02*
D03*
X1564961D02*
D03*
X1525591Y511811D02*
D03*
X1584646D02*
D03*
X1742126D02*
D03*
X1683071D02*
D03*
D16*
X1712598Y437008D02*
D03*
X1750000Y350394D02*
D03*
X1675197D02*
D03*
D17*
X483071Y-488189D02*
X583465Y-588583D01*
X1116142Y173228D02*
X1122047Y167323D01*
X767716Y177165D02*
X1100673D01*
X1104610Y173228D02*
X1116142D01*
X1100673Y177165D02*
X1104610Y173228D01*
X1673228Y355315D02*
X1673228D01*
X1564961Y393701D02*
X1634842D01*
X1673228Y355315D01*
X1505906Y231705D02*
Y490437D01*
X1517437Y501968D01*
X1519685D01*
X1190554Y226769D02*
X1220472Y196850D01*
X1140375Y226769D02*
X1190554D01*
X1712598Y437008D02*
X1807087D01*
X798032Y10630D02*
X855876Y68474D01*
X1121624D02*
X1122047Y68898D01*
X855876Y68474D02*
X1121624D01*
X898032Y-139370D02*
X899606Y-137795D01*
X1200787D01*
X1023622Y-507874D02*
X1122047D01*
X1200787Y-137795D02*
X1220472Y-118110D01*
X1122047Y-507874D02*
X1161417D01*
X696007Y-37346D02*
Y243251D01*
X856299Y403543D01*
X696007Y-37346D02*
X698032Y-39370D01*
X1496063Y216535D02*
Y221862D01*
X1505906Y231705D01*
X1673228Y355315D02*
X1673293Y355250D01*
Y354266D02*
Y355250D01*
X1519685Y501968D02*
X1519685Y501969D01*
X1584646Y511811D02*
X1584646Y511811D01*
Y482427D02*
Y511811D01*
X1601937Y60243D02*
X1602355D01*
X1502355Y100400D02*
X1561780D01*
X1601937Y60243D01*
X665354Y-625984D02*
Y-596457D01*
X657480Y-588583D02*
X665354Y-596457D01*
Y-625984D02*
X688976Y-649606D01*
X1141732D01*
X1259842Y-531496D01*
X583465Y-588583D02*
X657480D01*
X1259842Y-531496D02*
Y-142112D01*
X1161417Y-507874D02*
X1204724D01*
X1220472Y-492126D02*
Y-118110D01*
X1204724Y-507874D02*
X1220472Y-492126D01*
X1259842Y-142112D02*
X1502355Y100400D01*
X1012992Y-507874D02*
X1023622D01*
X1742126Y462598D02*
Y511811D01*
X1721457Y441929D02*
X1742126Y462598D01*
X1714567Y441929D02*
X1721457D01*
X1584646Y482427D02*
X1598981Y468092D01*
Y462765D02*
Y468092D01*
X932284Y-588583D02*
X1012992Y-507874D01*
X858268Y-588583D02*
X932284D01*
X1145669Y344488D02*
X1263780D01*
X1509842Y590551D01*
X1627953D01*
X1683071Y531496D02*
Y535433D01*
X1627953Y590551D02*
X1683071Y535433D01*
X1220472Y-118110D02*
Y-19685D01*
X798032Y-59055D02*
Y10630D01*
X856299Y403543D02*
X1122047D01*
X1145669Y344488D02*
X1220472Y269685D01*
Y196850D02*
Y269685D01*
Y-19685D02*
Y196850D01*
X1190945Y9842D02*
X1220472Y-19685D01*
X1141732Y9842D02*
X1190945D01*
D18*
X620853Y621162D02*
X580866D01*
Y561181D01*
X620853D01*
X580866Y591171D02*
X600860D01*
X680834Y611165D02*
X670837Y621162D01*
X650843D01*
X640847Y611165D01*
Y601168D01*
X650843Y591171D01*
X670837D01*
X680834Y581175D01*
Y571178D01*
X670837Y561181D01*
X650843D01*
X640847Y571178D01*
X700827Y561181D02*
Y621162D01*
X730818D01*
X740814Y611165D01*
Y591171D01*
X730818Y581175D01*
X700827D01*
X760808Y591171D02*
X800795D01*
X820788Y611165D02*
X830785Y621162D01*
X850779D01*
X860776Y611165D01*
Y571178D01*
X850779Y561181D01*
X830785D01*
X820788Y571178D01*
Y611165D01*
X880769Y561181D02*
X900763D01*
X890766D01*
Y621162D01*
X880769Y611165D01*
D19*
X898032Y-139370D02*
D03*
X798032D02*
D03*
X698032D02*
D03*
X598032D02*
D03*
X698032Y-39370D02*
D03*
X798032D02*
D03*
D20*
X598032D02*
D03*
X898032D02*
D03*
D21*
X1502355Y-60230D02*
D03*
X1602355Y-100387D02*
D03*
Y-20072D02*
D03*
Y60243D02*
D03*
Y-20072D02*
D03*
X1502355Y20085D02*
D03*
D22*
X1692906Y-236214D02*
D03*
Y236227D02*
D03*
D23*
X1502355Y100400D02*
D03*
D24*
X1397638Y-570866D02*
D03*
Y728346D02*
D03*
X137795Y0D02*
D03*
D25*
X1299213Y-669291D02*
D03*
X1181102Y748032D02*
D03*
X1299213Y295276D02*
D03*
X1614173Y669291D02*
D03*
X1692913Y78740D02*
D03*
X1811024Y-196850D02*
D03*
X511811Y216535D02*
D03*
X1358268Y-393701D02*
D03*
D26*
X1807087Y437008D02*
D03*
X1496063Y216535D02*
D03*
X1598981Y462765D02*
D03*
D27*
X767716Y177165D02*
D03*
%TF.MD5,8f25f5693d005388e02806e7aa300926*%
M02*
