%TF.GenerationSoftware,Altium Limited,Altium Designer,21.2.2 (38)*%
G04 Layer_Physical_Order=2*
G04 Layer_Color=16711680*
%FSLAX26Y26*%
%MOIN*%
%TF.SameCoordinates,75BC83C2-9D79-468A-8CB9-4745F9D1B378*%
%TF.FilePolarity,Positive*%
%TF.FileFunction,Copper,L2,Bot,Signal*%
%TF.Part,Single*%
G01*
G75*
%TA.AperFunction,Conductor*%
%ADD17C,0.019685*%
%TA.AperFunction,ComponentPad*%
%ADD19C,0.062008*%
%ADD20R,0.062008X0.062008*%
%ADD21C,0.055118*%
%ADD22C,0.092913*%
%ADD23R,0.055118X0.055118*%
%TA.AperFunction,ViaPad*%
%ADD24C,0.122047*%
%ADD25C,0.028000*%
%ADD26C,0.039370*%
%ADD27C,0.050000*%
G36*
X2204724Y984252D02*
Y-1062992D01*
X-177165D01*
Y905512D01*
Y1023622D01*
X2125984D01*
X2145669Y1043307D01*
X2204724Y984252D01*
D02*
G37*
%LPC*%
G36*
X1186102Y771938D02*
Y753032D01*
X1205009D01*
X1201449Y761626D01*
X1194697Y768378D01*
X1186102Y771938D01*
D02*
G37*
G36*
X1176102D02*
X1167507Y768378D01*
X1160756Y761626D01*
X1157196Y753032D01*
X1176102D01*
Y771938D01*
D02*
G37*
G36*
X1404633Y799370D02*
X1402638D01*
Y733346D01*
X1468661D01*
Y735342D01*
X1465932Y749063D01*
X1460578Y761989D01*
X1452805Y773621D01*
X1442913Y783514D01*
X1431280Y791287D01*
X1418355Y796641D01*
X1404633Y799370D01*
D02*
G37*
G36*
X1392638D02*
X1390643D01*
X1376921Y796641D01*
X1363995Y791287D01*
X1352363Y783514D01*
X1342470Y773621D01*
X1334697Y761989D01*
X1329344Y749063D01*
X1326614Y735342D01*
Y733346D01*
X1392638D01*
Y799370D01*
D02*
G37*
G36*
X1205009Y743032D02*
X1186102D01*
Y724125D01*
X1194697Y727685D01*
X1201449Y734437D01*
X1205009Y743032D01*
D02*
G37*
G36*
X1176102D02*
X1157196D01*
X1160756Y734437D01*
X1167507Y727685D01*
X1176102Y724125D01*
Y743032D01*
D02*
G37*
G36*
X1619173Y693198D02*
Y674291D01*
X1638080D01*
X1634519Y682886D01*
X1627768Y689638D01*
X1619173Y693198D01*
D02*
G37*
G36*
X1609173D02*
X1600578Y689638D01*
X1593827Y682886D01*
X1590267Y674291D01*
X1609173D01*
Y693198D01*
D02*
G37*
G36*
X1468661Y723346D02*
X1402638D01*
Y657323D01*
X1404633D01*
X1418355Y660052D01*
X1431280Y665406D01*
X1442913Y673179D01*
X1452805Y683072D01*
X1460578Y694704D01*
X1465932Y707630D01*
X1468661Y721351D01*
Y723346D01*
D02*
G37*
G36*
X1392638D02*
X1326614D01*
Y721351D01*
X1329344Y707630D01*
X1334697Y694704D01*
X1342470Y683072D01*
X1352363Y673179D01*
X1363995Y665406D01*
X1376921Y660052D01*
X1390643Y657323D01*
X1392638D01*
Y723346D01*
D02*
G37*
G36*
X1638080Y664291D02*
X1619173D01*
Y645385D01*
X1627768Y648945D01*
X1634519Y655696D01*
X1638080Y664291D01*
D02*
G37*
G36*
X1609173D02*
X1590267D01*
X1593827Y655696D01*
X1600578Y648945D01*
X1609173Y645385D01*
Y664291D01*
D02*
G37*
G36*
X1304213Y319182D02*
Y300276D01*
X1323119D01*
X1319559Y308870D01*
X1312807Y315622D01*
X1304213Y319182D01*
D02*
G37*
G36*
X1294213D02*
X1285618Y315622D01*
X1278866Y308870D01*
X1275306Y300276D01*
X1294213D01*
Y319182D01*
D02*
G37*
G36*
X1031265Y807348D02*
X455638D01*
X451736Y806572D01*
X448429Y804362D01*
X446219Y801054D01*
X445442Y797152D01*
Y309876D01*
X446219Y305974D01*
X448429Y302666D01*
X451736Y300456D01*
X455638Y299680D01*
X1031265D01*
X1035167Y300456D01*
X1038474Y302666D01*
X1040685Y305974D01*
X1041461Y309876D01*
Y797152D01*
X1040685Y801054D01*
X1038474Y804362D01*
X1035167Y806572D01*
X1031265Y807348D01*
D02*
G37*
G36*
X1810995Y466693D02*
X1803178D01*
X1795629Y464670D01*
X1788860Y460762D01*
X1783333Y455235D01*
X1779425Y448466D01*
X1777402Y440916D01*
Y433100D01*
X1779425Y425550D01*
X1783333Y418781D01*
X1786855Y415258D01*
Y363986D01*
X1744899Y322030D01*
X1740514Y315466D01*
X1738974Y307724D01*
Y277072D01*
X1733974Y275001D01*
X1727571Y281404D01*
X1714697Y288836D01*
X1700339Y292684D01*
X1685473D01*
X1671114Y288836D01*
X1658241Y281404D01*
X1647729Y270892D01*
X1640297Y258018D01*
X1636449Y243660D01*
Y228794D01*
X1640297Y214435D01*
X1647729Y201562D01*
X1658241Y191050D01*
X1671114Y183618D01*
X1685473Y179770D01*
X1700339D01*
X1714697Y183618D01*
X1727571Y191050D01*
X1733974Y197453D01*
X1738974Y195382D01*
Y-110647D01*
X1722064Y-127558D01*
X1634643D01*
X1632924Y-122558D01*
X1637354Y-114885D01*
X1639899Y-105387D01*
X1602355D01*
X1564811D01*
X1567355Y-114885D01*
X1571785Y-122558D01*
X1570066Y-127558D01*
X1435696D01*
X1352888Y-44749D01*
X1346325Y-40364D01*
X1338583Y-38824D01*
X939035D01*
Y1634D01*
X857028D01*
Y-80374D01*
X939035D01*
Y-79286D01*
X1330203D01*
X1413011Y-162095D01*
X1419574Y-166480D01*
X1427316Y-168020D01*
X1730444D01*
X1738186Y-166480D01*
X1744749Y-162095D01*
X1773511Y-133333D01*
X1777896Y-126770D01*
X1779436Y-119027D01*
Y299344D01*
X1821392Y341300D01*
X1825778Y347863D01*
X1827318Y355606D01*
Y415258D01*
X1830841Y418781D01*
X1834749Y425550D01*
X1836772Y433100D01*
Y440916D01*
X1834749Y448466D01*
X1830841Y455235D01*
X1825314Y460762D01*
X1818545Y464670D01*
X1810995Y466693D01*
D02*
G37*
G36*
X1323119Y290276D02*
X1304213D01*
Y271369D01*
X1312807Y274929D01*
X1319559Y281681D01*
X1323119Y290276D01*
D02*
G37*
G36*
X1294213D02*
X1275306D01*
X1278866Y281681D01*
X1285618Y274929D01*
X1294213Y271369D01*
Y290276D01*
D02*
G37*
G36*
X516811Y240442D02*
Y221535D01*
X535717D01*
X532157Y230130D01*
X525406Y236882D01*
X516811Y240442D01*
D02*
G37*
G36*
X506811D02*
X498216Y236882D01*
X491465Y230130D01*
X487905Y221535D01*
X506811D01*
Y240442D01*
D02*
G37*
G36*
X535717Y211535D02*
X516811D01*
Y192629D01*
X525406Y196189D01*
X532157Y202940D01*
X535717Y211535D01*
D02*
G37*
G36*
X506811D02*
X487905D01*
X491465Y202940D01*
X498216Y196189D01*
X506811Y192629D01*
Y211535D01*
D02*
G37*
G36*
X772324Y212165D02*
X763109D01*
X754207Y209780D01*
X746226Y205172D01*
X739710Y198656D01*
X738982Y197397D01*
X649606D01*
X641864Y195857D01*
X635301Y191471D01*
X517190Y73361D01*
X512805Y66797D01*
X511265Y59055D01*
Y-224689D01*
X512805Y-232431D01*
X517190Y-238995D01*
X528722Y-250526D01*
X535285Y-254912D01*
X543027Y-256452D01*
X669291D01*
X677034Y-254912D01*
X683597Y-250526D01*
X712337Y-221786D01*
X716723Y-215222D01*
X718263Y-207480D01*
Y-175037D01*
X723208Y-172181D01*
X730843Y-164547D01*
X736241Y-155197D01*
X739035Y-144768D01*
Y-133972D01*
X736241Y-123543D01*
X730843Y-114193D01*
X723208Y-106559D01*
X713858Y-101161D01*
X703430Y-98366D01*
X692633D01*
X682205Y-101161D01*
X672855Y-106559D01*
X665220Y-114193D01*
X659822Y-123543D01*
X657028Y-133972D01*
Y-144768D01*
X659822Y-155197D01*
X665220Y-164547D01*
X672855Y-172181D01*
X677800Y-175037D01*
Y-199100D01*
X660911Y-215989D01*
X551727D01*
Y50675D01*
X657986Y156934D01*
X738982D01*
X739710Y155675D01*
X746226Y149158D01*
X754207Y144551D01*
X763109Y142165D01*
X772324D01*
X781226Y144551D01*
X789207Y149158D01*
X795723Y155675D01*
X800331Y163656D01*
X802716Y172558D01*
Y181773D01*
X800331Y190675D01*
X795723Y198656D01*
X789207Y205172D01*
X781226Y209780D01*
X772324Y212165D01*
D02*
G37*
G36*
X1697913Y102647D02*
Y83740D01*
X1716820D01*
X1713260Y92335D01*
X1706508Y99086D01*
X1697913Y102647D01*
D02*
G37*
G36*
X1687913D02*
X1679319Y99086D01*
X1672567Y92335D01*
X1669007Y83740D01*
X1687913D01*
Y102647D01*
D02*
G37*
G36*
X1716820Y73740D02*
X1697913D01*
Y54834D01*
X1706508Y58394D01*
X1713260Y65145D01*
X1716820Y73740D01*
D02*
G37*
G36*
X1687913D02*
X1669007D01*
X1672567Y65145D01*
X1679319Y58394D01*
X1687913Y54834D01*
Y73740D01*
D02*
G37*
G36*
X1507355Y57629D02*
Y25085D01*
X1539899D01*
X1537354Y34582D01*
X1532409Y43147D01*
X1525417Y50140D01*
X1516852Y55084D01*
X1507355Y57629D01*
D02*
G37*
G36*
X1602889Y492450D02*
X1595073D01*
X1587523Y490427D01*
X1580754Y486519D01*
X1575227Y480992D01*
X1571319Y474223D01*
X1569296Y466673D01*
Y458857D01*
X1571319Y451307D01*
X1575227Y444538D01*
X1580437Y439328D01*
Y90958D01*
X1579293Y90297D01*
X1572300Y83304D01*
X1567355Y74740D01*
X1564796Y65187D01*
Y55298D01*
X1567355Y45745D01*
X1572300Y37181D01*
X1579293Y30188D01*
X1587858Y25243D01*
X1597410Y22684D01*
X1607299D01*
X1616852Y25243D01*
X1625417Y30188D01*
X1632409Y37181D01*
X1637354Y45745D01*
X1639914Y55298D01*
Y65187D01*
X1637354Y74740D01*
X1632409Y83304D01*
X1625417Y90297D01*
X1620899Y92905D01*
Y442702D01*
X1622735Y444538D01*
X1626643Y451307D01*
X1628666Y458857D01*
Y466673D01*
X1626643Y474223D01*
X1622735Y480992D01*
X1617208Y486519D01*
X1610439Y490427D01*
X1602889Y492450D01*
D02*
G37*
G36*
X144791Y71024D02*
X142795D01*
Y5000D01*
X208819D01*
Y6995D01*
X206089Y20717D01*
X200736Y33642D01*
X192963Y45275D01*
X183070Y55168D01*
X171438Y62940D01*
X158512Y68294D01*
X144791Y71024D01*
D02*
G37*
G36*
X132795D02*
X130800D01*
X117079Y68294D01*
X104153Y62940D01*
X92520Y55168D01*
X82628Y45275D01*
X74855Y33642D01*
X69501Y20717D01*
X66772Y6995D01*
Y5000D01*
X132795D01*
Y71024D01*
D02*
G37*
G36*
X1539899Y15085D02*
X1507355D01*
Y-17459D01*
X1516852Y-14914D01*
X1525417Y-9970D01*
X1532409Y-2977D01*
X1537354Y5588D01*
X1539899Y15085D01*
D02*
G37*
G36*
X639035Y1634D02*
X603032D01*
Y-34370D01*
X639035D01*
Y1634D01*
D02*
G37*
G36*
X593032D02*
X557028D01*
Y-34370D01*
X593032D01*
Y1634D01*
D02*
G37*
G36*
X1607299Y17487D02*
X1597410D01*
X1587858Y14927D01*
X1579293Y9982D01*
X1572300Y2990D01*
X1567355Y-5575D01*
X1564796Y-15128D01*
Y-25017D01*
X1567355Y-34569D01*
X1572300Y-43134D01*
X1579293Y-50127D01*
X1587858Y-55072D01*
X1597410Y-57631D01*
X1607299D01*
X1616852Y-55072D01*
X1625417Y-50127D01*
X1632409Y-43134D01*
X1637354Y-34569D01*
X1639914Y-25017D01*
Y-15128D01*
X1637354Y-5575D01*
X1632409Y2990D01*
X1625417Y9982D01*
X1616852Y14927D01*
X1607299Y17487D01*
D02*
G37*
G36*
X208819Y-5000D02*
X142795D01*
Y-71024D01*
X144791D01*
X158512Y-68294D01*
X171438Y-62940D01*
X183070Y-55168D01*
X192963Y-45275D01*
X200736Y-33642D01*
X206089Y-20717D01*
X208819Y-6995D01*
Y-5000D01*
D02*
G37*
G36*
X132795D02*
X66772D01*
Y-6995D01*
X69501Y-20717D01*
X74855Y-33642D01*
X82628Y-45275D01*
X92520Y-55168D01*
X104153Y-62940D01*
X117079Y-68294D01*
X130800Y-71024D01*
X132795D01*
Y-5000D01*
D02*
G37*
G36*
X803430Y1634D02*
X792633D01*
X782205Y-1161D01*
X772855Y-6559D01*
X765220Y-14193D01*
X759822Y-23543D01*
X757028Y-33972D01*
Y-44768D01*
X759822Y-55197D01*
X765220Y-64547D01*
X772855Y-72181D01*
X782205Y-77580D01*
X792633Y-80374D01*
X803430D01*
X813858Y-77580D01*
X823208Y-72181D01*
X830843Y-64547D01*
X836241Y-55197D01*
X839035Y-44768D01*
Y-33972D01*
X836241Y-23543D01*
X830843Y-14193D01*
X823208Y-6559D01*
X813858Y-1161D01*
X803430Y1634D01*
D02*
G37*
G36*
X703430D02*
X692633D01*
X682205Y-1161D01*
X672855Y-6559D01*
X665220Y-14193D01*
X659822Y-23543D01*
X657028Y-33972D01*
Y-44768D01*
X659822Y-55197D01*
X665220Y-64547D01*
X672855Y-72181D01*
X682205Y-77580D01*
X692633Y-80374D01*
X703430D01*
X713858Y-77580D01*
X723208Y-72181D01*
X730843Y-64547D01*
X736241Y-55197D01*
X739035Y-44768D01*
Y-33972D01*
X736241Y-23543D01*
X730843Y-14193D01*
X723208Y-6559D01*
X713858Y-1161D01*
X703430Y1634D01*
D02*
G37*
G36*
X639035Y-44370D02*
X603032D01*
Y-80374D01*
X639035D01*
Y-44370D01*
D02*
G37*
G36*
X593032D02*
X557028D01*
Y-80374D01*
X593032D01*
Y-44370D01*
D02*
G37*
G36*
X1607355Y-62843D02*
Y-95387D01*
X1639899D01*
X1637354Y-85890D01*
X1632409Y-77326D01*
X1625417Y-70333D01*
X1616852Y-65388D01*
X1607355Y-62843D01*
D02*
G37*
G36*
X1597355D02*
X1587858Y-65388D01*
X1579293Y-70333D01*
X1572300Y-77326D01*
X1567355Y-85890D01*
X1564811Y-95387D01*
X1597355D01*
Y-62843D01*
D02*
G37*
G36*
X1499971Y246220D02*
X1492155D01*
X1484605Y244197D01*
X1477836Y240289D01*
X1472309Y234762D01*
X1468401Y227993D01*
X1466378Y220444D01*
Y215462D01*
X1440648Y189731D01*
X1436262Y183168D01*
X1434722Y175425D01*
Y-12828D01*
X1436262Y-20570D01*
X1440648Y-27134D01*
X1465642Y-52128D01*
X1464796Y-55285D01*
Y-65174D01*
X1467355Y-74727D01*
X1472300Y-83292D01*
X1479293Y-90284D01*
X1487858Y-95229D01*
X1497410Y-97789D01*
X1507299D01*
X1516852Y-95229D01*
X1525417Y-90284D01*
X1532409Y-83292D01*
X1537354Y-74727D01*
X1539914Y-65174D01*
Y-55285D01*
X1537354Y-45733D01*
X1532409Y-37168D01*
X1525417Y-30175D01*
X1516852Y-25230D01*
X1507299Y-22671D01*
X1497410D01*
X1496718Y-22856D01*
X1496278Y-22282D01*
X1496597Y-20925D01*
X1497355Y-19785D01*
Y20085D01*
Y57629D01*
X1487858Y55084D01*
X1480184Y50654D01*
X1475184Y52374D01*
Y62841D01*
X1539914D01*
Y137959D01*
X1475184D01*
Y167046D01*
X1494989Y186850D01*
X1499971D01*
X1507521Y188873D01*
X1514290Y192781D01*
X1519817Y198308D01*
X1523725Y205077D01*
X1525748Y212627D01*
Y220444D01*
X1523725Y227993D01*
X1519817Y234762D01*
X1514290Y240289D01*
X1507521Y244197D01*
X1499971Y246220D01*
D02*
G37*
G36*
X903430Y-98366D02*
X892633D01*
X882205Y-101161D01*
X872855Y-106559D01*
X865220Y-114193D01*
X859822Y-123543D01*
X857028Y-133972D01*
Y-144768D01*
X859822Y-155197D01*
X865220Y-164547D01*
X872855Y-172181D01*
X882205Y-177580D01*
X892633Y-180374D01*
X903430D01*
X913858Y-177580D01*
X923208Y-172181D01*
X930843Y-164547D01*
X936241Y-155197D01*
X939035Y-144768D01*
Y-133972D01*
X936241Y-123543D01*
X930843Y-114193D01*
X923208Y-106559D01*
X913858Y-101161D01*
X903430Y-98366D01*
D02*
G37*
G36*
X803430D02*
X792633D01*
X782205Y-101161D01*
X772855Y-106559D01*
X765220Y-114193D01*
X759822Y-123543D01*
X757028Y-133972D01*
Y-144768D01*
X759822Y-155197D01*
X765220Y-164547D01*
X772855Y-172181D01*
X782205Y-177580D01*
X792633Y-180374D01*
X803430D01*
X813858Y-177580D01*
X823208Y-172181D01*
X830843Y-164547D01*
X836241Y-155197D01*
X839035Y-144768D01*
Y-133972D01*
X836241Y-123543D01*
X830843Y-114193D01*
X823208Y-106559D01*
X813858Y-101161D01*
X803430Y-98366D01*
D02*
G37*
G36*
X603430D02*
X592633D01*
X582205Y-101161D01*
X572855Y-106559D01*
X565220Y-114193D01*
X559822Y-123543D01*
X557028Y-133972D01*
Y-144768D01*
X559822Y-155197D01*
X565220Y-164547D01*
X572855Y-172181D01*
X582205Y-177580D01*
X592633Y-180374D01*
X603430D01*
X613858Y-177580D01*
X623208Y-172181D01*
X630843Y-164547D01*
X636241Y-155197D01*
X639035Y-144768D01*
Y-133972D01*
X636241Y-123543D01*
X630843Y-114193D01*
X623208Y-106559D01*
X613858Y-101161D01*
X603430Y-98366D01*
D02*
G37*
G36*
X1816024Y-172944D02*
Y-191850D01*
X1834930D01*
X1831370Y-183256D01*
X1824619Y-176504D01*
X1816024Y-172944D01*
D02*
G37*
G36*
X1806024D02*
X1797429Y-176504D01*
X1790677Y-183256D01*
X1787117Y-191850D01*
X1806024D01*
Y-172944D01*
D02*
G37*
G36*
X1834930Y-201850D02*
X1816024D01*
Y-220757D01*
X1824619Y-217197D01*
X1831370Y-210445D01*
X1834930Y-201850D01*
D02*
G37*
G36*
X1806024D02*
X1787117D01*
X1790677Y-210445D01*
X1797429Y-217197D01*
X1806024Y-220757D01*
Y-201850D01*
D02*
G37*
G36*
X1700339Y-179757D02*
X1685473D01*
X1671114Y-183605D01*
X1658241Y-191037D01*
X1647729Y-201549D01*
X1640297Y-214423D01*
X1636449Y-228781D01*
Y-243647D01*
X1640297Y-258006D01*
X1647729Y-270879D01*
X1658241Y-281391D01*
X1671114Y-288823D01*
X1685473Y-292671D01*
X1700339D01*
X1714697Y-288823D01*
X1727571Y-281391D01*
X1738082Y-270879D01*
X1745515Y-258006D01*
X1749363Y-243647D01*
Y-228781D01*
X1745515Y-214423D01*
X1738082Y-201549D01*
X1727571Y-191037D01*
X1714697Y-183605D01*
X1700339Y-179757D01*
D02*
G37*
G36*
X2027559Y344842D02*
X1870079D01*
X1866177Y344065D01*
X1862869Y341855D01*
X1860659Y338548D01*
X1859883Y334646D01*
Y-334646D01*
X1860659Y-338548D01*
X1862869Y-341855D01*
X1866177Y-344065D01*
X1870079Y-344842D01*
X2027559D01*
X2031461Y-344065D01*
X2034769Y-341855D01*
X2036979Y-338548D01*
X2037755Y-334646D01*
Y334646D01*
X2036979Y338548D01*
X2034769Y341855D01*
X2031461Y344065D01*
X2027559Y344842D01*
D02*
G37*
G36*
X1363268Y-369795D02*
Y-388701D01*
X1382174D01*
X1378614Y-380106D01*
X1371863Y-373355D01*
X1363268Y-369795D01*
D02*
G37*
G36*
X1353268D02*
X1344673Y-373355D01*
X1337921Y-380106D01*
X1334361Y-388701D01*
X1353268D01*
Y-369795D01*
D02*
G37*
G36*
X1382174Y-398701D02*
X1363268D01*
Y-417607D01*
X1371863Y-414047D01*
X1378614Y-407296D01*
X1382174Y-398701D01*
D02*
G37*
G36*
X1353268D02*
X1334361D01*
X1337921Y-407296D01*
X1344673Y-414047D01*
X1353268Y-417607D01*
Y-398701D01*
D02*
G37*
G36*
X1404633Y-499842D02*
X1402638D01*
Y-565866D01*
X1468661D01*
Y-563871D01*
X1465932Y-550149D01*
X1460578Y-537224D01*
X1452805Y-525591D01*
X1442913Y-515698D01*
X1431280Y-507926D01*
X1418355Y-502572D01*
X1404633Y-499842D01*
D02*
G37*
G36*
X1392638D02*
X1390643D01*
X1376921Y-502572D01*
X1363995Y-507926D01*
X1352363Y-515698D01*
X1342470Y-525591D01*
X1334697Y-537224D01*
X1329344Y-550149D01*
X1326614Y-563871D01*
Y-565866D01*
X1392638D01*
Y-499842D01*
D02*
G37*
G36*
X1468661Y-575866D02*
X1402638D01*
Y-641890D01*
X1404633D01*
X1418355Y-639160D01*
X1431280Y-633806D01*
X1442913Y-626034D01*
X1452805Y-616141D01*
X1460578Y-604508D01*
X1465932Y-591583D01*
X1468661Y-577861D01*
Y-575866D01*
D02*
G37*
G36*
X1392638D02*
X1326614D01*
Y-577861D01*
X1329344Y-591583D01*
X1334697Y-604508D01*
X1342470Y-616141D01*
X1352363Y-626034D01*
X1363995Y-633806D01*
X1376921Y-639160D01*
X1390643Y-641890D01*
X1392638D01*
Y-575866D01*
D02*
G37*
G36*
X1304213Y-645385D02*
Y-664291D01*
X1323119D01*
X1319559Y-655696D01*
X1312807Y-648945D01*
X1304213Y-645385D01*
D02*
G37*
G36*
X1294213D02*
X1285618Y-648945D01*
X1278866Y-655696D01*
X1275306Y-664291D01*
X1294213D01*
Y-645385D01*
D02*
G37*
G36*
X1323119Y-674291D02*
X1304213D01*
Y-693198D01*
X1312807Y-689638D01*
X1319559Y-682886D01*
X1323119Y-674291D01*
D02*
G37*
G36*
X1294213D02*
X1275306D01*
X1278866Y-682886D01*
X1285618Y-689638D01*
X1294213Y-693198D01*
Y-674291D01*
D02*
G37*
%LPD*%
D17*
X1807087Y355606D02*
Y437008D01*
X1759205Y307724D02*
X1807087Y355606D01*
X1759205Y-119027D02*
Y307724D01*
X1427316Y-147789D02*
X1730444D01*
X1759205Y-119027D01*
X1454953Y175425D02*
X1496063Y216535D01*
X1454953Y-12828D02*
Y175425D01*
Y-12828D02*
X1502355Y-60230D01*
X1600668Y61929D02*
Y461078D01*
Y61929D02*
X1602355Y60243D01*
X1598981Y462765D02*
X1600668Y461078D01*
X1338583Y-59055D02*
X1427316Y-147789D01*
X898032Y-59055D02*
X1338583D01*
X543027Y-236220D02*
X669291D01*
X698032Y-207480D02*
Y-159055D01*
X669291Y-236220D02*
X698032Y-207480D01*
X531496Y-224689D02*
Y59055D01*
Y-224689D02*
X543027Y-236220D01*
X531496Y59055D02*
X649606Y177165D01*
X767716D01*
D19*
X898032Y-139370D02*
D03*
X798032D02*
D03*
X698032D02*
D03*
X598032D02*
D03*
X698032Y-39370D02*
D03*
X798032D02*
D03*
D20*
X598032D02*
D03*
X898032D02*
D03*
D21*
X1502355Y-60230D02*
D03*
X1602355Y-100387D02*
D03*
Y-20072D02*
D03*
Y60243D02*
D03*
Y-20072D02*
D03*
X1502355Y20085D02*
D03*
D22*
X1692906Y-236214D02*
D03*
Y236227D02*
D03*
D23*
X1502355Y100400D02*
D03*
D24*
X1397638Y-570866D02*
D03*
Y728346D02*
D03*
X137795Y0D02*
D03*
D25*
X1299213Y-669291D02*
D03*
X1181102Y748032D02*
D03*
X1299213Y295276D02*
D03*
X1614173Y669291D02*
D03*
X1692913Y78740D02*
D03*
X1811024Y-196850D02*
D03*
X511811Y216535D02*
D03*
X1358268Y-393701D02*
D03*
D26*
X1807087Y437008D02*
D03*
X1496063Y216535D02*
D03*
X1598981Y462765D02*
D03*
D27*
X767716Y177165D02*
D03*
%TF.MD5,3bbde3790dfe9aeae15837adf110df08*%
M02*
