%TF.GenerationSoftware,Altium Limited,Altium Designer,21.2.2 (38)*%
G04 Layer_Color=8421504*
%FSLAX26Y26*%
%MOIN*%
%TF.SameCoordinates,75BC83C2-9D79-468A-8CB9-4745F9D1B378*%
%TF.FilePolarity,Positive*%
%TF.FileFunction,Paste,Top*%
%TF.Part,Single*%
G01*
G75*
%TA.AperFunction,SMDPad,CuDef*%
G04:AMPARAMS|DCode=10|XSize=51.181mil|YSize=29.921mil|CornerRadius=3.74mil|HoleSize=0mil|Usage=FLASHONLY|Rotation=180.000|XOffset=0mil|YOffset=0mil|HoleType=Round|Shape=RoundedRectangle|*
%AMROUNDEDRECTD10*
21,1,0.051181,0.022441,0,0,180.0*
21,1,0.043701,0.029921,0,0,180.0*
1,1,0.007480,-0.021850,0.011220*
1,1,0.007480,0.021850,0.011220*
1,1,0.007480,0.021850,-0.011220*
1,1,0.007480,-0.021850,-0.011220*
%
%ADD10ROUNDEDRECTD10*%
%ADD11R,0.035433X0.074803*%
%ADD12R,0.125984X0.074803*%
%ADD13R,0.037402X0.037402*%
%ADD14R,0.039370X0.031496*%
%ADD15R,0.031496X0.039370*%
%ADD16R,0.023622X0.029528*%
D10*
X472441Y-417716D02*
D03*
Y-488189D02*
D03*
X1003937Y-437401D02*
D03*
Y-507874D02*
D03*
D11*
X657480Y-588583D02*
D03*
X748032D02*
D03*
X838583D02*
D03*
D12*
X748032Y-356299D02*
D03*
D13*
X1122047Y-447835D02*
D03*
Y-497047D02*
D03*
Y-73819D02*
D03*
Y-123031D02*
D03*
D14*
Y344488D02*
D03*
Y403543D02*
D03*
Y167323D02*
D03*
Y226378D02*
D03*
Y9842D02*
D03*
Y68898D02*
D03*
D15*
X1505906Y393701D02*
D03*
X1564961D02*
D03*
X1525591Y511811D02*
D03*
X1584646D02*
D03*
X1742126D02*
D03*
X1683071D02*
D03*
D16*
X1712598Y437008D02*
D03*
X1750000Y350394D02*
D03*
X1675197D02*
D03*
%TF.MD5,d7cde04a637cdc840107c03bd720c1cb*%
M02*
