%TF.GenerationSoftware,Altium Limited,Altium Designer,21.2.2 (38)*%
G04 Layer_Color=32768*
%FSLAX26Y26*%
%MOIN*%
%TF.SameCoordinates,75BC83C2-9D79-468A-8CB9-4745F9D1B378*%
%TF.FilePolarity,Positive*%
%TF.FileFunction,Other,Top_Designator*%
%TF.Part,Single*%
G01*
G75*
G36*
X477441Y-482591D02*
X465647D01*
X465669Y-482613D01*
X465756Y-482722D01*
X465887Y-482853D01*
X466039Y-483070D01*
X466236Y-483310D01*
X466454Y-483615D01*
X466693Y-483964D01*
X466933Y-484357D01*
Y-484378D01*
X466955Y-484400D01*
X467042Y-484531D01*
X467151Y-484749D01*
X467282Y-485011D01*
X467435Y-485316D01*
X467587Y-485643D01*
X467740Y-485970D01*
X467871Y-486297D01*
X466083D01*
Y-486275D01*
X466039Y-486231D01*
X466018Y-486144D01*
X465952Y-486035D01*
X465887Y-485904D01*
X465800Y-485752D01*
X465582Y-485381D01*
X465342Y-484945D01*
X465037Y-484509D01*
X464688Y-484051D01*
X464317Y-483594D01*
X464296Y-483572D01*
X464274Y-483550D01*
X464208Y-483485D01*
X464143Y-483397D01*
X463925Y-483201D01*
X463663Y-482940D01*
X463358Y-482678D01*
X463009Y-482395D01*
X462661Y-482155D01*
X462290Y-481937D01*
Y-480738D01*
X477441D01*
Y-482591D01*
D02*
G37*
G36*
X472776Y-489436D02*
X472906Y-489480D01*
X473081Y-489545D01*
X473277Y-489611D01*
X473517Y-489698D01*
X473779Y-489807D01*
X474062Y-489938D01*
X474672Y-490243D01*
X475283Y-490635D01*
X475588Y-490875D01*
X475893Y-491115D01*
X476155Y-491376D01*
X476416Y-491682D01*
X476438Y-491703D01*
X476482Y-491747D01*
X476525Y-491856D01*
X476613Y-491965D01*
X476721Y-492139D01*
X476830Y-492314D01*
X476940Y-492553D01*
X477048Y-492793D01*
X477179Y-493077D01*
X477288Y-493382D01*
X477397Y-493709D01*
X477506Y-494058D01*
X477594Y-494428D01*
X477637Y-494821D01*
X477681Y-495235D01*
X477702Y-495671D01*
Y-495911D01*
X477681Y-496085D01*
Y-496281D01*
X477659Y-496521D01*
X477615Y-496783D01*
X477572Y-497088D01*
X477463Y-497720D01*
X477288Y-498374D01*
X477048Y-499028D01*
X476896Y-499333D01*
X476721Y-499639D01*
X476700Y-499660D01*
X476678Y-499704D01*
X476613Y-499791D01*
X476525Y-499878D01*
X476438Y-500009D01*
X476307Y-500162D01*
X476155Y-500336D01*
X475980Y-500510D01*
X475784Y-500685D01*
X475588Y-500881D01*
X475087Y-501274D01*
X474498Y-501644D01*
X473844Y-501971D01*
X473822D01*
X473757Y-502015D01*
X473648Y-502036D01*
X473517Y-502102D01*
X473342Y-502146D01*
X473125Y-502211D01*
X472885Y-502298D01*
X472623Y-502363D01*
X472340Y-502429D01*
X472013Y-502516D01*
X471337Y-502625D01*
X470574Y-502712D01*
X469789Y-502756D01*
X469767D01*
X469680D01*
X469549D01*
X469397Y-502734D01*
X469179D01*
X468961Y-502712D01*
X468677Y-502690D01*
X468394Y-502647D01*
X467762Y-502538D01*
X467064Y-502385D01*
X466366Y-502167D01*
X465691Y-501862D01*
X465669Y-501840D01*
X465603Y-501818D01*
X465516Y-501775D01*
X465407Y-501688D01*
X465255Y-501601D01*
X465080Y-501491D01*
X464688Y-501208D01*
X464252Y-500837D01*
X463816Y-500401D01*
X463380Y-499900D01*
X463009Y-499312D01*
X462988Y-499290D01*
X462966Y-499224D01*
X462922Y-499137D01*
X462857Y-499028D01*
X462791Y-498854D01*
X462726Y-498679D01*
X462639Y-498461D01*
X462551Y-498221D01*
X462464Y-497960D01*
X462377Y-497676D01*
X462246Y-497066D01*
X462137Y-496368D01*
X462094Y-495649D01*
Y-495431D01*
X462115Y-495279D01*
X462137Y-495082D01*
X462159Y-494842D01*
X462181Y-494603D01*
X462246Y-494319D01*
X462377Y-493731D01*
X462573Y-493077D01*
X462704Y-492750D01*
X462857Y-492445D01*
X463053Y-492139D01*
X463249Y-491834D01*
X463271Y-491812D01*
X463293Y-491769D01*
X463358Y-491682D01*
X463467Y-491572D01*
X463576Y-491464D01*
X463729Y-491311D01*
X463903Y-491158D01*
X464077Y-490984D01*
X464296Y-490810D01*
X464557Y-490635D01*
X464819Y-490439D01*
X465102Y-490264D01*
X465429Y-490112D01*
X465756Y-489938D01*
X466105Y-489807D01*
X466497Y-489676D01*
X466955Y-491638D01*
X466933D01*
X466890Y-491660D01*
X466803Y-491703D01*
X466693Y-491747D01*
X466563Y-491791D01*
X466388Y-491856D01*
X466039Y-492030D01*
X465647Y-492248D01*
X465255Y-492510D01*
X464884Y-492837D01*
X464557Y-493186D01*
X464514Y-493229D01*
X464426Y-493360D01*
X464317Y-493578D01*
X464165Y-493861D01*
X464034Y-494232D01*
X463903Y-494646D01*
X463816Y-495148D01*
X463794Y-495693D01*
Y-495867D01*
X463816Y-495976D01*
Y-496129D01*
X463838Y-496303D01*
X463903Y-496717D01*
X463990Y-497175D01*
X464143Y-497655D01*
X464361Y-498156D01*
X464644Y-498614D01*
Y-498636D01*
X464688Y-498658D01*
X464797Y-498810D01*
X464971Y-499006D01*
X465233Y-499246D01*
X465560Y-499529D01*
X465930Y-499791D01*
X466388Y-500031D01*
X466890Y-500249D01*
X466911D01*
X466955Y-500271D01*
X467021Y-500293D01*
X467130Y-500314D01*
X467260Y-500358D01*
X467413Y-500401D01*
X467784Y-500467D01*
X468219Y-500554D01*
X468699Y-500641D01*
X469222Y-500685D01*
X469789Y-500707D01*
X469811D01*
X469876D01*
X469985D01*
X470116D01*
X470269Y-500685D01*
X470465D01*
X470683Y-500663D01*
X470923Y-500641D01*
X471446Y-500576D01*
X472013Y-500467D01*
X472579Y-500336D01*
X473146Y-500162D01*
X473168D01*
X473212Y-500140D01*
X473277Y-500096D01*
X473386Y-500053D01*
X473648Y-499922D01*
X473953Y-499726D01*
X474302Y-499486D01*
X474672Y-499181D01*
X474999Y-498832D01*
X475305Y-498418D01*
Y-498396D01*
X475326Y-498352D01*
X475370Y-498287D01*
X475413Y-498200D01*
X475457Y-498091D01*
X475522Y-497960D01*
X475653Y-497655D01*
X475784Y-497262D01*
X475893Y-496826D01*
X475980Y-496347D01*
X476002Y-495845D01*
Y-495693D01*
X475980Y-495562D01*
Y-495409D01*
X475959Y-495257D01*
X475871Y-494864D01*
X475762Y-494406D01*
X475588Y-493949D01*
X475348Y-493469D01*
X475217Y-493229D01*
X475043Y-493011D01*
X475021Y-492990D01*
X474999Y-492968D01*
X474934Y-492902D01*
X474868Y-492815D01*
X474760Y-492728D01*
X474629Y-492619D01*
X474498Y-492488D01*
X474324Y-492379D01*
X474127Y-492248D01*
X473909Y-492096D01*
X473691Y-491965D01*
X473430Y-491834D01*
X473146Y-491725D01*
X472841Y-491616D01*
X472514Y-491507D01*
X472165Y-491420D01*
X472667Y-489414D01*
X472688D01*
X472776Y-489436D01*
D02*
G37*
G36*
X1008937Y-507661D02*
X1008915D01*
X1008828D01*
X1008697D01*
X1008523Y-507639D01*
X1008327Y-507617D01*
X1008109Y-507573D01*
X1007891Y-507530D01*
X1007651Y-507442D01*
X1007629D01*
X1007607Y-507421D01*
X1007476Y-507377D01*
X1007280Y-507290D01*
X1007019Y-507159D01*
X1006713Y-506985D01*
X1006365Y-506767D01*
X1006016Y-506527D01*
X1005645Y-506222D01*
X1005623D01*
X1005602Y-506178D01*
X1005471Y-506069D01*
X1005275Y-505873D01*
X1004991Y-505589D01*
X1004664Y-505262D01*
X1004272Y-504848D01*
X1003836Y-504347D01*
X1003378Y-503802D01*
X1003356Y-503780D01*
X1003291Y-503693D01*
X1003182Y-503562D01*
X1003051Y-503409D01*
X1002877Y-503213D01*
X1002680Y-502974D01*
X1002462Y-502734D01*
X1002223Y-502450D01*
X1001699Y-501905D01*
X1001176Y-501360D01*
X1000915Y-501099D01*
X1000653Y-500859D01*
X1000413Y-500641D01*
X1000173Y-500466D01*
X1000152D01*
X1000130Y-500423D01*
X1000064Y-500379D01*
X999977Y-500336D01*
X999737Y-500183D01*
X999454Y-500009D01*
X999105Y-499856D01*
X998735Y-499704D01*
X998320Y-499616D01*
X997928Y-499573D01*
X997906D01*
X997884D01*
X997754Y-499594D01*
X997536Y-499616D01*
X997296Y-499682D01*
X996991Y-499769D01*
X996685Y-499921D01*
X996380Y-500118D01*
X996075Y-500379D01*
X996031Y-500423D01*
X995944Y-500532D01*
X995835Y-500685D01*
X995683Y-500924D01*
X995552Y-501229D01*
X995421Y-501578D01*
X995334Y-501993D01*
X995312Y-502450D01*
Y-502581D01*
X995334Y-502668D01*
X995356Y-502930D01*
X995421Y-503235D01*
X995508Y-503562D01*
X995661Y-503933D01*
X995857Y-504281D01*
X996119Y-504608D01*
X996162Y-504652D01*
X996271Y-504739D01*
X996446Y-504870D01*
X996707Y-505001D01*
X997012Y-505154D01*
X997405Y-505284D01*
X997841Y-505372D01*
X998342Y-505415D01*
X998146Y-507312D01*
X998124D01*
X998059Y-507290D01*
X997950D01*
X997797Y-507268D01*
X997623Y-507224D01*
X997427Y-507181D01*
X997187Y-507115D01*
X996947Y-507050D01*
X996424Y-506876D01*
X995901Y-506614D01*
X995639Y-506462D01*
X995377Y-506265D01*
X995138Y-506069D01*
X994920Y-505851D01*
X994898Y-505829D01*
X994876Y-505786D01*
X994811Y-505720D01*
X994745Y-505611D01*
X994658Y-505481D01*
X994571Y-505328D01*
X994462Y-505154D01*
X994353Y-504935D01*
X994244Y-504696D01*
X994135Y-504434D01*
X994048Y-504151D01*
X993960Y-503846D01*
X993895Y-503519D01*
X993830Y-503170D01*
X993808Y-502799D01*
X993786Y-502407D01*
Y-502189D01*
X993808Y-502036D01*
X993830Y-501862D01*
X993851Y-501644D01*
X993895Y-501404D01*
X993939Y-501164D01*
X994091Y-500597D01*
X994309Y-500031D01*
X994440Y-499747D01*
X994593Y-499464D01*
X994789Y-499202D01*
X995007Y-498962D01*
X995029Y-498940D01*
X995050Y-498897D01*
X995138Y-498853D01*
X995225Y-498766D01*
X995334Y-498657D01*
X995486Y-498548D01*
X995639Y-498439D01*
X995835Y-498308D01*
X996249Y-498090D01*
X996773Y-497872D01*
X997034Y-497785D01*
X997339Y-497741D01*
X997645Y-497698D01*
X997972Y-497676D01*
X998015D01*
X998124D01*
X998299Y-497698D01*
X998538Y-497720D01*
X998800Y-497763D01*
X999105Y-497851D01*
X999432Y-497938D01*
X999759Y-498068D01*
X999803Y-498090D01*
X999912Y-498134D01*
X1000086Y-498221D01*
X1000326Y-498352D01*
X1000588Y-498526D01*
X1000915Y-498744D01*
X1001242Y-499006D01*
X1001612Y-499311D01*
X1001656Y-499355D01*
X1001787Y-499464D01*
X1001896Y-499573D01*
X1002005Y-499682D01*
X1002135Y-499812D01*
X1002310Y-499987D01*
X1002484Y-500161D01*
X1002680Y-500379D01*
X1002898Y-500597D01*
X1003138Y-500859D01*
X1003378Y-501142D01*
X1003661Y-501447D01*
X1003945Y-501796D01*
X1004250Y-502145D01*
X1004272Y-502167D01*
X1004315Y-502211D01*
X1004381Y-502298D01*
X1004468Y-502407D01*
X1004599Y-502538D01*
X1004730Y-502690D01*
X1005013Y-503039D01*
X1005340Y-503409D01*
X1005667Y-503758D01*
X1005950Y-504063D01*
X1006059Y-504194D01*
X1006168Y-504303D01*
X1006190Y-504325D01*
X1006256Y-504390D01*
X1006343Y-504478D01*
X1006474Y-504587D01*
X1006626Y-504696D01*
X1006779Y-504827D01*
X1007149Y-505088D01*
Y-497654D01*
X1008937D01*
Y-507661D01*
D02*
G37*
G36*
X1004272Y-509121D02*
X1004403Y-509165D01*
X1004577Y-509230D01*
X1004773Y-509296D01*
X1005013Y-509383D01*
X1005275Y-509492D01*
X1005558Y-509623D01*
X1006168Y-509928D01*
X1006779Y-510320D01*
X1007084Y-510560D01*
X1007389Y-510800D01*
X1007651Y-511061D01*
X1007912Y-511366D01*
X1007934Y-511388D01*
X1007978Y-511432D01*
X1008021Y-511541D01*
X1008109Y-511650D01*
X1008218Y-511824D01*
X1008327Y-511999D01*
X1008436Y-512239D01*
X1008545Y-512478D01*
X1008675Y-512762D01*
X1008784Y-513067D01*
X1008893Y-513394D01*
X1009002Y-513743D01*
X1009090Y-514113D01*
X1009133Y-514506D01*
X1009177Y-514920D01*
X1009199Y-515356D01*
Y-515596D01*
X1009177Y-515770D01*
Y-515966D01*
X1009155Y-516206D01*
X1009111Y-516468D01*
X1009068Y-516773D01*
X1008959Y-517405D01*
X1008784Y-518059D01*
X1008545Y-518713D01*
X1008392Y-519018D01*
X1008218Y-519323D01*
X1008196Y-519345D01*
X1008174Y-519389D01*
X1008109Y-519476D01*
X1008021Y-519563D01*
X1007934Y-519694D01*
X1007803Y-519847D01*
X1007651Y-520021D01*
X1007476Y-520196D01*
X1007280Y-520370D01*
X1007084Y-520566D01*
X1006583Y-520958D01*
X1005994Y-521329D01*
X1005340Y-521656D01*
X1005318D01*
X1005253Y-521700D01*
X1005144Y-521721D01*
X1005013Y-521787D01*
X1004839Y-521831D01*
X1004621Y-521896D01*
X1004381Y-521983D01*
X1004119Y-522048D01*
X1003836Y-522114D01*
X1003509Y-522201D01*
X1002833Y-522310D01*
X1002070Y-522397D01*
X1001285Y-522441D01*
X1001263D01*
X1001176D01*
X1001045D01*
X1000893Y-522419D01*
X1000675D01*
X1000457Y-522397D01*
X1000173Y-522375D01*
X999890Y-522332D01*
X999258Y-522223D01*
X998560Y-522070D01*
X997863Y-521852D01*
X997187Y-521547D01*
X997165Y-521525D01*
X997100Y-521504D01*
X997012Y-521460D01*
X996903Y-521373D01*
X996751Y-521285D01*
X996576Y-521177D01*
X996184Y-520893D01*
X995748Y-520523D01*
X995312Y-520087D01*
X994876Y-519585D01*
X994505Y-518996D01*
X994484Y-518975D01*
X994462Y-518909D01*
X994418Y-518822D01*
X994353Y-518713D01*
X994287Y-518539D01*
X994222Y-518364D01*
X994135Y-518146D01*
X994048Y-517907D01*
X993960Y-517645D01*
X993873Y-517361D01*
X993742Y-516751D01*
X993633Y-516053D01*
X993590Y-515334D01*
Y-515116D01*
X993612Y-514963D01*
X993633Y-514767D01*
X993655Y-514528D01*
X993677Y-514288D01*
X993742Y-514004D01*
X993873Y-513416D01*
X994069Y-512762D01*
X994200Y-512435D01*
X994353Y-512130D01*
X994549Y-511824D01*
X994745Y-511519D01*
X994767Y-511497D01*
X994789Y-511454D01*
X994854Y-511366D01*
X994963Y-511257D01*
X995072Y-511149D01*
X995225Y-510996D01*
X995399Y-510843D01*
X995574Y-510669D01*
X995792Y-510495D01*
X996053Y-510320D01*
X996315Y-510124D01*
X996598Y-509950D01*
X996925Y-509797D01*
X997252Y-509623D01*
X997601Y-509492D01*
X997993Y-509361D01*
X998451Y-511323D01*
X998429D01*
X998386Y-511345D01*
X998299Y-511388D01*
X998190Y-511432D01*
X998059Y-511476D01*
X997884Y-511541D01*
X997536Y-511715D01*
X997143Y-511933D01*
X996751Y-512195D01*
X996380Y-512522D01*
X996053Y-512871D01*
X996010Y-512914D01*
X995922Y-513045D01*
X995813Y-513263D01*
X995661Y-513547D01*
X995530Y-513917D01*
X995399Y-514331D01*
X995312Y-514833D01*
X995290Y-515378D01*
Y-515552D01*
X995312Y-515661D01*
Y-515814D01*
X995334Y-515988D01*
X995399Y-516402D01*
X995486Y-516860D01*
X995639Y-517340D01*
X995857Y-517841D01*
X996140Y-518299D01*
Y-518321D01*
X996184Y-518342D01*
X996293Y-518495D01*
X996467Y-518691D01*
X996729Y-518931D01*
X997056Y-519215D01*
X997427Y-519476D01*
X997884Y-519716D01*
X998386Y-519934D01*
X998408D01*
X998451Y-519956D01*
X998517Y-519977D01*
X998626Y-519999D01*
X998756Y-520043D01*
X998909Y-520087D01*
X999280Y-520152D01*
X999716Y-520239D01*
X1000195Y-520326D01*
X1000718Y-520370D01*
X1001285Y-520392D01*
X1001307D01*
X1001372D01*
X1001481D01*
X1001612D01*
X1001765Y-520370D01*
X1001961D01*
X1002179Y-520348D01*
X1002419Y-520326D01*
X1002942Y-520261D01*
X1003509Y-520152D01*
X1004076Y-520021D01*
X1004642Y-519847D01*
X1004664D01*
X1004708Y-519825D01*
X1004773Y-519781D01*
X1004882Y-519738D01*
X1005144Y-519607D01*
X1005449Y-519411D01*
X1005798Y-519171D01*
X1006168Y-518866D01*
X1006495Y-518517D01*
X1006801Y-518103D01*
Y-518081D01*
X1006822Y-518037D01*
X1006866Y-517972D01*
X1006910Y-517885D01*
X1006953Y-517776D01*
X1007019Y-517645D01*
X1007149Y-517340D01*
X1007280Y-516947D01*
X1007389Y-516511D01*
X1007476Y-516032D01*
X1007498Y-515530D01*
Y-515378D01*
X1007476Y-515247D01*
Y-515094D01*
X1007455Y-514942D01*
X1007367Y-514549D01*
X1007258Y-514091D01*
X1007084Y-513634D01*
X1006844Y-513154D01*
X1006713Y-512914D01*
X1006539Y-512696D01*
X1006517Y-512674D01*
X1006495Y-512653D01*
X1006430Y-512587D01*
X1006365Y-512500D01*
X1006256Y-512413D01*
X1006125Y-512304D01*
X1005994Y-512173D01*
X1005820Y-512064D01*
X1005623Y-511933D01*
X1005405Y-511781D01*
X1005187Y-511650D01*
X1004926Y-511519D01*
X1004642Y-511410D01*
X1004337Y-511301D01*
X1004010Y-511192D01*
X1003661Y-511105D01*
X1004163Y-509099D01*
X1004185D01*
X1004272Y-509121D01*
D02*
G37*
%TF.MD5,32e142a4b1ebefe65d342f39fecbc8b3*%
M02*
