%TF.GenerationSoftware,Altium Limited,Altium Designer,21.2.2 (38)*%
G04 Layer_Color=32896*
%FSLAX26Y26*%
%MOIN*%
%TF.SameCoordinates,75BC83C2-9D79-468A-8CB9-4745F9D1B378*%
%TF.FilePolarity,Positive*%
%TF.FileFunction,Legend,Bot*%
%TF.Part,Single*%
G01*
G75*
G36*
X1363656Y801494D02*
X1363886Y801417D01*
X1365072Y801149D01*
X1365379Y801073D01*
X1366221Y800766D01*
X1366642Y800575D01*
X1366719D01*
X1366757Y800537D01*
X1367523Y800077D01*
X1367944Y799809D01*
X1368633Y799273D01*
X1369513Y798393D01*
X1369590Y798240D01*
X1369743Y798086D01*
X1369820Y797933D01*
X1369973Y797780D01*
X1370509Y796632D01*
X1370585Y796325D01*
X1370662Y795789D01*
X1370585Y794871D01*
X1369973Y793722D01*
X1369628Y793301D01*
X1368786Y792459D01*
X1368633Y792382D01*
X1368403Y792152D01*
X1368250Y792076D01*
X1367484Y791540D01*
X1367331Y791463D01*
X1366719Y791080D01*
X1364651Y790085D01*
X1363579Y789625D01*
X1362814Y789319D01*
X1362316Y789128D01*
X1361703Y788898D01*
X1361321Y788745D01*
X1360095Y788286D01*
X1359713Y788133D01*
X1359062Y787865D01*
X1358526Y787635D01*
X1357837Y787329D01*
X1354851Y785797D01*
X1354315Y785491D01*
X1353702Y785108D01*
X1353549Y785032D01*
X1353013Y784649D01*
X1352860Y784572D01*
X1352132Y784074D01*
X1351864Y783883D01*
X1350371Y782773D01*
X1350103Y782581D01*
X1349950Y782428D01*
X1349797Y782352D01*
X1349491Y782045D01*
X1349338Y781969D01*
X1349108Y781739D01*
X1348955Y781662D01*
X1348572Y781279D01*
X1348419Y781203D01*
X1348036Y780820D01*
X1347883Y780744D01*
X1347270Y780131D01*
X1347117Y780054D01*
X1346275Y779212D01*
X1346122Y779136D01*
X1341413Y774427D01*
X1341336Y774274D01*
X1340034Y772972D01*
X1339958Y772819D01*
X1338197Y771058D01*
X1338120Y770904D01*
X1333947Y766731D01*
X1333794Y766655D01*
X1332110Y764970D01*
X1331956Y764894D01*
X1330961Y763898D01*
X1330808Y763822D01*
X1330119Y763133D01*
X1329966Y763056D01*
X1329353Y762443D01*
X1329200Y762367D01*
X1328587Y761755D01*
X1328434Y761678D01*
X1328051Y761295D01*
X1327898Y761219D01*
X1327439Y760759D01*
X1327286Y760683D01*
X1326979Y760376D01*
X1326826Y760300D01*
X1326443Y759917D01*
X1326290Y759840D01*
X1325984Y759534D01*
X1325831Y759457D01*
X1325601Y759228D01*
X1325448Y759151D01*
X1325218Y758921D01*
X1325065Y758845D01*
X1324835Y758615D01*
X1324682Y758539D01*
X1324529Y758385D01*
X1324376Y758309D01*
X1324146Y758079D01*
X1323993Y758003D01*
X1323840Y757850D01*
X1323687Y757773D01*
X1323534Y757620D01*
X1323381Y757543D01*
X1323228Y757390D01*
X1323074Y757313D01*
X1322117Y756586D01*
X1321849Y756395D01*
X1320892Y755667D01*
X1320624Y755476D01*
X1319667Y754749D01*
X1319399Y754557D01*
X1319246Y754404D01*
X1319093Y754327D01*
X1318940Y754174D01*
X1318787Y754098D01*
X1318557Y753868D01*
X1318404Y753791D01*
X1318251Y753638D01*
X1318097Y753562D01*
X1317868Y753332D01*
X1317715Y753255D01*
X1317485Y753026D01*
X1317332Y752949D01*
X1317102Y752719D01*
X1316949Y752643D01*
X1316643Y752337D01*
X1316489Y752260D01*
X1316260Y752030D01*
X1316107Y751954D01*
X1315724Y751571D01*
X1315571Y751494D01*
X1315188Y751111D01*
X1315035Y751035D01*
X1314499Y750499D01*
X1314346Y750422D01*
X1313427Y749504D01*
X1313274Y749427D01*
X1312393Y748546D01*
X1312316Y748393D01*
X1311398Y747474D01*
X1311321Y747321D01*
X1310938Y746938D01*
X1310862Y746785D01*
X1310479Y746403D01*
X1310402Y746249D01*
X1310173Y746019D01*
X1310096Y745866D01*
X1309866Y745637D01*
X1309790Y745484D01*
X1309637Y745331D01*
X1309560Y745177D01*
X1309330Y744948D01*
X1309254Y744795D01*
X1309101Y744641D01*
X1309024Y744488D01*
X1307493Y742344D01*
X1307416Y742191D01*
X1307033Y741655D01*
X1306957Y741502D01*
X1306574Y740966D01*
X1306497Y740813D01*
X1306114Y740277D01*
X1306038Y740124D01*
X1305655Y739588D01*
X1305578Y739435D01*
X1304813Y738363D01*
X1304736Y738210D01*
X1302860Y735644D01*
X1302669Y735377D01*
X1302324Y734955D01*
X1301559Y734037D01*
X1301444Y733922D01*
X1301367Y733769D01*
X1300755Y733156D01*
X1300678Y733003D01*
X1298879Y731203D01*
X1298725Y731127D01*
X1297883Y730285D01*
X1297730Y730208D01*
X1297194Y729672D01*
X1297041Y729596D01*
X1296582Y729136D01*
X1296428Y729060D01*
X1295969Y728600D01*
X1295816Y728524D01*
X1295510Y728217D01*
X1295356Y728141D01*
X1294974Y727758D01*
X1294820Y727681D01*
X1294438Y727298D01*
X1294284Y727222D01*
X1293978Y726916D01*
X1293825Y726839D01*
X1293519Y726533D01*
X1293366Y726456D01*
X1293060Y726150D01*
X1292906Y726073D01*
X1292600Y725767D01*
X1292447Y725691D01*
X1292140Y725384D01*
X1291987Y725308D01*
X1291681Y725001D01*
X1291528Y724925D01*
X1291222Y724619D01*
X1291069Y724542D01*
X1290762Y724236D01*
X1290609Y724159D01*
X1290303Y723853D01*
X1290150Y723776D01*
X1289843Y723470D01*
X1289690Y723393D01*
X1289384Y723087D01*
X1289231Y723011D01*
X1288925Y722704D01*
X1288772Y722628D01*
X1288465Y722322D01*
X1288312Y722245D01*
X1288082Y722015D01*
X1287929Y721939D01*
X1287623Y721633D01*
X1287470Y721556D01*
X1287164Y721250D01*
X1287011Y721173D01*
X1286704Y720867D01*
X1286551Y720790D01*
X1286245Y720484D01*
X1286092Y720407D01*
X1285862Y720178D01*
X1285709Y720101D01*
X1285402Y719795D01*
X1285249Y719718D01*
X1284943Y719412D01*
X1284790Y719335D01*
X1284560Y719106D01*
X1284407Y719029D01*
X1284178Y718799D01*
X1284024Y718723D01*
X1283718Y718416D01*
X1283565Y718340D01*
X1283335Y718110D01*
X1283182Y718034D01*
X1282876Y717727D01*
X1282723Y717651D01*
X1282493Y717421D01*
X1282340Y717345D01*
X1282110Y717115D01*
X1281957Y717038D01*
X1281727Y716808D01*
X1281574Y716732D01*
X1281344Y716502D01*
X1281191Y716426D01*
X1280961Y716196D01*
X1280808Y716120D01*
X1280579Y715890D01*
X1280425Y715813D01*
X1280272Y715660D01*
X1280119Y715584D01*
X1279889Y715354D01*
X1279736Y715277D01*
X1279507Y715047D01*
X1279353Y714971D01*
X1279200Y714818D01*
X1279047Y714741D01*
X1278894Y714588D01*
X1278741Y714511D01*
X1278511Y714282D01*
X1278358Y714205D01*
X1278205Y714052D01*
X1278052Y713975D01*
X1277899Y713822D01*
X1277746Y713746D01*
X1277593Y713593D01*
X1277439Y713516D01*
X1277286Y713363D01*
X1277133Y713286D01*
X1274453Y711372D01*
X1274300Y711296D01*
X1273841Y710989D01*
X1273688Y710913D01*
X1273228Y710607D01*
X1273075Y710530D01*
X1272616Y710224D01*
X1272462Y710147D01*
X1271390Y709534D01*
X1270701Y709152D01*
X1265724Y706702D01*
X1264652Y706242D01*
X1263121Y705629D01*
X1262393Y705361D01*
X1260594Y704787D01*
X1259829Y704557D01*
X1259293Y704404D01*
X1257761Y704021D01*
X1257263Y703907D01*
X1256804Y703830D01*
X1256421Y703754D01*
X1255962Y703677D01*
X1255349Y703600D01*
X1254583Y703524D01*
X1252861Y703486D01*
X1252631Y703562D01*
X1252057Y703677D01*
X1251406Y704021D01*
X1251291Y704136D01*
X1251138Y704519D01*
X1251061Y704826D01*
X1250985Y705821D01*
X1251100Y707390D01*
X1251329Y708845D01*
X1251483Y709611D01*
X1251559Y709917D01*
X1251636Y710300D01*
X1251750Y710721D01*
X1251827Y711028D01*
X1252057Y711793D01*
X1252325Y712521D01*
X1252554Y713133D01*
X1252708Y713516D01*
X1253282Y714626D01*
X1253665Y715162D01*
X1253741Y715316D01*
X1255005Y716579D01*
X1255158Y716655D01*
X1255388Y716885D01*
X1255541Y716962D01*
X1255694Y717115D01*
X1255847Y717192D01*
X1256383Y717574D01*
X1256536Y717651D01*
X1256995Y717957D01*
X1257149Y718034D01*
X1257761Y718416D01*
X1257914Y718493D01*
X1258603Y718876D01*
X1261666Y720484D01*
X1262508Y720943D01*
X1264116Y721862D01*
X1264729Y722245D01*
X1264882Y722322D01*
X1265341Y722628D01*
X1265495Y722704D01*
X1265954Y723011D01*
X1266107Y723087D01*
X1266643Y723470D01*
X1266796Y723547D01*
X1267332Y723929D01*
X1267485Y724006D01*
X1267639Y724159D01*
X1267792Y724236D01*
X1270357Y726112D01*
X1270625Y726303D01*
X1272003Y727375D01*
X1272424Y727720D01*
X1272692Y727911D01*
X1272845Y728064D01*
X1272998Y728141D01*
X1273228Y728370D01*
X1273381Y728447D01*
X1273688Y728753D01*
X1273841Y728830D01*
X1274070Y729060D01*
X1274224Y729136D01*
X1274530Y729442D01*
X1274683Y729519D01*
X1274912Y729749D01*
X1275066Y729825D01*
X1275372Y730131D01*
X1275525Y730208D01*
X1275831Y730514D01*
X1275984Y730591D01*
X1276367Y730974D01*
X1276521Y731051D01*
X1276827Y731357D01*
X1276980Y731433D01*
X1277363Y731816D01*
X1277516Y731893D01*
X1277822Y732199D01*
X1277975Y732275D01*
X1278282Y732582D01*
X1278435Y732658D01*
X1278818Y733041D01*
X1278971Y733118D01*
X1279277Y733424D01*
X1279430Y733501D01*
X1279736Y733807D01*
X1279889Y733883D01*
X1280272Y734266D01*
X1280425Y734343D01*
X1280732Y734649D01*
X1280885Y734726D01*
X1281268Y735109D01*
X1281421Y735185D01*
X1281727Y735491D01*
X1281880Y735568D01*
X1282263Y735951D01*
X1282416Y736027D01*
X1282723Y736334D01*
X1282876Y736410D01*
X1283258Y736793D01*
X1283412Y736870D01*
X1283794Y737252D01*
X1283948Y737329D01*
X1284254Y737635D01*
X1284407Y737712D01*
X1284790Y738095D01*
X1284943Y738171D01*
X1285326Y738554D01*
X1285479Y738631D01*
X1285785Y738937D01*
X1285939Y739014D01*
X1286321Y739396D01*
X1286475Y739473D01*
X1286781Y739779D01*
X1286934Y739856D01*
X1287317Y740239D01*
X1287470Y740315D01*
X1287853Y740698D01*
X1288006Y740775D01*
X1288389Y741157D01*
X1288542Y741234D01*
X1290188Y742880D01*
X1290265Y743033D01*
X1290801Y743569D01*
X1290877Y743722D01*
X1291260Y744105D01*
X1291337Y744259D01*
X1291719Y744641D01*
X1291796Y744795D01*
X1292026Y745024D01*
X1292102Y745177D01*
X1292332Y745407D01*
X1292409Y745560D01*
X1292638Y745790D01*
X1292715Y745943D01*
X1292868Y746096D01*
X1292945Y746249D01*
X1293098Y746403D01*
X1293174Y746556D01*
X1293404Y746785D01*
X1293481Y746938D01*
X1293634Y747091D01*
X1293710Y747245D01*
X1293863Y747398D01*
X1293940Y747551D01*
X1295089Y749159D01*
X1295165Y749312D01*
X1295318Y749465D01*
X1295395Y749618D01*
X1295778Y750154D01*
X1295854Y750308D01*
X1296773Y751686D01*
X1297156Y752222D01*
X1297232Y752375D01*
X1298725Y754404D01*
X1298917Y754672D01*
X1299261Y755093D01*
X1299453Y755361D01*
X1299606Y755514D01*
X1299682Y755667D01*
X1299912Y755897D01*
X1299989Y756050D01*
X1300295Y756356D01*
X1300372Y756510D01*
X1300755Y756892D01*
X1300831Y757045D01*
X1301444Y757658D01*
X1301520Y757811D01*
X1303779Y760070D01*
X1303932Y760147D01*
X1304621Y760836D01*
X1304774Y760912D01*
X1305157Y761295D01*
X1305310Y761372D01*
X1305770Y761831D01*
X1305923Y761908D01*
X1306153Y762137D01*
X1306306Y762214D01*
X1306612Y762520D01*
X1306765Y762597D01*
X1306995Y762827D01*
X1307148Y762903D01*
X1307378Y763133D01*
X1307531Y763209D01*
X1307761Y763439D01*
X1307914Y763516D01*
X1308143Y763745D01*
X1308297Y763822D01*
X1308450Y763975D01*
X1308603Y764052D01*
X1308756Y764205D01*
X1308909Y764281D01*
X1309062Y764434D01*
X1309215Y764511D01*
X1309369Y764664D01*
X1309522Y764741D01*
X1309675Y764894D01*
X1309828Y764970D01*
X1309981Y765124D01*
X1310134Y765200D01*
X1310287Y765353D01*
X1310440Y765430D01*
X1310594Y765583D01*
X1310747Y765660D01*
X1310900Y765813D01*
X1311053Y765889D01*
X1313082Y767382D01*
X1313542Y767689D01*
X1313656Y767803D01*
X1313810Y767880D01*
X1314039Y768110D01*
X1314192Y768186D01*
X1314346Y768339D01*
X1314499Y768416D01*
X1314652Y768569D01*
X1314805Y768646D01*
X1315035Y768875D01*
X1315188Y768952D01*
X1315418Y769182D01*
X1315571Y769258D01*
X1315801Y769488D01*
X1315954Y769565D01*
X1316183Y769794D01*
X1316336Y769871D01*
X1316643Y770177D01*
X1316796Y770254D01*
X1317025Y770483D01*
X1317179Y770560D01*
X1317485Y770866D01*
X1317638Y770943D01*
X1317944Y771249D01*
X1318097Y771326D01*
X1318480Y771708D01*
X1318633Y771785D01*
X1319016Y772168D01*
X1319169Y772245D01*
X1319552Y772627D01*
X1319705Y772704D01*
X1320165Y773163D01*
X1320318Y773240D01*
X1320777Y773699D01*
X1320930Y773776D01*
X1321390Y774235D01*
X1321543Y774312D01*
X1322156Y774924D01*
X1322309Y775001D01*
X1323074Y775766D01*
X1323228Y775843D01*
X1324376Y776992D01*
X1324529Y777068D01*
X1327171Y779710D01*
X1327247Y779863D01*
X1335172Y787788D01*
X1335325Y787865D01*
X1336551Y789090D01*
X1336704Y789166D01*
X1337469Y789932D01*
X1337622Y790009D01*
X1338235Y790621D01*
X1338388Y790697D01*
X1338848Y791157D01*
X1339001Y791233D01*
X1339384Y791616D01*
X1339537Y791693D01*
X1339920Y792076D01*
X1340073Y792152D01*
X1340379Y792459D01*
X1340532Y792535D01*
X1340762Y792765D01*
X1340915Y792842D01*
X1341145Y793071D01*
X1341298Y793148D01*
X1341451Y793301D01*
X1341604Y793378D01*
X1341834Y793607D01*
X1341987Y793684D01*
X1342944Y794411D01*
X1344322Y795330D01*
X1345165Y795866D01*
X1345739Y796210D01*
X1345892Y796287D01*
X1346428Y796593D01*
X1347117Y796976D01*
X1351634Y799197D01*
X1352707Y799656D01*
X1353089Y799809D01*
X1353587Y800001D01*
X1354200Y800230D01*
X1354506Y800307D01*
X1355846Y800728D01*
X1356458Y800881D01*
X1356995Y801034D01*
X1357301Y801111D01*
X1357951Y801226D01*
X1358334Y801302D01*
X1358794Y801379D01*
X1359828Y801494D01*
X1360134Y801570D01*
X1363656Y801494D01*
D02*
G37*
G36*
X1183506Y709345D02*
X1183912Y709277D01*
X1184455Y709141D01*
X1185404Y708803D01*
X1186082Y708531D01*
X1187268Y707955D01*
X1187878Y707616D01*
X1188624Y707141D01*
X1188760Y707074D01*
X1189234Y706735D01*
X1189370Y706667D01*
X1189505Y706532D01*
X1189641Y706464D01*
X1189777Y706328D01*
X1189912Y706260D01*
X1190048Y706125D01*
X1190183Y706057D01*
X1190387Y705854D01*
X1190522Y705786D01*
X1190658Y705650D01*
X1190793Y705582D01*
X1191200Y705176D01*
X1191336Y705108D01*
X1192149Y704294D01*
X1192285Y704226D01*
X1192590Y703921D01*
X1192658Y703786D01*
X1193404Y703040D01*
X1193472Y702904D01*
X1193743Y702633D01*
X1193810Y702498D01*
X1194082Y702226D01*
X1194149Y702091D01*
X1194285Y701955D01*
X1194353Y701820D01*
X1194556Y701616D01*
X1194624Y701481D01*
X1194759Y701345D01*
X1194827Y701210D01*
X1195505Y700260D01*
X1195776Y699786D01*
X1196115Y699244D01*
X1197200Y697006D01*
X1197743Y695650D01*
X1197912Y695210D01*
X1198353Y693820D01*
X1198624Y692871D01*
X1198759Y692329D01*
X1198963Y691176D01*
X1199031Y690905D01*
X1199098Y689617D01*
X1199031Y687380D01*
X1198963Y687176D01*
X1198861Y686532D01*
X1198726Y685990D01*
X1198624Y685617D01*
X1198488Y685278D01*
X1198420Y685142D01*
X1198319Y685041D01*
X1198217Y685142D01*
X1198115Y685922D01*
X1198048Y686261D01*
X1197946Y686634D01*
X1197641Y687481D01*
X1197505Y687820D01*
X1197166Y688566D01*
X1197031Y688905D01*
X1196217Y690396D01*
X1195539Y691549D01*
X1195200Y692091D01*
X1194726Y692837D01*
X1194454Y693244D01*
X1193946Y693956D01*
X1193878Y694091D01*
X1192895Y695413D01*
X1192726Y695650D01*
X1192421Y696023D01*
X1192251Y696261D01*
X1192116Y696396D01*
X1192048Y696532D01*
X1191844Y696735D01*
X1191776Y696871D01*
X1191573Y697074D01*
X1191505Y697210D01*
X1191234Y697481D01*
X1191167Y697617D01*
X1190827Y697955D01*
X1190760Y698091D01*
X1190353Y698498D01*
X1190285Y698633D01*
X1189675Y699244D01*
X1189607Y699379D01*
X1188285Y700701D01*
X1188150Y700769D01*
X1187607Y701311D01*
X1187472Y701379D01*
X1187200Y701650D01*
X1187065Y701718D01*
X1186862Y701922D01*
X1186726Y701989D01*
X1186590Y702125D01*
X1186455Y702193D01*
X1186319Y702328D01*
X1186184Y702396D01*
X1185709Y702735D01*
X1184150Y703481D01*
X1183472Y703548D01*
X1183268Y703481D01*
X1182624Y703243D01*
X1181641Y702735D01*
X1181167Y702396D01*
X1181031Y702328D01*
X1180896Y702193D01*
X1180760Y702125D01*
X1180624Y701989D01*
X1180489Y701922D01*
X1180218Y701650D01*
X1180082Y701582D01*
X1179540Y701040D01*
X1179404Y700972D01*
X1178150Y699718D01*
X1178082Y699582D01*
X1177404Y698904D01*
X1177336Y698769D01*
X1176862Y698294D01*
X1176794Y698159D01*
X1176387Y697752D01*
X1176320Y697617D01*
X1176048Y697345D01*
X1175980Y697210D01*
X1175642Y696871D01*
X1175574Y696735D01*
X1175303Y696464D01*
X1175235Y696328D01*
X1175031Y696125D01*
X1174964Y695990D01*
X1174693Y695718D01*
X1174625Y695583D01*
X1174421Y695379D01*
X1174353Y695244D01*
X1174150Y695040D01*
X1174082Y694905D01*
X1173879Y694701D01*
X1173811Y694566D01*
X1173608Y694362D01*
X1173540Y694227D01*
X1173404Y694091D01*
X1173337Y693956D01*
X1173133Y693752D01*
X1173065Y693616D01*
X1172930Y693481D01*
X1172862Y693345D01*
X1172726Y693210D01*
X1172659Y693074D01*
X1172523Y692939D01*
X1172455Y692803D01*
X1172252Y692600D01*
X1172184Y692464D01*
X1172048Y692329D01*
X1171981Y692193D01*
X1171845Y692057D01*
X1171777Y691922D01*
X1171642Y691786D01*
X1171574Y691651D01*
X1171438Y691515D01*
X1171370Y691380D01*
X1171235Y691244D01*
X1171167Y691108D01*
X1171032Y690973D01*
X1170964Y690837D01*
X1170828Y690702D01*
X1170760Y690566D01*
X1170116Y689718D01*
X1169845Y689312D01*
X1169743Y689210D01*
X1169676Y689074D01*
X1169540Y688939D01*
X1169472Y688803D01*
X1166760Y685007D01*
X1166693Y684871D01*
X1166015Y683922D01*
X1165947Y683786D01*
X1165811Y683651D01*
X1165744Y683515D01*
X1165405Y683041D01*
X1165337Y682905D01*
X1164659Y681956D01*
X1164591Y681820D01*
X1164252Y681346D01*
X1164184Y681210D01*
X1163845Y680736D01*
X1163777Y680600D01*
X1163439Y680125D01*
X1163371Y679990D01*
X1163032Y679515D01*
X1162964Y679380D01*
X1162828Y679244D01*
X1162761Y679109D01*
X1162422Y678634D01*
X1162354Y678499D01*
X1161439Y677109D01*
X1160625Y675888D01*
X1160286Y675346D01*
X1159744Y674532D01*
X1159405Y673990D01*
X1159134Y673583D01*
X1158659Y672838D01*
X1158388Y672431D01*
X1158049Y671889D01*
X1157778Y671482D01*
X1157439Y670939D01*
X1156964Y670194D01*
X1156625Y669651D01*
X1155676Y668160D01*
X1153642Y664906D01*
X1153235Y664228D01*
X1152761Y663482D01*
X1152354Y662804D01*
X1152015Y662262D01*
X1151608Y661584D01*
X1149575Y658330D01*
X1149100Y657584D01*
X1148761Y657042D01*
X1148286Y656296D01*
X1148015Y655889D01*
X1147676Y655347D01*
X1147405Y654940D01*
X1147066Y654398D01*
X1146524Y653584D01*
X1146185Y653042D01*
X1144287Y650194D01*
X1144049Y649889D01*
X1143982Y649754D01*
X1143338Y648906D01*
X1143168Y648669D01*
X1142694Y648059D01*
X1142049Y647212D01*
X1141948Y647110D01*
X1141880Y646974D01*
X1141677Y646771D01*
X1141609Y646635D01*
X1141405Y646432D01*
X1141338Y646296D01*
X1141134Y646093D01*
X1141066Y645957D01*
X1140863Y645754D01*
X1140795Y645618D01*
X1140592Y645415D01*
X1140524Y645279D01*
X1140321Y645076D01*
X1140253Y644940D01*
X1139982Y644669D01*
X1139914Y644534D01*
X1139711Y644330D01*
X1139643Y644194D01*
X1139371Y643923D01*
X1139304Y643788D01*
X1139033Y643517D01*
X1138965Y643381D01*
X1138762Y643178D01*
X1138694Y643042D01*
X1138422Y642771D01*
X1138355Y642635D01*
X1138083Y642364D01*
X1138016Y642229D01*
X1137677Y641889D01*
X1137609Y641754D01*
X1137338Y641483D01*
X1137270Y641347D01*
X1136999Y641076D01*
X1136931Y640940D01*
X1136592Y640601D01*
X1136524Y640466D01*
X1136185Y640127D01*
X1136117Y639991D01*
X1135778Y639652D01*
X1135711Y639517D01*
X1135439Y639246D01*
X1135372Y639110D01*
X1135033Y638771D01*
X1134965Y638635D01*
X1134558Y638229D01*
X1134490Y638093D01*
X1134083Y637686D01*
X1134016Y637551D01*
X1133677Y637212D01*
X1133609Y637076D01*
X1133134Y636601D01*
X1133067Y636466D01*
X1132660Y636059D01*
X1132592Y635924D01*
X1132185Y635517D01*
X1132118Y635381D01*
X1131643Y634907D01*
X1131575Y634771D01*
X1131101Y634297D01*
X1131033Y634161D01*
X1130558Y633687D01*
X1130491Y633551D01*
X1129948Y633009D01*
X1129880Y632873D01*
X1129270Y632263D01*
X1129202Y632127D01*
X1128660Y631585D01*
X1128592Y631449D01*
X1127846Y630703D01*
X1127779Y630568D01*
X1127033Y629822D01*
X1126965Y629687D01*
X1126084Y628805D01*
X1126016Y628670D01*
X1124999Y627653D01*
X1124931Y627517D01*
X1123440Y626026D01*
X1123372Y625890D01*
X1120898Y623416D01*
X1120762Y623348D01*
X1116999Y619585D01*
X1116932Y619449D01*
X1116457Y618975D01*
X1116389Y618840D01*
X1116118Y618568D01*
X1116050Y618433D01*
X1115915Y618297D01*
X1115847Y618162D01*
X1115508Y617687D01*
X1115237Y617009D01*
X1115169Y616534D01*
X1115101Y616263D01*
X1115203Y615145D01*
X1115339Y614331D01*
X1115542Y613518D01*
X1115813Y612772D01*
X1116016Y612230D01*
X1116593Y611179D01*
X1116864Y610772D01*
X1116932Y610636D01*
X1117203Y610230D01*
X1117271Y610094D01*
X1117610Y609484D01*
X1118220Y608196D01*
X1118355Y607857D01*
X1118660Y607009D01*
X1118965Y606433D01*
X1119304Y605891D01*
X1119372Y605755D01*
X1119643Y605348D01*
X1119711Y605213D01*
X1121203Y603179D01*
X1121508Y602806D01*
X1121610Y602704D01*
X1121677Y602569D01*
X1121813Y602433D01*
X1121881Y602298D01*
X1122016Y602162D01*
X1122084Y602026D01*
X1122220Y601891D01*
X1122287Y601755D01*
X1122423Y601620D01*
X1122491Y601484D01*
X1122830Y601010D01*
X1122898Y600874D01*
X1123304Y599993D01*
X1123474Y599552D01*
X1123575Y599450D01*
X1123847Y598976D01*
X1124525Y597959D01*
X1124864Y597484D01*
X1124931Y597349D01*
X1125067Y597213D01*
X1125135Y597077D01*
X1126287Y595518D01*
X1126931Y594671D01*
X1127101Y594433D01*
X1127745Y593586D01*
X1127914Y593349D01*
X1128897Y592027D01*
X1129745Y590840D01*
X1129813Y590705D01*
X1129948Y590569D01*
X1130016Y590434D01*
X1130287Y590027D01*
X1130355Y589891D01*
X1130491Y589552D01*
X1130660Y589112D01*
X1130999Y588569D01*
X1131541Y587756D01*
X1131643Y587654D01*
X1131711Y587519D01*
X1131847Y587383D01*
X1131914Y587247D01*
X1132050Y587112D01*
X1132118Y586976D01*
X1132321Y586773D01*
X1132389Y586637D01*
X1132592Y586434D01*
X1132660Y586298D01*
X1132796Y586163D01*
X1132863Y586027D01*
X1133134Y585756D01*
X1133202Y585620D01*
X1133406Y585417D01*
X1133474Y585281D01*
X1133745Y585010D01*
X1133812Y584875D01*
X1134083Y584603D01*
X1134151Y584468D01*
X1134423Y584197D01*
X1134490Y584061D01*
X1134829Y583722D01*
X1134897Y583587D01*
X1135236Y583247D01*
X1135304Y583112D01*
X1135711Y582705D01*
X1135778Y582569D01*
X1136117Y582231D01*
X1136185Y582095D01*
X1136592Y581688D01*
X1136660Y581553D01*
X1137134Y581078D01*
X1137202Y580942D01*
X1137609Y580536D01*
X1137677Y580400D01*
X1138151Y579926D01*
X1138219Y579790D01*
X1138762Y579248D01*
X1138829Y579112D01*
X1139371Y578570D01*
X1139439Y578434D01*
X1140050Y577824D01*
X1140117Y577688D01*
X1140795Y577010D01*
X1140863Y576875D01*
X1141541Y576197D01*
X1141609Y576061D01*
X1142354Y575316D01*
X1142422Y575180D01*
X1143236Y574366D01*
X1143304Y574231D01*
X1144253Y573282D01*
X1144321Y573146D01*
X1145405Y572061D01*
X1145473Y571926D01*
X1146558Y570841D01*
X1146626Y570706D01*
X1148117Y569214D01*
X1148185Y569078D01*
X1149880Y567384D01*
X1149947Y567248D01*
X1157303Y559892D01*
X1157439Y559825D01*
X1158930Y558333D01*
X1159066Y558265D01*
X1160015Y557316D01*
X1160150Y557248D01*
X1160828Y556571D01*
X1160964Y556503D01*
X1161506Y555960D01*
X1161642Y555893D01*
X1162184Y555350D01*
X1162320Y555282D01*
X1162727Y554875D01*
X1162862Y554808D01*
X1163133Y554537D01*
X1163269Y554469D01*
X1163540Y554197D01*
X1163676Y554130D01*
X1163947Y553859D01*
X1164082Y553791D01*
X1164354Y553519D01*
X1164489Y553452D01*
X1164761Y553181D01*
X1164896Y553113D01*
X1165167Y552842D01*
X1165303Y552774D01*
X1165574Y552503D01*
X1165710Y552435D01*
X1166049Y552096D01*
X1166184Y552028D01*
X1166523Y551689D01*
X1166659Y551621D01*
X1166998Y551283D01*
X1167133Y551215D01*
X1167608Y550740D01*
X1167744Y550672D01*
X1168150Y550265D01*
X1168286Y550198D01*
X1168693Y549927D01*
X1169167Y549723D01*
X1169438Y549655D01*
X1169777Y549588D01*
X1170387Y549113D01*
X1170489Y549011D01*
X1170557Y548876D01*
X1171032Y548265D01*
X1171133Y548164D01*
X1171269Y548096D01*
X1171676Y547689D01*
X1171811Y547621D01*
X1172082Y547350D01*
X1172218Y547283D01*
X1172489Y547011D01*
X1172625Y546944D01*
X1172760Y546808D01*
X1172896Y546740D01*
X1173099Y546537D01*
X1173235Y546469D01*
X1173370Y546333D01*
X1173506Y546266D01*
X1173642Y546130D01*
X1173777Y546062D01*
X1173913Y545927D01*
X1174048Y545859D01*
X1174184Y545723D01*
X1174320Y545656D01*
X1176828Y543825D01*
X1177438Y543351D01*
X1177811Y543045D01*
X1177913Y542944D01*
X1178048Y542876D01*
X1178489Y542435D01*
X1178557Y542300D01*
X1178726Y542062D01*
X1178862Y541995D01*
X1179201Y541859D01*
X1179608Y541791D01*
X1182116Y540503D01*
X1182997Y540029D01*
X1183743Y539622D01*
X1184353Y539283D01*
X1186319Y538334D01*
X1187268Y537927D01*
X1188285Y537520D01*
X1188726Y537351D01*
X1189675Y537012D01*
X1190251Y536842D01*
X1191132Y536571D01*
X1191404Y536503D01*
X1191878Y536368D01*
X1192149Y536300D01*
X1192590Y536198D01*
X1195573Y535452D01*
X1195946Y535351D01*
X1196217Y535283D01*
X1197166Y535012D01*
X1198251Y534673D01*
X1198692Y534571D01*
X1199607Y534469D01*
X1201098Y534537D01*
X1201437Y534673D01*
X1201776Y534876D01*
X1202454Y535554D01*
X1202590Y535622D01*
X1203064Y535961D01*
X1204081Y536436D01*
X1204691Y536707D01*
X1205166Y536842D01*
X1205437Y536910D01*
X1205912Y536639D01*
X1206081Y536469D01*
X1206149Y536334D01*
X1206556Y535452D01*
X1206691Y535114D01*
X1206895Y534639D01*
X1207030Y534300D01*
X1207166Y533825D01*
X1207369Y533147D01*
X1207437Y532876D01*
X1207573Y532063D01*
X1207640Y531588D01*
X1207573Y529283D01*
X1207505Y529080D01*
X1207369Y528537D01*
X1207234Y528198D01*
X1207064Y527758D01*
X1206556Y526843D01*
X1206251Y526470D01*
X1206081Y526300D01*
X1206014Y526165D01*
X1205912Y526063D01*
X1205776Y525995D01*
X1205505Y525724D01*
X1205369Y525656D01*
X1204827Y525317D01*
X1204556Y525250D01*
X1204217Y525114D01*
X1203675Y524978D01*
X1202793Y524910D01*
X1201505Y524843D01*
X1201302Y524775D01*
X1200658Y524673D01*
X1199675Y524639D01*
X1199471Y524707D01*
X1198827Y524809D01*
X1198488Y524876D01*
X1197675Y525080D01*
X1197336Y525148D01*
X1196963Y525250D01*
X1196692Y525317D01*
X1195743Y525588D01*
X1195065Y525792D01*
X1193065Y526504D01*
X1192522Y526707D01*
X1191167Y527249D01*
X1189472Y527995D01*
X1188353Y528504D01*
X1183540Y530944D01*
X1182794Y531351D01*
X1182184Y531690D01*
X1180760Y532503D01*
X1180218Y532842D01*
X1180082Y532910D01*
X1179540Y533249D01*
X1178929Y533588D01*
X1178523Y533859D01*
X1178387Y533927D01*
X1177980Y534198D01*
X1177845Y534266D01*
X1175709Y535656D01*
X1175167Y535995D01*
X1174455Y536503D01*
X1174320Y536571D01*
X1173845Y536910D01*
X1173709Y536978D01*
X1173574Y537114D01*
X1173438Y537181D01*
X1171167Y538842D01*
X1170930Y539012D01*
X1169710Y539961D01*
X1169337Y540266D01*
X1169235Y540368D01*
X1169099Y540435D01*
X1168896Y540639D01*
X1168760Y540707D01*
X1168489Y540978D01*
X1168354Y541045D01*
X1168150Y541249D01*
X1168015Y541317D01*
X1167744Y541588D01*
X1167608Y541656D01*
X1167405Y541859D01*
X1167269Y541927D01*
X1166998Y542198D01*
X1166862Y542266D01*
X1166659Y542469D01*
X1166523Y542537D01*
X1166252Y542808D01*
X1166116Y542876D01*
X1165913Y543079D01*
X1165777Y543147D01*
X1165574Y543351D01*
X1165438Y543418D01*
X1165235Y543622D01*
X1165100Y543689D01*
X1164828Y543961D01*
X1164693Y544029D01*
X1164489Y544232D01*
X1164354Y544300D01*
X1164218Y544435D01*
X1164082Y544503D01*
X1163879Y544706D01*
X1163744Y544774D01*
X1163540Y544978D01*
X1163405Y545045D01*
X1163201Y545249D01*
X1163066Y545317D01*
X1162930Y545452D01*
X1162795Y545520D01*
X1162591Y545723D01*
X1162456Y545791D01*
X1162320Y545927D01*
X1162184Y545995D01*
X1162049Y546130D01*
X1161913Y546198D01*
X1161710Y546401D01*
X1161574Y546469D01*
X1161439Y546605D01*
X1161303Y546672D01*
X1161168Y546808D01*
X1161032Y546876D01*
X1160896Y547011D01*
X1160761Y547079D01*
X1160625Y547215D01*
X1160489Y547283D01*
X1160354Y547418D01*
X1160218Y547486D01*
X1160083Y547621D01*
X1159947Y547689D01*
X1159812Y547825D01*
X1159676Y547893D01*
X1159540Y548028D01*
X1159405Y548096D01*
X1159269Y548232D01*
X1159134Y548299D01*
X1158998Y548435D01*
X1158862Y548503D01*
X1158727Y548638D01*
X1158591Y548706D01*
X1157744Y549350D01*
X1157507Y549520D01*
X1156659Y550164D01*
X1156422Y550333D01*
X1156049Y550639D01*
X1155812Y550808D01*
X1155439Y551113D01*
X1155202Y551283D01*
X1154829Y551588D01*
X1154591Y551757D01*
X1154456Y551893D01*
X1154320Y551960D01*
X1154117Y552164D01*
X1153981Y552232D01*
X1153778Y552435D01*
X1153642Y552503D01*
X1153439Y552706D01*
X1153303Y552774D01*
X1153032Y553045D01*
X1152897Y553113D01*
X1152625Y553384D01*
X1152490Y553452D01*
X1152286Y553655D01*
X1152151Y553723D01*
X1151812Y554062D01*
X1151676Y554130D01*
X1151337Y554469D01*
X1151202Y554537D01*
X1150795Y554943D01*
X1150659Y555011D01*
X1150320Y555350D01*
X1150185Y555418D01*
X1149846Y555757D01*
X1149710Y555825D01*
X1149507Y556028D01*
X1149371Y556096D01*
X1149168Y556299D01*
X1149032Y556367D01*
X1148829Y556571D01*
X1148693Y556638D01*
X1148558Y556774D01*
X1148422Y556842D01*
X1147948Y557181D01*
X1147812Y557248D01*
X1147337Y557520D01*
X1146727Y557791D01*
X1146185Y557926D01*
X1145710Y557994D01*
X1143948Y557926D01*
X1143812Y557791D01*
X1143677Y557723D01*
X1143507Y557553D01*
X1143439Y557011D01*
X1142694Y555587D01*
X1142016Y554638D01*
X1140863Y552265D01*
X1140490Y551215D01*
X1139982Y550299D01*
X1139643Y549825D01*
X1139575Y549689D01*
X1139439Y549554D01*
X1139371Y549418D01*
X1139236Y549283D01*
X1139168Y549147D01*
X1139033Y549011D01*
X1138965Y548876D01*
X1138762Y548672D01*
X1138694Y548537D01*
X1138422Y548265D01*
X1138355Y548130D01*
X1138016Y547791D01*
X1137948Y547655D01*
X1137541Y547249D01*
X1137473Y547113D01*
X1136999Y546639D01*
X1136931Y546503D01*
X1136050Y545622D01*
X1135982Y545486D01*
X1133033Y542537D01*
X1132897Y542469D01*
X1131812Y541384D01*
X1131677Y541317D01*
X1131067Y540707D01*
X1130931Y540639D01*
X1130389Y540096D01*
X1130253Y540029D01*
X1129779Y539554D01*
X1129643Y539486D01*
X1129236Y539079D01*
X1129101Y539012D01*
X1128830Y538740D01*
X1128694Y538673D01*
X1128355Y538334D01*
X1128219Y538266D01*
X1127948Y537995D01*
X1127813Y537927D01*
X1127542Y537656D01*
X1127406Y537588D01*
X1127135Y537317D01*
X1126999Y537249D01*
X1126796Y537045D01*
X1126660Y536978D01*
X1126457Y536774D01*
X1126321Y536707D01*
X1126118Y536503D01*
X1125982Y536436D01*
X1125779Y536232D01*
X1125643Y536164D01*
X1125440Y535961D01*
X1125304Y535893D01*
X1125169Y535758D01*
X1125033Y535690D01*
X1124830Y535486D01*
X1124694Y535418D01*
X1124559Y535283D01*
X1124423Y535215D01*
X1124219Y535012D01*
X1124084Y534944D01*
X1123948Y534808D01*
X1123813Y534740D01*
X1123609Y534537D01*
X1123474Y534469D01*
X1123338Y534334D01*
X1123203Y534266D01*
X1123067Y534130D01*
X1122931Y534063D01*
X1122728Y533859D01*
X1122592Y533791D01*
X1122457Y533656D01*
X1122321Y533588D01*
X1122186Y533452D01*
X1122050Y533385D01*
X1121915Y533249D01*
X1121779Y533181D01*
X1121643Y533046D01*
X1121508Y532978D01*
X1121372Y532842D01*
X1121236Y532775D01*
X1121101Y532639D01*
X1120965Y532571D01*
X1116694Y529520D01*
X1116559Y529453D01*
X1116084Y529114D01*
X1115949Y529046D01*
X1115813Y528910D01*
X1115677Y528842D01*
X1115203Y528504D01*
X1115067Y528436D01*
X1114593Y528097D01*
X1114457Y528029D01*
X1113067Y527114D01*
X1112525Y526775D01*
X1112118Y526504D01*
X1110491Y525487D01*
X1105915Y522741D01*
X1105780Y522673D01*
X1105237Y522334D01*
X1105102Y522266D01*
X1103678Y521453D01*
X1103135Y521114D01*
X1102390Y520707D01*
X1101915Y520436D01*
X1101305Y520097D01*
X1096560Y517385D01*
X1096017Y517046D01*
X1095271Y516639D01*
X1094729Y516301D01*
X1093983Y515894D01*
X1093509Y515623D01*
X1092966Y515284D01*
X1092356Y514945D01*
X1091882Y514673D01*
X1091339Y514334D01*
X1090729Y513996D01*
X1090187Y513657D01*
X1089577Y513318D01*
X1089034Y512979D01*
X1088899Y512911D01*
X1088356Y512572D01*
X1088221Y512504D01*
X1087678Y512165D01*
X1087543Y512097D01*
X1087001Y511758D01*
X1086865Y511690D01*
X1086322Y511352D01*
X1086187Y511284D01*
X1085780Y511013D01*
X1085645Y510945D01*
X1084899Y510470D01*
X1084763Y510402D01*
X1081136Y508064D01*
X1080729Y507792D01*
X1080628Y507691D01*
X1080492Y507623D01*
X1080018Y507284D01*
X1079882Y507216D01*
X1077611Y505555D01*
X1077374Y505386D01*
X1076764Y504911D01*
X1076391Y504606D01*
X1076153Y504437D01*
X1076018Y504301D01*
X1075882Y504233D01*
X1075679Y504030D01*
X1075543Y503962D01*
X1075340Y503759D01*
X1075204Y503691D01*
X1074865Y503352D01*
X1074730Y503284D01*
X1074459Y503013D01*
X1074323Y502945D01*
X1073984Y502606D01*
X1073848Y502538D01*
X1073509Y502199D01*
X1073374Y502132D01*
X1072967Y501725D01*
X1072832Y501657D01*
X1072357Y501183D01*
X1072221Y501115D01*
X1071679Y500572D01*
X1071543Y500505D01*
X1070933Y499894D01*
X1070798Y499827D01*
X1070052Y499081D01*
X1069916Y499013D01*
X1068764Y497860D01*
X1068628Y497793D01*
X1063917Y493081D01*
X1063849Y492945D01*
X1062764Y491861D01*
X1062696Y491725D01*
X1062018Y491047D01*
X1061950Y490912D01*
X1061340Y490301D01*
X1061273Y490166D01*
X1060798Y489691D01*
X1060730Y489556D01*
X1060323Y489149D01*
X1060256Y489013D01*
X1059917Y488674D01*
X1059849Y488539D01*
X1059510Y488200D01*
X1059442Y488064D01*
X1059171Y487793D01*
X1059103Y487658D01*
X1058832Y487386D01*
X1058764Y487251D01*
X1058561Y487047D01*
X1058493Y486912D01*
X1058290Y486708D01*
X1058222Y486573D01*
X1058018Y486369D01*
X1057951Y486234D01*
X1057747Y486030D01*
X1057679Y485895D01*
X1057544Y485759D01*
X1057476Y485624D01*
X1057340Y485488D01*
X1057273Y485353D01*
X1057069Y485149D01*
X1057002Y485013D01*
X1056866Y484878D01*
X1056798Y484742D01*
X1056662Y484607D01*
X1056595Y484471D01*
X1056459Y484336D01*
X1056391Y484200D01*
X1056256Y484064D01*
X1056188Y483929D01*
X1056052Y483793D01*
X1055985Y483658D01*
X1055849Y483522D01*
X1055781Y483386D01*
X1055646Y483251D01*
X1055578Y483115D01*
X1055442Y482980D01*
X1055374Y482844D01*
X1055239Y482709D01*
X1055171Y482573D01*
X1054527Y481726D01*
X1054256Y481319D01*
X1054154Y481217D01*
X1054086Y481081D01*
X1052391Y478709D01*
X1052324Y478573D01*
X1051646Y477624D01*
X1051578Y477488D01*
X1051442Y477353D01*
X1051375Y477217D01*
X1051035Y476743D01*
X1050968Y476607D01*
X1050629Y476132D01*
X1050561Y475997D01*
X1050222Y475522D01*
X1050154Y475387D01*
X1049815Y474912D01*
X1049748Y474776D01*
X1049409Y474302D01*
X1049137Y473827D01*
X1048866Y473421D01*
X1048798Y473285D01*
X1048527Y472878D01*
X1048459Y472743D01*
X1048120Y472200D01*
X1048053Y472065D01*
X1047781Y471590D01*
X1047171Y470302D01*
X1047103Y469895D01*
X1046832Y469488D01*
X1046765Y469353D01*
X1046290Y468743D01*
X1045985Y468370D01*
X1045544Y467929D01*
X1045476Y467794D01*
X1044934Y467251D01*
X1044866Y467116D01*
X1044663Y466912D01*
X1044595Y466777D01*
X1043917Y465828D01*
X1043849Y465692D01*
X1043578Y465285D01*
X1043511Y465150D01*
X1043171Y464607D01*
X1042697Y463726D01*
X1041070Y460404D01*
X1040527Y459184D01*
X1040392Y458845D01*
X1040188Y458370D01*
X1039917Y457692D01*
X1039714Y457218D01*
X1039578Y456879D01*
X1039409Y456438D01*
X1039138Y455760D01*
X1038731Y454675D01*
X1038188Y453184D01*
X1037646Y451625D01*
X1036663Y448540D01*
X1036392Y447659D01*
X1036189Y446981D01*
X1035917Y446100D01*
X1035375Y444201D01*
X1035307Y443930D01*
X1035036Y442981D01*
X1034901Y442439D01*
X1034765Y441964D01*
X1033951Y438710D01*
X1033850Y438269D01*
X1033782Y437998D01*
X1033714Y437659D01*
X1033579Y437117D01*
X1033511Y436778D01*
X1033443Y436507D01*
X1033240Y435490D01*
X1033172Y435219D01*
X1032697Y432846D01*
X1032629Y432439D01*
X1032562Y432100D01*
X1032155Y429659D01*
X1031850Y427321D01*
X1031782Y427049D01*
X1031680Y426134D01*
X1031612Y425592D01*
X1031545Y424982D01*
X1031477Y424439D01*
X1031409Y423829D01*
X1031206Y421795D01*
X1031138Y420982D01*
X1031070Y419897D01*
X1031002Y418745D01*
X1030968Y414236D01*
X1031036Y414033D01*
X1031104Y411999D01*
X1031172Y411796D01*
X1031273Y410474D01*
X1031341Y409796D01*
X1031477Y408575D01*
X1031680Y406948D01*
X1032087Y404169D01*
X1032358Y402406D01*
X1033036Y398338D01*
X1033104Y398000D01*
X1033172Y397593D01*
X1033240Y397254D01*
X1033375Y396440D01*
X1033443Y396101D01*
X1033511Y395695D01*
X1033579Y395355D01*
X1033646Y394949D01*
X1033714Y394610D01*
X1033782Y394203D01*
X1033850Y393864D01*
X1033918Y393457D01*
X1034053Y392779D01*
X1034121Y392373D01*
X1034189Y392034D01*
X1034256Y391627D01*
X1034392Y390949D01*
X1034460Y390542D01*
X1034663Y389525D01*
X1034731Y389118D01*
X1035002Y387762D01*
X1035070Y387356D01*
X1035274Y386339D01*
X1035341Y385932D01*
X1035612Y384576D01*
X1035680Y384169D01*
X1036087Y382136D01*
X1036155Y381729D01*
X1036765Y378678D01*
X1036833Y378271D01*
X1037375Y375560D01*
X1037443Y375153D01*
X1038188Y371424D01*
X1038256Y371017D01*
X1038663Y368983D01*
X1038731Y368577D01*
X1038799Y368238D01*
X1038867Y367831D01*
X1038934Y367492D01*
X1039612Y363424D01*
X1039748Y362543D01*
X1039816Y362136D01*
X1039951Y361255D01*
X1040358Y358543D01*
X1041070Y353357D01*
X1041138Y353086D01*
X1041239Y352306D01*
X1041307Y351764D01*
X1041409Y350849D01*
X1041477Y350577D01*
X1041646Y349188D01*
X1041748Y348272D01*
X1041815Y348001D01*
X1041917Y347086D01*
X1042324Y343832D01*
X1042392Y343222D01*
X1042460Y342679D01*
X1042527Y342069D01*
X1042595Y341527D01*
X1042934Y338476D01*
X1043205Y335764D01*
X1043409Y333527D01*
X1043476Y332714D01*
X1043544Y331968D01*
X1043612Y331290D01*
X1043815Y329459D01*
X1044019Y327832D01*
X1044290Y326002D01*
X1044426Y325188D01*
X1044561Y324510D01*
X1044629Y324239D01*
X1044798Y323663D01*
X1044866Y323188D01*
X1044934Y322510D01*
X1045002Y321222D01*
X1045070Y320138D01*
X1045138Y316206D01*
X1045205Y311460D01*
X1045104Y301935D01*
X1045036Y298342D01*
X1044968Y295766D01*
X1044900Y293528D01*
X1044832Y291698D01*
X1044765Y290139D01*
X1044697Y288851D01*
X1044629Y287698D01*
X1044561Y286749D01*
X1044493Y285935D01*
X1044426Y285325D01*
X1044290Y284512D01*
X1044188Y284275D01*
X1043849Y283529D01*
X1043782Y283257D01*
X1043646Y282783D01*
X1043443Y281969D01*
X1043341Y281529D01*
X1043205Y280851D01*
X1042934Y279224D01*
X1042663Y277393D01*
X1042527Y276512D01*
X1042460Y276105D01*
X1042324Y275224D01*
X1042256Y274885D01*
X1042188Y274478D01*
X1042121Y274139D01*
X1042053Y273733D01*
X1041985Y273394D01*
X1041917Y272987D01*
X1041782Y272309D01*
X1041714Y272038D01*
X1041375Y270343D01*
X1041307Y270072D01*
X1041239Y269733D01*
X1041171Y269461D01*
X1041104Y269123D01*
X1040968Y268580D01*
X1040900Y268241D01*
X1040833Y267970D01*
X1040765Y267631D01*
X1039951Y264377D01*
X1039850Y264004D01*
X1039782Y263733D01*
X1039646Y263258D01*
X1039578Y262987D01*
X1039443Y262513D01*
X1039375Y262241D01*
X1039239Y261767D01*
X1039036Y261089D01*
X1038765Y260140D01*
X1038561Y259462D01*
X1038290Y258580D01*
X1037477Y256004D01*
X1037307Y255564D01*
X1036900Y254411D01*
X1036697Y253869D01*
X1036561Y253530D01*
X1036358Y252987D01*
X1035545Y250953D01*
X1035104Y249903D01*
X1034697Y248954D01*
X1034426Y248344D01*
X1034223Y247869D01*
X1033884Y247123D01*
X1033612Y246513D01*
X1033274Y245767D01*
X1032867Y244886D01*
X1032324Y243733D01*
X1031511Y242038D01*
X1029477Y238039D01*
X1029002Y237157D01*
X1028664Y236547D01*
X1028392Y236073D01*
X1028053Y235530D01*
X1027986Y235395D01*
X1026562Y233158D01*
X1026494Y233022D01*
X1025748Y231463D01*
X1025613Y230852D01*
X1025138Y229971D01*
X1024799Y229497D01*
X1024731Y229361D01*
X1024596Y229226D01*
X1024528Y229090D01*
X1023884Y228242D01*
X1023782Y228141D01*
X1023714Y228005D01*
X1023511Y227802D01*
X1023443Y227666D01*
X1023240Y227463D01*
X1023172Y227327D01*
X1022969Y227124D01*
X1022901Y226988D01*
X1022562Y226649D01*
X1022494Y226514D01*
X1022223Y226243D01*
X1022155Y226107D01*
X1021749Y225700D01*
X1021681Y225565D01*
X1021138Y225022D01*
X1021071Y224887D01*
X1020460Y224277D01*
X1020393Y224141D01*
X1018969Y222717D01*
X1018901Y222582D01*
X1017850Y221531D01*
X1017715Y221463D01*
X1016630Y220378D01*
X1016494Y220310D01*
X1016088Y219904D01*
X1015952Y219836D01*
X1015681Y219565D01*
X1015545Y219497D01*
X1015274Y219226D01*
X1015139Y219158D01*
X1014935Y218955D01*
X1014799Y218887D01*
X1014596Y218684D01*
X1014461Y218616D01*
X1014257Y218412D01*
X1014121Y218345D01*
X1013986Y218209D01*
X1013850Y218141D01*
X1013647Y217938D01*
X1013511Y217870D01*
X1013376Y217734D01*
X1013240Y217667D01*
X1013037Y217463D01*
X1012901Y217395D01*
X1012766Y217260D01*
X1012630Y217192D01*
X1012494Y217056D01*
X1012359Y216989D01*
X1012223Y216853D01*
X1012088Y216785D01*
X1011952Y216650D01*
X1011817Y216582D01*
X1011681Y216446D01*
X1011545Y216378D01*
X1011410Y216243D01*
X1011274Y216175D01*
X1007952Y213802D01*
X1007817Y213734D01*
X1007681Y213599D01*
X1007545Y213531D01*
X1007071Y213192D01*
X1006935Y213124D01*
X1006461Y212785D01*
X1006325Y212718D01*
X1005851Y212379D01*
X1005715Y212311D01*
X1003681Y211023D01*
X1003546Y210955D01*
X1003071Y210684D01*
X1001512Y209938D01*
X1001003Y209836D01*
X1000664Y209701D01*
X999207Y208921D01*
X997817Y208006D01*
X997004Y207464D01*
X996902Y207362D01*
X996766Y207294D01*
X996292Y206955D01*
X996156Y206887D01*
X995817Y206684D01*
X639321Y206786D01*
X639151Y206955D01*
X639015Y207023D01*
X638880Y207158D01*
X638744Y207226D01*
X637897Y207870D01*
X637660Y208040D01*
X636812Y208684D01*
X636575Y208853D01*
X636202Y209159D01*
X635897Y209396D01*
X635761Y209463D01*
X635558Y209667D01*
X635423Y209735D01*
X635151Y210006D01*
X635016Y210074D01*
X634812Y210277D01*
X634677Y210345D01*
X634473Y210548D01*
X634338Y210616D01*
X634067Y210887D01*
X633931Y210955D01*
X633660Y211226D01*
X633524Y211294D01*
X633253Y211565D01*
X633117Y211633D01*
X632846Y211904D01*
X632711Y211972D01*
X632439Y212243D01*
X632304Y212311D01*
X631965Y212650D01*
X631829Y212718D01*
X631490Y213057D01*
X631355Y213124D01*
X630948Y213531D01*
X630812Y213599D01*
X630473Y213938D01*
X630338Y214006D01*
X629863Y214480D01*
X629728Y214548D01*
X629321Y214955D01*
X629185Y215023D01*
X628711Y215497D01*
X628575Y215565D01*
X628033Y216107D01*
X627897Y216175D01*
X627287Y216785D01*
X627152Y216853D01*
X626474Y217531D01*
X626338Y217599D01*
X625524Y218412D01*
X625389Y218480D01*
X624101Y219768D01*
X623965Y219836D01*
X620881Y222921D01*
X620813Y223056D01*
X619525Y224344D01*
X619457Y224480D01*
X618643Y225293D01*
X618576Y225429D01*
X617965Y226039D01*
X617898Y226175D01*
X617423Y226649D01*
X617355Y226785D01*
X616881Y227260D01*
X616813Y227395D01*
X616406Y227802D01*
X616338Y227938D01*
X616000Y228276D01*
X615932Y228412D01*
X615593Y228751D01*
X615525Y228887D01*
X615254Y229158D01*
X615186Y229293D01*
X614915Y229565D01*
X614847Y229700D01*
X614576Y229971D01*
X614508Y230107D01*
X614304Y230310D01*
X614237Y230446D01*
X613966Y230717D01*
X613898Y230852D01*
X613694Y231056D01*
X613626Y231192D01*
X613423Y231395D01*
X613355Y231530D01*
X613152Y231734D01*
X613084Y231869D01*
X612881Y232073D01*
X612813Y232208D01*
X612610Y232412D01*
X612542Y232547D01*
X612406Y232683D01*
X612338Y232819D01*
X612203Y232954D01*
X612135Y233090D01*
X611932Y233293D01*
X611864Y233429D01*
X611728Y233564D01*
X611661Y233700D01*
X611525Y233835D01*
X611457Y233971D01*
X611322Y234107D01*
X611254Y234242D01*
X611118Y234378D01*
X611050Y234513D01*
X610915Y234649D01*
X610847Y234785D01*
X610712Y234920D01*
X610644Y235056D01*
X610508Y235191D01*
X610440Y235327D01*
X610305Y235463D01*
X610237Y235598D01*
X608542Y237971D01*
X608474Y238107D01*
X607796Y239056D01*
X607729Y239191D01*
X607389Y239666D01*
X607322Y239802D01*
X606983Y240276D01*
X606712Y240751D01*
X606373Y241225D01*
X606101Y241700D01*
X605830Y242107D01*
X605762Y242242D01*
X605491Y242649D01*
X605423Y242784D01*
X604949Y243530D01*
X604881Y243666D01*
X604542Y244208D01*
X604474Y244344D01*
X604135Y244886D01*
X603729Y245632D01*
X603390Y246174D01*
X602915Y247055D01*
X602576Y247666D01*
X602102Y248547D01*
X601491Y249699D01*
X599186Y254377D01*
X598508Y255869D01*
X598305Y256343D01*
X598034Y256953D01*
X597424Y258377D01*
X597153Y259055D01*
X596949Y259530D01*
X596678Y260207D01*
X596509Y260648D01*
X596237Y261326D01*
X595424Y263495D01*
X594949Y264851D01*
X594034Y267665D01*
X593492Y269428D01*
X593288Y270105D01*
X592746Y272004D01*
X592678Y272275D01*
X592543Y272750D01*
X592407Y273292D01*
X592271Y273766D01*
X591797Y275664D01*
X591695Y276105D01*
X591627Y276376D01*
X591560Y276715D01*
X591424Y277258D01*
X591356Y277597D01*
X591288Y277868D01*
X591153Y278546D01*
X591085Y278817D01*
X590746Y280512D01*
X590678Y280919D01*
X590611Y281258D01*
X590543Y281664D01*
X590407Y282546D01*
X590237Y283935D01*
X590170Y284207D01*
X589933Y286342D01*
X589865Y287020D01*
X589729Y288512D01*
X589661Y289325D01*
X589593Y290207D01*
X589492Y292207D01*
X589424Y292478D01*
X589255Y296783D01*
X589187Y299494D01*
X589153Y305562D01*
X589221Y305765D01*
X589288Y309765D01*
X589356Y309969D01*
X589458Y312104D01*
X589526Y312985D01*
X589593Y313799D01*
X589729Y315155D01*
X589797Y315765D01*
X589933Y316850D01*
X590339Y319629D01*
X590475Y320443D01*
X590611Y321324D01*
X591017Y323765D01*
X591085Y324104D01*
X591153Y324510D01*
X591221Y324849D01*
X591288Y325256D01*
X591356Y325595D01*
X591424Y326002D01*
X592102Y329392D01*
X592170Y329663D01*
X592305Y330341D01*
X592441Y330883D01*
X592509Y331222D01*
X592780Y332307D01*
X592882Y332680D01*
X593220Y333764D01*
X593153Y334239D01*
X592780Y334612D01*
X592034Y334951D01*
X591695Y335086D01*
X590000Y335629D01*
X589526Y335764D01*
X588170Y336171D01*
X586916Y336612D01*
X586373Y336815D01*
X585628Y337086D01*
X585051Y337324D01*
X584577Y337527D01*
X583967Y337798D01*
X582678Y338408D01*
X581119Y339222D01*
X580645Y339493D01*
X580102Y339832D01*
X579628Y340103D01*
X578238Y341018D01*
X577424Y341561D01*
X577323Y341663D01*
X577187Y341730D01*
X577052Y341866D01*
X576916Y341934D01*
X576306Y342408D01*
X575458Y343052D01*
X575289Y343222D01*
X575153Y343289D01*
X574882Y343561D01*
X574746Y343628D01*
X574475Y343899D01*
X574340Y343967D01*
X573865Y344442D01*
X573730Y344510D01*
X573052Y345188D01*
X572916Y345255D01*
X571255Y346916D01*
X571187Y347052D01*
X570442Y347798D01*
X570374Y347933D01*
X569831Y348476D01*
X569764Y348611D01*
X569492Y348882D01*
X569425Y349018D01*
X569086Y349357D01*
X569018Y349493D01*
X568747Y349764D01*
X568679Y349899D01*
X568543Y350035D01*
X568476Y350171D01*
X568272Y350374D01*
X568204Y350510D01*
X568001Y350713D01*
X567933Y350849D01*
X567798Y350984D01*
X567730Y351120D01*
X567594Y351255D01*
X567526Y351391D01*
X567391Y351526D01*
X567323Y351662D01*
X567188Y351798D01*
X567120Y351933D01*
X566984Y352069D01*
X566916Y352204D01*
X565899Y353628D01*
X565832Y353764D01*
X565493Y354238D01*
X565425Y354374D01*
X565154Y354781D01*
X565086Y354916D01*
X564747Y355391D01*
X564408Y356001D01*
X564069Y356543D01*
X564001Y356679D01*
X563662Y357221D01*
X563255Y357967D01*
X562984Y358441D01*
X562442Y359458D01*
X560408Y363594D01*
X560069Y364340D01*
X559459Y365763D01*
X559188Y366441D01*
X558984Y366916D01*
X558442Y368272D01*
X558273Y368712D01*
X558001Y369390D01*
X557595Y370475D01*
X557459Y370814D01*
X556645Y372983D01*
X556103Y374475D01*
X555120Y377492D01*
X554849Y378373D01*
X554442Y379797D01*
X554374Y380068D01*
X554239Y380543D01*
X553696Y382712D01*
X553595Y383153D01*
X553527Y383424D01*
X553459Y383763D01*
X553391Y384034D01*
X553324Y384373D01*
X553256Y384644D01*
X553188Y384983D01*
X553120Y385254D01*
X552917Y386271D01*
X552849Y386542D01*
X552375Y388915D01*
X552239Y389729D01*
X552103Y390610D01*
X552001Y391525D01*
X551934Y391796D01*
X551832Y392779D01*
X551697Y394000D01*
X551561Y395355D01*
X551425Y396847D01*
X551222Y399288D01*
X551154Y400169D01*
X550951Y403084D01*
X550883Y404304D01*
X550815Y405457D01*
X550747Y406677D01*
X550679Y407965D01*
X550612Y409457D01*
X550544Y411151D01*
X550442Y415321D01*
X550374Y419253D01*
X550442Y419524D01*
X550510Y422439D01*
X550578Y422643D01*
X550679Y423626D01*
X550815Y424711D01*
X550883Y425320D01*
X550951Y425863D01*
X551019Y426541D01*
X551086Y427151D01*
X551154Y427829D01*
X551222Y428642D01*
X551290Y428914D01*
X551697Y429320D01*
X551832Y429388D01*
X551968Y429524D01*
X552103Y429592D01*
X552578Y429930D01*
X553866Y430541D01*
X554137Y430608D01*
X555086Y430744D01*
X556611Y430642D01*
X557154Y430575D01*
X558917Y430303D01*
X559256Y430236D01*
X560069Y430100D01*
X560747Y429964D01*
X561154Y429897D01*
X562510Y429626D01*
X562917Y429558D01*
X567662Y428609D01*
X568069Y428541D01*
X569764Y428202D01*
X570170Y428134D01*
X570848Y427998D01*
X571255Y427931D01*
X571933Y427795D01*
X572340Y427727D01*
X572679Y427659D01*
X573086Y427592D01*
X573425Y427524D01*
X574238Y427388D01*
X574577Y427321D01*
X577831Y426778D01*
X578713Y426643D01*
X582000Y426202D01*
X582272Y426134D01*
X584407Y425897D01*
X585899Y425761D01*
X586712Y425693D01*
X587797Y425626D01*
X589560Y425558D01*
X591288Y425524D01*
X591492Y425592D01*
X593729Y425660D01*
X593932Y425727D01*
X594881Y425795D01*
X595085Y425863D01*
X595797Y425965D01*
X596475Y426100D01*
X596746Y426168D01*
X597085Y426236D01*
X597898Y426439D01*
X598271Y426541D01*
X599729Y427049D01*
X600271Y427253D01*
X600610Y427388D01*
X601830Y427931D01*
X602169Y428066D01*
X602542Y428236D01*
X602881Y428371D01*
X603356Y428575D01*
X604373Y428981D01*
X604813Y429151D01*
X605152Y429286D01*
X605898Y429558D01*
X607051Y429964D01*
X607627Y430134D01*
X609525Y430744D01*
X610406Y431015D01*
X612305Y431558D01*
X612576Y431625D01*
X613050Y431761D01*
X616033Y432507D01*
X616474Y432608D01*
X616745Y432676D01*
X617762Y432880D01*
X618033Y432947D01*
X619050Y433151D01*
X619457Y433219D01*
X620135Y433354D01*
X620542Y433422D01*
X621423Y433558D01*
X621830Y433625D01*
X623220Y433795D01*
X623491Y433863D01*
X624541Y433964D01*
X625287Y434032D01*
X626236Y434100D01*
X626982Y434168D01*
X628338Y434303D01*
X630779Y434575D01*
X631321Y434642D01*
X631931Y434710D01*
X632473Y434778D01*
X633083Y434846D01*
X639592Y435659D01*
X640507Y435761D01*
X640778Y435829D01*
X642609Y436032D01*
X642880Y436100D01*
X643795Y436202D01*
X645965Y436473D01*
X646575Y436541D01*
X647117Y436608D01*
X647727Y436676D01*
X648269Y436744D01*
X648880Y436812D01*
X649422Y436880D01*
X653693Y437354D01*
X654371Y437422D01*
X654981Y437490D01*
X655727Y437558D01*
X656405Y437625D01*
X657896Y437761D01*
X658845Y437829D01*
X660744Y437896D01*
X661625Y437964D01*
X662371Y438100D01*
X662642Y438168D01*
X663184Y438371D01*
X663591Y438642D01*
X663828Y438812D01*
X664744Y439727D01*
X664811Y439863D01*
X666133Y441185D01*
X666269Y441252D01*
X666608Y441591D01*
X666744Y441659D01*
X666947Y441862D01*
X667082Y441930D01*
X667286Y442134D01*
X667421Y442201D01*
X667625Y442405D01*
X667760Y442472D01*
X667896Y442608D01*
X668031Y442676D01*
X668167Y442812D01*
X668303Y442879D01*
X668438Y443015D01*
X668574Y443083D01*
X668709Y443218D01*
X668845Y443286D01*
X670743Y444642D01*
X670879Y444710D01*
X671354Y445049D01*
X671489Y445116D01*
X671963Y445455D01*
X672099Y445523D01*
X672506Y445795D01*
X672641Y445862D01*
X673116Y446201D01*
X673252Y446269D01*
X673997Y446744D01*
X674133Y446811D01*
X674540Y447082D01*
X674675Y447150D01*
X675082Y447422D01*
X675218Y447489D01*
X675963Y447964D01*
X676099Y448032D01*
X676641Y448371D01*
X676777Y448438D01*
X677319Y448777D01*
X677929Y449116D01*
X678472Y449455D01*
X679218Y449862D01*
X679760Y450201D01*
X680506Y450608D01*
X681116Y450947D01*
X681590Y451218D01*
X682201Y451557D01*
X682946Y451964D01*
X683556Y452303D01*
X684302Y452710D01*
X685183Y453184D01*
X686200Y453726D01*
X687488Y454404D01*
X689048Y455218D01*
X695895Y458608D01*
X697319Y459286D01*
X698064Y459624D01*
X699827Y460438D01*
X700573Y460777D01*
X702403Y461591D01*
X702878Y461794D01*
X703488Y462065D01*
X705386Y462878D01*
X705725Y463014D01*
X706200Y463218D01*
X706539Y463353D01*
X707013Y463557D01*
X707352Y463692D01*
X707827Y463896D01*
X708844Y464302D01*
X709318Y464506D01*
X712369Y465726D01*
X712810Y465896D01*
X713827Y466302D01*
X714369Y466506D01*
X715047Y466777D01*
X716131Y467184D01*
X716471Y467319D01*
X720267Y468743D01*
X721013Y469014D01*
X721555Y469217D01*
X722504Y469556D01*
X723250Y469828D01*
X724199Y470166D01*
X725352Y470573D01*
X727318Y471251D01*
X730945Y472438D01*
X732436Y472912D01*
X733317Y473183D01*
X734673Y473590D01*
X736097Y473997D01*
X736639Y474132D01*
X737114Y474268D01*
X737656Y474404D01*
X738097Y474505D01*
X738368Y474573D01*
X738707Y474641D01*
X739521Y474776D01*
X740402Y474844D01*
X741283Y474980D01*
X741690Y475048D01*
X742707Y475251D01*
X742978Y475319D01*
X743317Y475387D01*
X743588Y475454D01*
X743927Y475522D01*
X744198Y475590D01*
X744537Y475658D01*
X748334Y476607D01*
X748707Y476709D01*
X751961Y477522D01*
X752402Y477624D01*
X754029Y478031D01*
X754367Y478099D01*
X755452Y478370D01*
X755791Y478437D01*
X756605Y478641D01*
X756944Y478709D01*
X757486Y478844D01*
X757825Y478912D01*
X758367Y479048D01*
X758706Y479115D01*
X759249Y479251D01*
X759588Y479319D01*
X760130Y479454D01*
X760469Y479522D01*
X760740Y479590D01*
X761079Y479658D01*
X761622Y479793D01*
X761961Y479861D01*
X762503Y479997D01*
X762842Y480065D01*
X763113Y480132D01*
X763452Y480200D01*
X763723Y480268D01*
X764062Y480336D01*
X764333Y480404D01*
X764672Y480471D01*
X764943Y480539D01*
X765283Y480607D01*
X765554Y480675D01*
X765893Y480742D01*
X766164Y480810D01*
X766842Y480946D01*
X767113Y481014D01*
X767452Y481081D01*
X767723Y481149D01*
X768401Y481285D01*
X768672Y481353D01*
X769011Y481420D01*
X769282Y481488D01*
X769960Y481624D01*
X770231Y481692D01*
X770909Y481827D01*
X771181Y481895D01*
X772197Y482098D01*
X772469Y482166D01*
X773486Y482370D01*
X773757Y482437D01*
X775452Y482776D01*
X775723Y482844D01*
X780807Y483861D01*
X781214Y483929D01*
X782231Y484132D01*
X782638Y484200D01*
X783316Y484336D01*
X783722Y484403D01*
X784062Y484471D01*
X784875Y484607D01*
X785214Y484675D01*
X786841Y484946D01*
X788705Y485183D01*
X789180Y485251D01*
X790129Y485318D01*
X790739Y485658D01*
X790841Y485759D01*
X790909Y485895D01*
X791621Y486200D01*
X791994Y486302D01*
X792807Y486505D01*
X793146Y486573D01*
X793417Y486640D01*
X794434Y486844D01*
X794841Y486912D01*
X795519Y487047D01*
X795926Y487115D01*
X796264Y487183D01*
X799112Y487658D01*
X799993Y487793D01*
X800400Y487861D01*
X802163Y488132D01*
X804468Y488471D01*
X805857Y488640D01*
X806129Y488708D01*
X806908Y488810D01*
X808773Y489047D01*
X809044Y489115D01*
X809823Y489217D01*
X810366Y489284D01*
X811281Y489386D01*
X811552Y489454D01*
X812400Y489556D01*
X813315Y489657D01*
X813586Y489725D01*
X815518Y489962D01*
X817145Y490166D01*
X818060Y490268D01*
X818332Y490335D01*
X819247Y490437D01*
X820332Y490572D01*
X820942Y490640D01*
X822569Y490844D01*
X823179Y490912D01*
X824264Y491047D01*
X824874Y491115D01*
X825958Y491250D01*
X826569Y491318D01*
X827111Y491386D01*
X828331Y491522D01*
X828874Y491590D01*
X830094Y491725D01*
X830636Y491793D01*
X832467Y491996D01*
X833009Y492064D01*
X833619Y492132D01*
X834297Y492200D01*
X836738Y492471D01*
X837416Y492539D01*
X839246Y492742D01*
X839924Y492810D01*
X840534Y492877D01*
X842568Y493081D01*
X843178Y493149D01*
X844534Y493284D01*
X845144Y493352D01*
X845822Y493420D01*
X846568Y493488D01*
X847924Y493623D01*
X848669Y493691D01*
X849347Y493759D01*
X850093Y493827D01*
X850771Y493895D01*
X854500Y494233D01*
X858567Y494572D01*
X861211Y494776D01*
X864228Y494945D01*
X864500Y495013D01*
X866703Y495115D01*
X867991Y495183D01*
X870296Y495318D01*
X871381Y495386D01*
X874364Y495589D01*
X877211Y495793D01*
X878092Y495861D01*
X881346Y496132D01*
X882024Y496200D01*
X882770Y496267D01*
X883380Y496335D01*
X885007Y496538D01*
X885922Y496640D01*
X886194Y496708D01*
X886973Y496810D01*
X890160Y497284D01*
X890566Y497352D01*
X891448Y497488D01*
X895109Y498098D01*
X895448Y498166D01*
X896261Y498301D01*
X896600Y498369D01*
X897007Y498437D01*
X897685Y498572D01*
X898091Y498640D01*
X898769Y498776D01*
X899176Y498844D01*
X900532Y499115D01*
X900803Y499183D01*
X901481Y499318D01*
X901752Y499386D01*
X902091Y499454D01*
X902363Y499521D01*
X902702Y499589D01*
X903515Y499793D01*
X903888Y499894D01*
X904329Y500064D01*
X904566Y500165D01*
X904701Y500301D01*
X905312Y500572D01*
X905990Y500843D01*
X906634Y501081D01*
X908024Y501521D01*
X908905Y501793D01*
X909583Y501996D01*
X910057Y502132D01*
X910735Y502335D01*
X912159Y502742D01*
X912837Y502945D01*
X914600Y503488D01*
X917108Y504301D01*
X917752Y504538D01*
X919718Y505216D01*
X921209Y505759D01*
X921752Y505962D01*
X922498Y506233D01*
X923176Y506504D01*
X923718Y506708D01*
X926091Y507657D01*
X926667Y507894D01*
X927006Y508030D01*
X927616Y508301D01*
X928565Y508708D01*
X929785Y509250D01*
X931277Y509928D01*
X932565Y510538D01*
X938599Y513589D01*
X940836Y514809D01*
X941785Y515351D01*
X942395Y515690D01*
X943819Y516504D01*
X944361Y516843D01*
X944497Y516911D01*
X944971Y517182D01*
X945514Y517521D01*
X945649Y517589D01*
X946192Y517928D01*
X946327Y517995D01*
X946870Y518334D01*
X947005Y518402D01*
X947548Y518741D01*
X947683Y518809D01*
X948090Y519080D01*
X948225Y519148D01*
X949717Y520097D01*
X949852Y520165D01*
X950327Y520504D01*
X950463Y520572D01*
X950937Y520911D01*
X951073Y520978D01*
X952293Y521792D01*
X952768Y522131D01*
X952903Y522199D01*
X953378Y522538D01*
X953513Y522605D01*
X953649Y522741D01*
X953785Y522809D01*
X956530Y524809D01*
X956937Y525080D01*
X957039Y525182D01*
X957174Y525250D01*
X957310Y525385D01*
X957446Y525453D01*
X957649Y525656D01*
X957784Y525724D01*
X957920Y525860D01*
X958056Y525927D01*
X958191Y526063D01*
X958327Y526131D01*
X958462Y526266D01*
X958598Y526334D01*
X958734Y526470D01*
X958869Y526538D01*
X959073Y526741D01*
X959208Y526809D01*
X959412Y527012D01*
X959547Y527080D01*
X959750Y527283D01*
X959886Y527351D01*
X960022Y527487D01*
X960157Y527554D01*
X960361Y527758D01*
X960496Y527826D01*
X960700Y528029D01*
X960835Y528097D01*
X961106Y528368D01*
X961242Y528436D01*
X961445Y528639D01*
X961581Y528707D01*
X961852Y528978D01*
X961988Y529046D01*
X962191Y529249D01*
X962327Y529317D01*
X962598Y529588D01*
X962734Y529656D01*
X963072Y529995D01*
X963208Y530063D01*
X963479Y530334D01*
X963615Y530402D01*
X963886Y530673D01*
X964021Y530741D01*
X964361Y531080D01*
X964496Y531148D01*
X964903Y531554D01*
X965038Y531622D01*
X965377Y531961D01*
X965513Y532029D01*
X965920Y532436D01*
X966055Y532503D01*
X966530Y532978D01*
X966666Y533046D01*
X967208Y533588D01*
X967343Y533656D01*
X967886Y534198D01*
X968021Y534266D01*
X968699Y534944D01*
X968835Y535012D01*
X969581Y535758D01*
X969716Y535825D01*
X970733Y536842D01*
X970869Y536910D01*
X972293Y538334D01*
X972428Y538402D01*
X977614Y543588D01*
X977648Y543622D01*
X981173Y547147D01*
X981309Y547215D01*
X983479Y549384D01*
X983614Y549452D01*
X984495Y550333D01*
X984631Y550401D01*
X985038Y550808D01*
X985173Y550876D01*
X985648Y551147D01*
X986902Y552401D01*
X986970Y552537D01*
X987444Y553011D01*
X987512Y553147D01*
X987783Y553418D01*
X987851Y553553D01*
X988190Y553893D01*
X988258Y554028D01*
X988529Y554299D01*
X988597Y554435D01*
X988800Y554638D01*
X988868Y554774D01*
X989139Y555045D01*
X989207Y555181D01*
X989410Y555384D01*
X989478Y555520D01*
X989682Y555723D01*
X989750Y555859D01*
X989953Y556062D01*
X990021Y556198D01*
X990224Y556401D01*
X990292Y556537D01*
X990495Y556740D01*
X990563Y556875D01*
X990699Y557011D01*
X990766Y557147D01*
X990970Y557350D01*
X991038Y557486D01*
X991173Y557621D01*
X991241Y557757D01*
X991444Y557960D01*
X991512Y558096D01*
X991648Y558231D01*
X991716Y558367D01*
X991919Y558570D01*
X991987Y558706D01*
X992122Y558841D01*
X992190Y558977D01*
X992326Y559113D01*
X992393Y559248D01*
X992597Y559452D01*
X992665Y559587D01*
X992800Y559723D01*
X992868Y559858D01*
X993004Y559994D01*
X993071Y560130D01*
X993207Y560265D01*
X993275Y560401D01*
X993410Y560536D01*
X993478Y560672D01*
X993614Y560807D01*
X993682Y560943D01*
X993885Y561146D01*
X993953Y561282D01*
X994088Y561418D01*
X994156Y561553D01*
X994292Y561689D01*
X994360Y561824D01*
X994495Y561960D01*
X994563Y562096D01*
X994698Y562231D01*
X994766Y562367D01*
X995410Y563214D01*
X995580Y563452D01*
X996563Y564774D01*
X996936Y565282D01*
X997004Y565418D01*
X997139Y565553D01*
X997207Y565689D01*
X1000597Y570434D01*
X1000664Y570570D01*
X1000800Y570706D01*
X1000868Y570841D01*
X1001207Y571316D01*
X1001274Y571451D01*
X1001952Y572400D01*
X1002020Y572536D01*
X1002359Y573010D01*
X1002427Y573146D01*
X1002563Y573282D01*
X1002630Y573417D01*
X1002969Y573892D01*
X1003037Y574027D01*
X1003376Y574502D01*
X1003444Y574638D01*
X1003715Y575044D01*
X1003783Y575180D01*
X1004122Y575654D01*
X1004190Y575790D01*
X1004529Y576265D01*
X1004596Y576400D01*
X1004868Y576807D01*
X1004935Y576943D01*
X1005274Y577417D01*
X1005342Y577553D01*
X1007240Y580536D01*
X1007308Y580671D01*
X1007580Y581078D01*
X1007647Y581213D01*
X1007918Y581620D01*
X1007986Y581756D01*
X1008257Y582163D01*
X1008325Y582298D01*
X1008596Y582705D01*
X1008664Y582841D01*
X1008935Y583247D01*
X1009003Y583383D01*
X1009478Y584129D01*
X1009545Y584264D01*
X1009817Y584671D01*
X1009885Y584807D01*
X1010359Y585552D01*
X1010427Y585688D01*
X1010901Y586434D01*
X1010969Y586569D01*
X1011308Y587112D01*
X1011376Y587247D01*
X1011647Y587654D01*
X1011715Y587790D01*
X1012054Y588332D01*
X1012122Y588468D01*
X1012461Y589010D01*
X1012528Y589146D01*
X1013003Y589891D01*
X1013071Y590027D01*
X1013410Y590569D01*
X1013477Y590705D01*
X1013817Y591247D01*
X1013884Y591383D01*
X1014223Y591925D01*
X1014291Y592061D01*
X1014630Y592603D01*
X1014698Y592739D01*
X1014969Y593213D01*
X1015308Y593756D01*
X1015376Y593891D01*
X1015715Y594433D01*
X1015783Y594569D01*
X1016122Y595111D01*
X1016189Y595247D01*
X1016461Y595722D01*
X1016799Y596264D01*
X1016867Y596400D01*
X1017206Y596942D01*
X1017545Y597552D01*
X1017884Y598094D01*
X1018223Y598705D01*
X1018494Y599179D01*
X1018833Y599721D01*
X1019172Y600332D01*
X1019715Y601281D01*
X1020053Y601823D01*
X1020460Y602569D01*
X1020799Y603111D01*
X1021206Y603857D01*
X1021545Y604399D01*
X1021952Y605145D01*
X1023308Y607518D01*
X1023647Y608128D01*
X1024460Y609552D01*
X1024799Y610162D01*
X1025341Y611111D01*
X1025680Y611721D01*
X1026494Y613145D01*
X1026833Y613755D01*
X1028460Y616602D01*
X1028799Y617144D01*
X1029206Y617890D01*
X1029545Y618433D01*
X1029951Y619178D01*
X1030223Y619653D01*
X1030562Y620195D01*
X1030901Y620806D01*
X1031172Y621280D01*
X1031511Y621822D01*
X1031579Y621958D01*
X1031850Y622433D01*
X1032189Y622975D01*
X1032256Y623111D01*
X1032596Y623653D01*
X1032663Y623788D01*
X1032935Y624263D01*
X1033274Y624805D01*
X1033341Y624941D01*
X1033680Y625483D01*
X1033748Y625619D01*
X1034087Y626161D01*
X1034155Y626297D01*
X1034494Y626839D01*
X1034562Y626975D01*
X1035036Y627721D01*
X1035104Y627856D01*
X1035443Y628399D01*
X1035511Y628534D01*
X1035782Y628941D01*
X1035850Y629076D01*
X1036324Y629822D01*
X1036392Y629958D01*
X1036663Y630364D01*
X1036731Y630500D01*
X1037002Y630907D01*
X1037070Y631042D01*
X1037341Y631449D01*
X1037409Y631585D01*
X1037680Y631991D01*
X1037748Y632127D01*
X1038087Y632602D01*
X1038358Y633076D01*
X1038629Y633483D01*
X1038697Y633619D01*
X1039036Y634093D01*
X1039104Y634229D01*
X1039375Y634636D01*
X1039443Y634771D01*
X1039782Y635246D01*
X1039850Y635381D01*
X1040188Y635856D01*
X1040256Y635991D01*
X1040595Y636466D01*
X1040663Y636601D01*
X1041002Y637076D01*
X1041070Y637212D01*
X1041409Y637686D01*
X1041477Y637822D01*
X1042155Y638771D01*
X1042222Y638907D01*
X1042358Y639042D01*
X1042426Y639178D01*
X1042765Y639652D01*
X1042832Y639788D01*
X1042968Y639924D01*
X1043036Y640059D01*
X1044358Y641856D01*
X1044629Y642262D01*
X1044731Y642364D01*
X1044798Y642500D01*
X1044934Y642635D01*
X1045002Y642771D01*
X1045138Y642907D01*
X1045205Y643042D01*
X1045341Y643178D01*
X1045409Y643313D01*
X1045612Y643517D01*
X1045680Y643652D01*
X1045815Y643788D01*
X1045883Y643923D01*
X1046019Y644059D01*
X1046087Y644194D01*
X1046222Y644330D01*
X1046290Y644466D01*
X1046493Y644669D01*
X1046561Y644805D01*
X1046765Y645008D01*
X1046832Y645144D01*
X1047036Y645347D01*
X1047103Y645483D01*
X1047307Y645686D01*
X1047375Y645822D01*
X1047578Y646025D01*
X1047646Y646161D01*
X1047917Y646432D01*
X1047985Y646567D01*
X1048256Y646839D01*
X1048324Y646974D01*
X1048595Y647245D01*
X1048663Y647381D01*
X1049002Y647720D01*
X1049070Y647856D01*
X1049476Y648262D01*
X1049544Y648398D01*
X1050019Y648872D01*
X1050086Y649008D01*
X1050764Y649686D01*
X1050832Y649821D01*
X1052459Y651448D01*
X1052527Y651584D01*
X1052764Y651822D01*
X1052900Y651889D01*
X1054120Y653110D01*
X1054256Y653177D01*
X1054798Y653720D01*
X1054934Y653787D01*
X1055341Y654194D01*
X1055476Y654262D01*
X1055815Y654601D01*
X1055951Y654669D01*
X1056222Y654940D01*
X1056358Y655008D01*
X1056629Y655279D01*
X1056764Y655347D01*
X1056967Y655550D01*
X1057103Y655618D01*
X1057307Y655821D01*
X1057442Y655889D01*
X1057646Y656092D01*
X1057781Y656160D01*
X1057917Y656296D01*
X1058052Y656364D01*
X1058188Y656499D01*
X1058323Y656567D01*
X1058459Y656703D01*
X1058595Y656770D01*
X1058730Y656906D01*
X1058866Y656974D01*
X1059001Y657109D01*
X1059137Y657177D01*
X1060561Y658194D01*
X1060696Y658262D01*
X1061171Y658601D01*
X1061306Y658669D01*
X1061781Y659008D01*
X1062255Y659279D01*
X1062798Y659618D01*
X1062934Y659686D01*
X1063340Y659957D01*
X1063950Y660296D01*
X1064899Y660838D01*
X1066120Y661516D01*
X1067543Y662262D01*
X1070730Y663821D01*
X1071476Y664160D01*
X1073306Y664973D01*
X1075204Y665787D01*
X1077238Y666601D01*
X1077679Y666770D01*
X1078764Y667177D01*
X1080119Y667651D01*
X1080899Y667889D01*
X1082390Y668363D01*
X1083814Y668770D01*
X1085170Y669109D01*
X1085645Y669245D01*
X1086085Y669346D01*
X1086424Y669414D01*
X1086695Y669482D01*
X1088390Y669821D01*
X1088797Y669889D01*
X1089136Y669956D01*
X1089543Y670024D01*
X1090424Y670160D01*
X1091339Y670261D01*
X1091611Y670329D01*
X1093271Y670499D01*
X1094017Y670567D01*
X1094966Y670634D01*
X1096051Y670702D01*
X1098017Y670770D01*
X1101712Y670804D01*
X1101915Y670736D01*
X1104695Y670668D01*
X1104898Y670601D01*
X1106356Y670499D01*
X1107034Y670431D01*
X1107644Y670363D01*
X1108728Y670227D01*
X1109644Y670126D01*
X1109915Y670058D01*
X1110559Y669956D01*
X1111372Y669821D01*
X1111711Y669753D01*
X1112118Y669685D01*
X1112796Y669549D01*
X1113067Y669482D01*
X1113745Y669346D01*
X1114288Y669211D01*
X1114627Y669143D01*
X1115983Y668804D01*
X1116355Y668702D01*
X1117304Y668431D01*
X1118389Y668092D01*
X1119033Y667855D01*
X1120186Y667448D01*
X1120728Y667245D01*
X1121067Y667109D01*
X1121610Y666906D01*
X1121948Y666770D01*
X1122694Y666499D01*
X1123237Y666295D01*
X1125440Y665584D01*
X1125813Y665685D01*
X1126626Y665889D01*
X1127372Y666160D01*
X1128118Y666499D01*
X1128694Y666804D01*
X1129914Y667618D01*
X1130050Y667753D01*
X1130185Y667821D01*
X1131134Y668770D01*
X1131270Y668838D01*
X1131880Y669448D01*
X1132016Y669516D01*
X1132490Y669990D01*
X1132626Y670058D01*
X1133101Y670533D01*
X1133236Y670601D01*
X1133643Y671007D01*
X1133779Y671075D01*
X1134118Y671414D01*
X1134253Y671482D01*
X1134660Y671889D01*
X1134795Y671956D01*
X1135067Y672228D01*
X1135202Y672295D01*
X1135541Y672634D01*
X1135677Y672702D01*
X1136016Y673041D01*
X1136151Y673109D01*
X1136558Y673516D01*
X1136694Y673583D01*
X1137101Y673990D01*
X1137236Y674058D01*
X1137643Y674465D01*
X1137778Y674532D01*
X1138253Y675007D01*
X1138389Y675075D01*
X1138863Y675549D01*
X1138999Y675617D01*
X1139609Y676227D01*
X1139744Y676295D01*
X1140490Y677041D01*
X1140626Y677109D01*
X1141643Y678126D01*
X1141778Y678193D01*
X1142660Y679075D01*
X1142795Y679142D01*
X1143405Y679753D01*
X1143541Y679820D01*
X1143948Y680227D01*
X1144083Y680295D01*
X1144490Y680702D01*
X1144626Y680769D01*
X1144897Y681041D01*
X1145032Y681109D01*
X1145303Y681380D01*
X1145439Y681447D01*
X1145643Y681651D01*
X1145778Y681719D01*
X1145914Y681854D01*
X1146049Y681922D01*
X1146659Y682397D01*
X1146795Y682532D01*
X1146931Y682600D01*
X1147202Y682871D01*
X1147337Y682939D01*
X1147744Y683346D01*
X1147880Y683414D01*
X1148286Y683820D01*
X1148422Y683888D01*
X1148965Y684430D01*
X1149100Y684498D01*
X1149642Y685041D01*
X1149778Y685108D01*
X1150524Y685854D01*
X1150659Y685922D01*
X1151541Y686803D01*
X1151676Y686871D01*
X1152693Y687888D01*
X1152829Y687956D01*
X1153574Y688702D01*
X1153710Y688769D01*
X1154320Y689380D01*
X1154456Y689447D01*
X1154998Y689990D01*
X1155134Y690057D01*
X1155608Y690532D01*
X1155744Y690600D01*
X1156218Y691074D01*
X1156354Y691142D01*
X1156829Y691617D01*
X1156964Y691684D01*
X1157371Y692091D01*
X1157507Y692159D01*
X1157913Y692566D01*
X1158049Y692634D01*
X1158456Y693040D01*
X1158591Y693108D01*
X1158998Y693515D01*
X1159134Y693583D01*
X1159540Y693989D01*
X1159676Y694057D01*
X1160015Y694396D01*
X1160150Y694464D01*
X1160422Y694735D01*
X1160557Y694803D01*
X1160896Y695142D01*
X1161032Y695210D01*
X1161439Y695616D01*
X1161574Y695684D01*
X1161913Y696023D01*
X1162049Y696091D01*
X1162388Y696430D01*
X1162523Y696498D01*
X1162930Y696905D01*
X1163066Y696972D01*
X1163405Y697311D01*
X1163540Y697379D01*
X1163879Y697718D01*
X1164015Y697786D01*
X1164354Y698125D01*
X1164489Y698193D01*
X1165032Y698735D01*
X1165167Y698803D01*
X1165371Y699006D01*
X1165506Y699074D01*
X1166116Y699345D01*
X1166727Y699684D01*
X1166862Y699820D01*
X1166998Y699888D01*
X1167269Y700159D01*
X1167405Y700226D01*
X1167811Y700633D01*
X1167947Y700701D01*
X1168421Y701176D01*
X1168557Y701244D01*
X1168828Y701515D01*
X1168964Y701582D01*
X1169235Y701854D01*
X1169370Y701922D01*
X1169574Y702125D01*
X1169710Y702193D01*
X1169913Y702396D01*
X1170049Y702464D01*
X1170252Y702667D01*
X1170387Y702735D01*
X1170523Y702871D01*
X1170659Y702938D01*
X1170862Y703142D01*
X1170998Y703210D01*
X1171133Y703345D01*
X1171269Y703413D01*
X1171404Y703548D01*
X1171540Y703616D01*
X1171676Y703752D01*
X1171811Y703820D01*
X1171947Y703955D01*
X1172082Y704023D01*
X1172218Y704159D01*
X1172353Y704226D01*
X1172489Y704362D01*
X1172625Y704430D01*
X1174252Y705582D01*
X1174387Y705650D01*
X1174862Y705989D01*
X1175879Y706464D01*
X1176421Y706599D01*
X1176658Y706836D01*
X1176726Y707108D01*
X1176964Y707345D01*
X1177099Y707413D01*
X1177506Y707684D01*
X1177641Y707752D01*
X1178929Y708362D01*
X1179608Y708633D01*
X1180082Y708836D01*
X1180523Y709006D01*
X1180896Y709108D01*
X1181370Y709243D01*
X1181641Y709311D01*
X1182116Y709379D01*
X1182760Y709413D01*
X1183506Y709345D01*
D02*
G37*
G36*
X1267875Y627706D02*
X1268084Y627637D01*
X1274650Y627532D01*
X1278403Y627463D01*
X1282364Y627393D01*
X1285838Y627324D01*
X1288757Y627255D01*
X1291467Y627185D01*
X1293691Y627115D01*
X1295706Y627046D01*
X1297443Y626976D01*
X1299042Y626907D01*
X1300501Y626837D01*
X1301752Y626768D01*
X1302933Y626699D01*
X1304045Y626629D01*
X1305018Y626560D01*
X1305921Y626490D01*
X1308214Y626282D01*
X1310090Y626073D01*
X1310646Y626004D01*
X1312523Y625726D01*
X1313357Y625587D01*
X1314746Y625309D01*
X1315302Y625170D01*
X1315650Y625100D01*
X1316032Y624996D01*
X1316310Y624927D01*
X1317005Y624718D01*
X1318950Y624093D01*
X1320410Y623676D01*
X1320966Y623537D01*
X1321417Y623433D01*
X1321765Y623363D01*
X1322182Y623293D01*
X1322529Y623224D01*
X1323085Y623155D01*
X1323710Y623085D01*
X1324683Y623015D01*
X1327081Y622981D01*
X1327289Y623050D01*
X1328957Y623120D01*
X1329165Y623189D01*
X1330277Y623259D01*
X1330486Y623328D01*
X1332362Y623537D01*
X1332640Y623606D01*
X1333370Y623711D01*
X1334273Y623850D01*
X1334690Y623919D01*
X1335593Y624058D01*
X1336427Y624197D01*
X1337331Y624336D01*
X1339242Y624579D01*
X1339520Y624649D01*
X1340527Y624753D01*
X1341430Y624822D01*
X1343202Y624857D01*
X1343411Y624788D01*
X1344731Y624718D01*
X1344940Y624649D01*
X1345669Y624544D01*
X1346503Y624405D01*
X1349978Y623711D01*
X1350256Y623641D01*
X1350603Y623571D01*
X1350881Y623502D01*
X1351229Y623433D01*
X1352896Y623015D01*
X1353278Y622911D01*
X1354251Y622633D01*
X1354946Y622425D01*
X1355606Y622182D01*
X1356788Y621765D01*
X1357552Y621487D01*
X1358942Y620931D01*
X1359324Y620757D01*
X1359811Y620549D01*
X1360714Y620132D01*
X1364536Y618186D01*
X1365300Y617769D01*
X1365926Y617422D01*
X1367385Y616588D01*
X1367941Y616240D01*
X1368566Y615893D01*
X1369122Y615545D01*
X1369261Y615476D01*
X1369817Y615128D01*
X1369956Y615059D01*
X1370512Y614712D01*
X1370651Y614642D01*
X1371207Y614295D01*
X1371346Y614225D01*
X1372110Y613739D01*
X1372249Y613669D01*
X1373014Y613183D01*
X1373152Y613113D01*
X1373570Y612835D01*
X1373709Y612766D01*
X1374195Y612418D01*
X1374334Y612349D01*
X1375758Y611411D01*
X1375863Y611306D01*
X1376002Y611237D01*
X1377357Y610229D01*
X1377461Y610125D01*
X1377600Y610056D01*
X1377878Y609778D01*
X1378017Y609708D01*
X1379094Y608631D01*
X1379164Y608492D01*
X1379303Y608353D01*
X1379372Y608214D01*
X1379650Y607797D01*
X1379824Y607346D01*
X1379893Y607067D01*
X1379963Y606720D01*
X1379997Y606060D01*
X1379928Y605852D01*
X1379824Y605261D01*
X1379476Y604288D01*
X1378886Y603280D01*
X1378156Y602551D01*
X1378017Y602481D01*
X1377600Y602203D01*
X1376905Y601925D01*
X1376349Y601786D01*
X1375376Y601648D01*
X1374091Y601752D01*
X1373396Y601891D01*
X1372562Y602099D01*
X1372215Y602238D01*
X1371450Y602516D01*
X1371103Y602655D01*
X1370338Y603003D01*
X1368531Y603975D01*
X1364814Y605886D01*
X1362521Y606998D01*
X1361478Y607485D01*
X1360575Y607902D01*
X1360088Y608110D01*
X1359463Y608388D01*
X1358977Y608596D01*
X1358629Y608735D01*
X1358143Y608944D01*
X1357101Y609361D01*
X1356649Y609534D01*
X1355884Y609813D01*
X1354043Y610403D01*
X1353348Y610611D01*
X1352861Y610751D01*
X1351194Y611168D01*
X1350013Y611376D01*
X1349735Y611446D01*
X1348553Y611584D01*
X1348275Y611654D01*
X1346746Y611723D01*
X1346052Y611793D01*
X1343584Y611689D01*
X1342890Y611619D01*
X1342264Y611550D01*
X1341361Y611411D01*
X1340527Y611272D01*
X1339832Y611133D01*
X1339554Y611063D01*
X1339207Y610994D01*
X1335871Y610160D01*
X1334829Y609951D01*
X1334551Y609882D01*
X1333717Y609743D01*
X1332814Y609604D01*
X1331702Y609465D01*
X1331007Y609396D01*
X1330243Y609326D01*
X1329270Y609256D01*
X1327741Y609187D01*
X1324718Y609152D01*
X1324510Y609222D01*
X1322216Y609291D01*
X1322008Y609361D01*
X1320792Y609465D01*
X1319680Y609604D01*
X1319263Y609673D01*
X1318360Y609813D01*
X1316970Y610091D01*
X1316692Y610160D01*
X1316310Y610264D01*
X1315754Y610403D01*
X1315059Y610611D01*
X1312696Y611376D01*
X1311306Y611723D01*
X1310820Y611793D01*
X1310542Y611862D01*
X1309361Y612001D01*
X1309083Y612071D01*
X1307589Y612175D01*
X1306408Y612245D01*
X1304740Y612314D01*
X1302308Y612384D01*
X1298625Y612453D01*
X1293413Y612523D01*
X1287645Y612592D01*
X1283406Y612662D01*
X1280140Y612731D01*
X1277569Y612801D01*
X1275485Y612870D01*
X1273886Y612940D01*
X1272496Y613009D01*
X1271315Y613078D01*
X1269369Y613217D01*
X1267841Y613356D01*
X1267146Y613426D01*
X1266590Y613495D01*
X1264713Y613773D01*
X1264297Y613843D01*
X1263254Y614051D01*
X1261864Y614399D01*
X1260266Y614955D01*
X1259919Y615094D01*
X1259536Y615267D01*
X1258355Y615893D01*
X1256931Y616831D01*
X1256826Y616935D01*
X1256687Y617005D01*
X1256549Y617144D01*
X1256409Y617213D01*
X1256270Y617352D01*
X1256131Y617422D01*
X1255854Y617699D01*
X1255715Y617769D01*
X1255367Y618116D01*
X1255228Y618186D01*
X1254012Y619402D01*
X1253943Y619541D01*
X1253804Y619680D01*
X1253734Y619819D01*
X1253595Y619958D01*
X1253525Y620097D01*
X1253248Y620583D01*
X1253039Y621070D01*
X1252900Y621556D01*
X1252831Y621834D01*
X1252761Y622529D01*
X1252831Y622807D01*
Y622876D01*
X1252935Y623398D01*
X1253143Y623954D01*
X1253456Y624544D01*
X1254116Y625413D01*
X1254498Y625795D01*
X1254568Y625934D01*
X1254811Y626108D01*
X1255159Y626455D01*
X1255297Y626525D01*
X1255437Y626664D01*
X1255575Y626733D01*
X1256131Y627081D01*
X1257243Y627428D01*
X1257730Y627498D01*
X1258008Y627567D01*
X1259120Y627637D01*
X1259398Y627706D01*
X1263428Y627776D01*
X1267875Y627706D01*
D02*
G37*
G36*
X1285565Y549230D02*
X1285780Y549158D01*
X1286245Y549051D01*
X1286532Y548979D01*
X1286925Y548872D01*
X1288034Y548478D01*
X1288607Y548264D01*
X1288965Y548120D01*
X1290253Y547548D01*
X1290647Y547369D01*
X1293438Y545938D01*
X1294082Y545580D01*
X1295084Y545007D01*
X1295657Y544649D01*
X1296158Y544363D01*
X1296730Y544005D01*
X1296873Y543934D01*
X1297303Y543647D01*
X1297446Y543576D01*
X1298269Y543039D01*
X1298305Y543003D01*
X1298448Y542932D01*
X1298949Y542574D01*
X1299450Y542287D01*
X1299951Y541929D01*
X1300094Y541858D01*
X1301096Y541142D01*
X1301239Y541071D01*
X1304639Y538601D01*
X1304961Y538351D01*
X1305104Y538279D01*
X1305248Y538136D01*
X1305391Y538065D01*
X1305534Y537922D01*
X1305677Y537850D01*
X1305820Y537707D01*
X1305963Y537635D01*
X1306106Y537492D01*
X1306250Y537420D01*
X1306464Y537206D01*
X1306607Y537134D01*
X1306822Y536919D01*
X1306965Y536848D01*
X1307180Y536633D01*
X1307323Y536562D01*
X1307538Y536347D01*
X1307681Y536275D01*
X1307824Y536132D01*
X1307967Y536061D01*
X1308182Y535846D01*
X1308325Y535774D01*
X1308611Y535488D01*
X1308755Y535417D01*
X1309041Y535130D01*
X1309184Y535058D01*
X1309470Y534772D01*
X1309613Y534701D01*
X1309900Y534414D01*
X1310043Y534343D01*
X1310401Y533985D01*
X1310544Y533913D01*
X1310973Y533484D01*
X1311117Y533413D01*
X1311546Y532983D01*
X1311689Y532912D01*
X1312262Y532339D01*
X1312405Y532267D01*
X1313264Y531408D01*
X1313407Y531337D01*
X1316806Y527937D01*
X1316878Y527794D01*
X1319812Y524860D01*
X1319884Y524717D01*
X1323928Y520673D01*
X1324071Y520601D01*
X1326003Y518669D01*
X1326147Y518597D01*
X1327220Y517524D01*
X1327363Y517452D01*
X1328079Y516736D01*
X1328222Y516665D01*
X1328795Y516092D01*
X1328938Y516021D01*
X1329367Y515591D01*
X1329510Y515520D01*
X1329940Y515090D01*
X1330083Y515018D01*
X1330441Y514661D01*
X1330584Y514589D01*
X1330870Y514303D01*
X1331013Y514231D01*
X1331300Y513945D01*
X1331443Y513873D01*
X1331657Y513659D01*
X1331801Y513587D01*
X1332015Y513372D01*
X1332159Y513301D01*
X1332373Y513086D01*
X1332516Y513014D01*
X1332731Y512800D01*
X1332874Y512728D01*
X1333017Y512585D01*
X1333161Y512513D01*
X1333304Y512370D01*
X1333447Y512299D01*
X1333590Y512156D01*
X1333733Y512084D01*
X1333876Y511941D01*
X1334019Y511869D01*
X1334163Y511726D01*
X1334306Y511655D01*
X1336310Y510223D01*
X1336453Y510152D01*
X1336954Y509794D01*
X1337097Y509722D01*
X1337598Y509364D01*
X1337741Y509293D01*
X1338528Y508792D01*
X1338671Y508720D01*
X1339101Y508434D01*
X1339244Y508362D01*
X1339817Y508005D01*
X1339960Y507933D01*
X1340533Y507575D01*
X1340676Y507503D01*
X1342178Y506644D01*
X1343467Y505929D01*
X1345041Y505070D01*
X1347189Y503925D01*
X1348548Y503209D01*
X1352843Y500990D01*
X1354203Y500275D01*
X1355777Y499416D01*
X1356421Y499058D01*
X1356922Y498772D01*
X1357566Y498414D01*
X1358139Y498056D01*
X1358926Y497626D01*
X1359427Y497340D01*
X1360000Y496982D01*
X1360143Y496911D01*
X1360716Y496553D01*
X1360859Y496481D01*
X1361431Y496123D01*
X1361575Y496052D01*
X1362004Y495766D01*
X1362147Y495694D01*
X1362720Y495336D01*
X1362863Y495265D01*
X1363292Y494978D01*
X1363435Y494907D01*
X1363936Y494549D01*
X1364437Y494263D01*
X1365905Y493296D01*
X1366477Y492939D01*
X1368195Y491793D01*
X1368947Y491257D01*
X1369090Y491185D01*
X1372489Y488716D01*
X1372919Y488430D01*
X1373098Y488251D01*
X1373241Y488179D01*
X1373384Y488036D01*
X1373527Y487964D01*
X1373670Y487821D01*
X1373813Y487750D01*
X1374028Y487535D01*
X1374171Y487463D01*
X1374314Y487320D01*
X1374457Y487249D01*
X1374672Y487034D01*
X1374815Y486962D01*
X1375030Y486748D01*
X1375173Y486676D01*
X1375388Y486461D01*
X1375531Y486390D01*
X1375817Y486103D01*
X1375960Y486032D01*
X1376247Y485746D01*
X1376390Y485674D01*
X1376819Y485245D01*
X1376963Y485173D01*
X1377535Y484600D01*
X1377678Y484529D01*
X1378286Y483921D01*
X1378358Y483777D01*
X1378716Y483420D01*
X1378788Y483276D01*
X1379002Y483062D01*
X1379074Y482918D01*
X1379289Y482704D01*
X1379360Y482561D01*
X1380004Y481630D01*
X1380076Y481487D01*
X1380362Y481058D01*
X1381650Y478409D01*
X1381794Y478052D01*
X1382223Y476692D01*
X1382295Y476405D01*
X1382402Y475940D01*
X1382509Y474974D01*
X1382438Y473900D01*
X1382295Y473543D01*
X1381794Y472612D01*
X1381293Y471968D01*
X1380970Y471646D01*
X1380827Y471574D01*
X1380684Y471431D01*
X1380541Y471360D01*
X1380040Y471073D01*
X1379539Y470859D01*
X1379038Y470715D01*
X1378179Y470572D01*
X1375960Y470644D01*
X1375746Y470715D01*
X1374923Y470894D01*
X1374350Y471038D01*
X1372919Y471538D01*
X1372561Y471682D01*
X1371953Y472004D01*
X1371308Y472362D01*
X1370807Y472648D01*
X1370235Y473006D01*
X1370092Y473077D01*
X1369519Y473435D01*
X1369376Y473507D01*
X1368947Y473793D01*
X1368803Y473865D01*
X1368302Y474223D01*
X1368159Y474294D01*
X1366692Y475260D01*
X1364545Y476692D01*
X1364437Y476799D01*
X1364294Y476871D01*
X1363793Y477228D01*
X1363650Y477300D01*
X1363507Y477443D01*
X1363364Y477515D01*
X1362362Y478231D01*
X1362219Y478302D01*
X1362076Y478445D01*
X1361932Y478517D01*
X1361431Y478875D01*
X1361288Y478946D01*
X1360787Y479304D01*
X1360644Y479376D01*
X1360143Y479733D01*
X1360000Y479805D01*
X1359499Y480163D01*
X1359356Y480235D01*
X1356994Y481738D01*
X1356851Y481809D01*
X1356421Y482095D01*
X1356278Y482167D01*
X1355849Y482453D01*
X1355706Y482525D01*
X1355133Y482883D01*
X1354990Y482954D01*
X1354561Y483241D01*
X1354417Y483312D01*
X1353845Y483670D01*
X1353702Y483742D01*
X1353129Y484099D01*
X1352485Y484457D01*
X1351912Y484815D01*
X1351268Y485173D01*
X1350696Y485531D01*
X1349908Y485960D01*
X1347904Y487105D01*
X1346616Y487821D01*
X1345829Y488251D01*
X1344898Y488752D01*
X1343682Y489396D01*
X1341892Y490326D01*
X1340676Y490970D01*
X1338528Y492115D01*
X1336954Y492974D01*
X1336453Y493261D01*
X1335165Y493976D01*
X1333662Y494835D01*
X1333089Y495193D01*
X1332445Y495551D01*
X1331872Y495909D01*
X1331729Y495980D01*
X1330942Y496481D01*
X1330799Y496553D01*
X1330011Y497054D01*
X1329868Y497125D01*
X1329439Y497412D01*
X1329296Y497483D01*
X1328795Y497841D01*
X1328651Y497913D01*
X1327184Y498879D01*
X1326755Y499165D01*
X1326648Y499273D01*
X1326504Y499344D01*
X1326003Y499702D01*
X1325860Y499774D01*
X1323964Y501169D01*
X1323713Y501348D01*
X1322818Y502028D01*
X1322568Y502207D01*
X1322425Y502350D01*
X1322282Y502422D01*
X1322067Y502637D01*
X1321924Y502708D01*
X1321709Y502923D01*
X1321566Y502994D01*
X1321351Y503209D01*
X1321208Y503281D01*
X1320993Y503495D01*
X1320850Y503567D01*
X1320635Y503782D01*
X1320492Y503853D01*
X1320134Y504211D01*
X1319991Y504283D01*
X1319633Y504640D01*
X1319490Y504712D01*
X1319132Y505070D01*
X1318989Y505142D01*
X1318560Y505571D01*
X1318417Y505642D01*
X1317701Y506358D01*
X1317558Y506430D01*
X1316556Y507432D01*
X1316413Y507503D01*
X1313872Y510044D01*
X1313800Y510187D01*
X1312727Y511261D01*
X1312655Y511404D01*
X1311939Y512120D01*
X1311868Y512263D01*
X1311295Y512836D01*
X1311224Y512979D01*
X1310794Y513408D01*
X1310723Y513551D01*
X1310293Y513981D01*
X1310222Y514124D01*
X1309792Y514553D01*
X1309721Y514697D01*
X1309363Y515054D01*
X1309291Y515197D01*
X1309005Y515484D01*
X1308933Y515627D01*
X1308576Y515985D01*
X1308504Y516128D01*
X1308218Y516414D01*
X1308146Y516557D01*
X1307860Y516843D01*
X1307788Y516987D01*
X1307502Y517273D01*
X1307430Y517416D01*
X1307144Y517702D01*
X1307073Y517846D01*
X1306858Y518060D01*
X1306786Y518203D01*
X1306428Y518561D01*
X1306357Y518704D01*
X1305999Y519062D01*
X1305928Y519205D01*
X1305570Y519563D01*
X1305498Y519706D01*
X1304997Y520207D01*
X1304926Y520351D01*
X1304425Y520852D01*
X1304353Y520995D01*
X1303565Y521782D01*
X1303494Y521925D01*
X1299951Y525468D01*
X1299808Y525539D01*
X1299092Y526255D01*
X1298949Y526327D01*
X1298520Y526756D01*
X1298377Y526828D01*
X1297947Y527257D01*
X1297804Y527329D01*
X1297518Y527615D01*
X1297374Y527687D01*
X1297088Y527973D01*
X1296945Y528045D01*
X1296659Y528331D01*
X1296516Y528402D01*
X1296301Y528617D01*
X1296158Y528689D01*
X1295943Y528903D01*
X1295800Y528975D01*
X1295585Y529190D01*
X1295442Y529261D01*
X1295299Y529404D01*
X1295156Y529476D01*
X1295013Y529619D01*
X1294870Y529691D01*
X1294655Y529905D01*
X1294512Y529977D01*
X1294369Y530120D01*
X1294226Y530192D01*
X1294082Y530335D01*
X1293939Y530406D01*
X1293796Y530550D01*
X1293653Y530621D01*
X1293510Y530764D01*
X1293367Y530836D01*
X1291363Y532267D01*
X1291219Y532339D01*
X1291076Y532482D01*
X1290933Y532554D01*
X1290432Y532912D01*
X1290289Y532983D01*
X1289788Y533341D01*
X1289645Y533413D01*
X1289144Y533770D01*
X1289001Y533842D01*
X1288500Y534200D01*
X1288357Y534271D01*
X1287855Y534629D01*
X1287354Y534915D01*
X1286853Y535273D01*
X1286710Y535345D01*
X1286209Y535703D01*
X1286066Y535774D01*
X1285565Y536132D01*
X1285422Y536204D01*
X1284921Y536562D01*
X1284778Y536633D01*
X1284277Y536991D01*
X1283776Y537277D01*
X1283633Y537420D01*
X1283490Y537492D01*
X1282989Y537850D01*
X1282845Y537922D01*
X1281199Y539138D01*
X1280806Y539460D01*
X1280698Y539568D01*
X1280555Y539639D01*
X1279804Y540391D01*
X1279732Y540534D01*
X1279589Y540677D01*
X1279517Y540820D01*
X1279231Y541250D01*
X1278873Y542037D01*
X1278658Y542538D01*
X1278480Y543003D01*
X1278301Y543611D01*
X1278158Y544184D01*
X1278122Y544792D01*
X1278193Y545222D01*
X1278336Y545580D01*
X1278945Y546617D01*
X1279088Y546761D01*
X1279159Y546904D01*
X1279374Y547118D01*
X1279446Y547262D01*
X1279768Y547584D01*
X1279911Y547655D01*
X1280197Y547942D01*
X1280341Y548013D01*
X1280484Y548156D01*
X1280627Y548228D01*
X1281271Y548586D01*
X1281915Y548872D01*
X1282917Y549158D01*
X1284134Y549302D01*
X1285565Y549230D01*
D02*
G37*
G36*
X1036645Y-285724D02*
X1037755D01*
Y-286834D01*
X1041086D01*
Y-287944D01*
X1042197D01*
Y-289055D01*
X1043307D01*
Y-290165D01*
X1044417D01*
Y-291275D01*
X1045528D01*
Y-292385D01*
Y-293496D01*
X1046638D01*
Y-294606D01*
Y-295716D01*
X1047748D01*
Y-296827D01*
X1048859D01*
Y-297937D01*
X1049969D01*
Y-299047D01*
Y-300158D01*
Y-301268D01*
X1051079D01*
Y-302378D01*
X1052190D01*
Y-303489D01*
Y-304599D01*
X1053300D01*
Y-305709D01*
Y-306820D01*
X1054410D01*
Y-307930D01*
X1055521D01*
Y-309040D01*
X1056631D01*
Y-310151D01*
X1055521D01*
Y-311261D01*
X1056631D01*
Y-312371D01*
X1057741D01*
Y-313481D01*
X1058851D01*
Y-314592D01*
X1057741D01*
Y-315702D01*
X1059962D01*
Y-316812D01*
Y-317923D01*
X1061072D01*
Y-319033D01*
X1062182D01*
Y-320143D01*
X1063293D01*
Y-321254D01*
X1062182D01*
Y-322364D01*
X1063293D01*
Y-323474D01*
X1064403D01*
Y-324585D01*
X1065513D01*
Y-325695D01*
X1064403D01*
Y-326805D01*
X1065513D01*
Y-327916D01*
X1066624D01*
Y-329026D01*
X1067734D01*
Y-330136D01*
Y-331246D01*
X1068844D01*
Y-332357D01*
Y-333467D01*
X1069955D01*
Y-334577D01*
X1071065D01*
Y-335688D01*
Y-336798D01*
Y-337908D01*
X1072175D01*
Y-339019D01*
X1073286D01*
Y-340129D01*
X1074396D01*
Y-341239D01*
Y-342350D01*
Y-343460D01*
X1075506D01*
Y-344570D01*
X1076617D01*
Y-345681D01*
Y-346791D01*
X1077727D01*
Y-347901D01*
Y-349012D01*
X1078837D01*
Y-350122D01*
X1079947D01*
Y-351232D01*
X1081058D01*
Y-352342D01*
X1079947D01*
Y-353453D01*
X1081058D01*
Y-354563D01*
X1082168D01*
Y-355673D01*
X1083278D01*
Y-356784D01*
Y-357894D01*
Y-359004D01*
X1084389D01*
Y-360115D01*
X1085499D01*
Y-361225D01*
X1086609D01*
Y-362335D01*
Y-363446D01*
Y-364556D01*
X1087720D01*
Y-365666D01*
X1088830D01*
Y-366776D01*
X1089940D01*
Y-367887D01*
X1088830D01*
Y-368997D01*
X1089940D01*
Y-370108D01*
X1091051D01*
Y-371218D01*
X1092161D01*
Y-372328D01*
Y-373438D01*
X1093271D01*
Y-374549D01*
Y-375659D01*
X1094382D01*
Y-376769D01*
Y-377880D01*
X1095492D01*
Y-378990D01*
Y-380100D01*
X1096602D01*
Y-381211D01*
X1097713D01*
Y-382321D01*
X1098823D01*
Y-383431D01*
Y-384542D01*
Y-385652D01*
X1099933D01*
Y-386762D01*
X1101043D01*
Y-387873D01*
Y-388983D01*
X1102154D01*
Y-390093D01*
Y-391204D01*
X1103264D01*
Y-392314D01*
X1104374D01*
Y-393424D01*
Y-394534D01*
Y-395645D01*
X1105485D01*
Y-396755D01*
X1106595D01*
Y-397865D01*
X1107705D01*
Y-398976D01*
X1106595D01*
Y-400086D01*
X1107705D01*
Y-401196D01*
X1108816D01*
Y-402307D01*
X1109926D01*
Y-403417D01*
Y-404527D01*
X1111036D01*
Y-405638D01*
Y-406748D01*
X1112147D01*
Y-407858D01*
X1113257D01*
Y-408969D01*
Y-410079D01*
Y-411189D01*
X1114367D01*
Y-412300D01*
X1115478D01*
Y-413410D01*
X1116588D01*
Y-414520D01*
Y-415630D01*
Y-416741D01*
X1117698D01*
Y-417851D01*
X1118809D01*
Y-418961D01*
Y-420072D01*
X1119919D01*
Y-421182D01*
Y-422292D01*
X1121029D01*
Y-423403D01*
X1122139D01*
Y-424513D01*
X1123250D01*
Y-425623D01*
X1122139D01*
Y-426734D01*
X1123250D01*
Y-427844D01*
X1124360D01*
Y-428954D01*
X1125470D01*
Y-430065D01*
Y-431175D01*
X1126581D01*
Y-432285D01*
Y-433396D01*
X1127691D01*
Y-434506D01*
X1128801D01*
Y-435616D01*
X1129912D01*
Y-436726D01*
X1128801D01*
Y-437837D01*
X1129912D01*
Y-438947D01*
X1131022D01*
Y-440057D01*
X1132132D01*
Y-441168D01*
X1131022D01*
Y-442278D01*
X1132132D01*
Y-443388D01*
X1133243D01*
Y-444499D01*
X1134353D01*
Y-445609D01*
Y-446719D01*
X1135463D01*
Y-447830D01*
Y-448940D01*
X1136574D01*
Y-450050D01*
X1137684D01*
Y-451161D01*
Y-452271D01*
Y-453381D01*
X1138794D01*
Y-454491D01*
X1139905D01*
Y-455602D01*
X1141015D01*
Y-456712D01*
Y-457822D01*
Y-458933D01*
X1142125D01*
Y-460043D01*
X1143236D01*
Y-461153D01*
Y-462264D01*
X1144346D01*
Y-463374D01*
Y-464484D01*
X1145456D01*
Y-465595D01*
X1146566D01*
Y-466705D01*
X1147677D01*
Y-467815D01*
X1146566D01*
Y-468926D01*
X1147677D01*
Y-470036D01*
X1148787D01*
Y-471146D01*
X1149897D01*
Y-472257D01*
Y-473367D01*
X1151008D01*
Y-474477D01*
Y-475587D01*
X1152118D01*
Y-476698D01*
X1153228D01*
Y-477808D01*
Y-478918D01*
Y-480029D01*
X1154339D01*
Y-481139D01*
X1155449D01*
Y-482249D01*
X1156559D01*
Y-483360D01*
X1155449D01*
Y-484470D01*
X1156559D01*
Y-485580D01*
X1157670D01*
Y-486691D01*
X1158780D01*
Y-487801D01*
Y-488911D01*
X1159890D01*
Y-490022D01*
Y-491132D01*
X1161001D01*
Y-492242D01*
Y-493353D01*
X1162111D01*
Y-494463D01*
Y-495573D01*
X1163221D01*
Y-496683D01*
X1164332D01*
Y-497794D01*
X1165442D01*
Y-498904D01*
Y-500014D01*
Y-501125D01*
X1166552D01*
Y-502235D01*
X1167662D01*
Y-503345D01*
Y-504456D01*
X1168773D01*
Y-505566D01*
Y-506676D01*
X1169883D01*
Y-507787D01*
X1170993D01*
Y-508897D01*
X1172104D01*
Y-510007D01*
X1170993D01*
Y-511118D01*
X1172104D01*
Y-512228D01*
X1173214D01*
Y-513338D01*
X1174324D01*
Y-514448D01*
X1173214D01*
Y-515559D01*
X1175435D01*
Y-516669D01*
Y-517779D01*
X1176545D01*
Y-518890D01*
Y-520000D01*
X1177655D01*
Y-521110D01*
Y-522221D01*
X1178766D01*
Y-523331D01*
X1179876D01*
Y-524441D01*
X1180986D01*
Y-525552D01*
X1179876D01*
Y-526662D01*
X1180986D01*
Y-527772D01*
X1182097D01*
Y-528883D01*
X1183207D01*
Y-529993D01*
Y-531103D01*
Y-532213D01*
X1184317D01*
Y-533324D01*
X1185428D01*
Y-534434D01*
Y-535544D01*
X1186538D01*
Y-536655D01*
Y-537765D01*
X1187648D01*
Y-538875D01*
X1188758D01*
Y-539986D01*
X1189869D01*
Y-541096D01*
X1188758D01*
Y-542206D01*
X1189869D01*
Y-543317D01*
X1190979D01*
Y-544427D01*
X1192089D01*
Y-545537D01*
Y-546648D01*
X1193200D01*
Y-547758D01*
Y-548868D01*
X1194310D01*
Y-549979D01*
X1195420D01*
Y-551089D01*
X1196531D01*
Y-552199D01*
X1195420D01*
Y-553309D01*
X1196531D01*
Y-554420D01*
X1197641D01*
Y-555530D01*
X1198751D01*
Y-556640D01*
X1197641D01*
Y-557751D01*
X1198751D01*
Y-558861D01*
X1199862D01*
Y-559971D01*
X1200972D01*
Y-561082D01*
Y-562192D01*
X1202082D01*
Y-563302D01*
Y-564413D01*
X1203193D01*
Y-565523D01*
X1204303D01*
Y-566633D01*
Y-567744D01*
Y-568854D01*
X1205413D01*
Y-569964D01*
X1206524D01*
Y-571075D01*
X1207634D01*
Y-572185D01*
Y-573295D01*
Y-574405D01*
X1208744D01*
Y-575516D01*
X1209854D01*
Y-576626D01*
Y-577736D01*
X1210965D01*
Y-578847D01*
Y-579957D01*
X1212075D01*
Y-581067D01*
X1213185D01*
Y-582178D01*
X1214296D01*
Y-583288D01*
X1213185D01*
Y-584398D01*
X1214296D01*
Y-585509D01*
X1215406D01*
Y-586619D01*
X1216516D01*
Y-587729D01*
Y-588840D01*
X1217627D01*
Y-589950D01*
Y-591060D01*
X1218737D01*
Y-592171D01*
X1219847D01*
Y-593281D01*
Y-594391D01*
Y-595501D01*
X1220958D01*
Y-596612D01*
X1222068D01*
Y-597722D01*
X1223178D01*
Y-598832D01*
X1222068D01*
Y-599943D01*
X1223178D01*
Y-601053D01*
X1224289D01*
Y-602163D01*
X1225399D01*
Y-603274D01*
Y-604384D01*
X1226509D01*
Y-605494D01*
Y-606605D01*
X1227620D01*
Y-607715D01*
Y-608825D01*
X1228730D01*
Y-609936D01*
Y-611046D01*
X1229840D01*
Y-612156D01*
X1230950D01*
Y-613267D01*
X1232061D01*
Y-614377D01*
Y-615487D01*
Y-616597D01*
X1233171D01*
Y-617708D01*
X1234281D01*
Y-618818D01*
Y-619928D01*
X1235392D01*
Y-621039D01*
Y-622149D01*
X1236502D01*
Y-623259D01*
X1237612D01*
Y-624370D01*
X1238723D01*
Y-625480D01*
X1237612D01*
Y-626590D01*
X1238723D01*
Y-627701D01*
X1239833D01*
Y-628811D01*
X1240943D01*
Y-629921D01*
X1239833D01*
Y-631032D01*
X1242054D01*
Y-632142D01*
Y-633252D01*
X1243164D01*
Y-634363D01*
X1244274D01*
Y-635473D01*
X1245384D01*
Y-636583D01*
X1244274D01*
Y-637693D01*
X1245384D01*
Y-638804D01*
X1246495D01*
Y-639914D01*
X1247605D01*
Y-641024D01*
X1246495D01*
Y-642135D01*
X1247605D01*
Y-643245D01*
X1248716D01*
Y-644355D01*
X1249826D01*
Y-645466D01*
Y-646576D01*
Y-647686D01*
X1250936D01*
Y-648797D01*
X1252046D01*
Y-649907D01*
X1253157D01*
Y-651017D01*
Y-652128D01*
Y-653238D01*
X1254267D01*
Y-654348D01*
X1255377D01*
Y-655459D01*
X1256488D01*
Y-656569D01*
Y-657679D01*
Y-658789D01*
X1257598D01*
Y-659900D01*
X1258708D01*
Y-661010D01*
Y-662120D01*
X1259819D01*
Y-663231D01*
Y-664341D01*
X1260929D01*
Y-665451D01*
X1262039D01*
Y-666562D01*
X1263150D01*
Y-667672D01*
X1262039D01*
Y-668782D01*
X1263150D01*
Y-669893D01*
X1264260D01*
Y-671003D01*
X1265370D01*
Y-672113D01*
Y-673224D01*
Y-674334D01*
X1266480D01*
Y-675444D01*
X1267591D01*
Y-676555D01*
X1268701D01*
Y-677665D01*
Y-678775D01*
Y-679885D01*
X1269812D01*
Y-680996D01*
X1270922D01*
Y-682106D01*
Y-683216D01*
Y-684327D01*
X1272032D01*
Y-685437D01*
X1273142D01*
Y-686547D01*
X1274253D01*
Y-687658D01*
Y-688768D01*
Y-689878D01*
X1275363D01*
Y-690989D01*
X1276473D01*
Y-692099D01*
Y-693209D01*
X1277584D01*
Y-694320D01*
Y-695430D01*
X1278694D01*
Y-696540D01*
X1279804D01*
Y-697651D01*
X1280915D01*
Y-698761D01*
Y-699871D01*
Y-700981D01*
X1282025D01*
Y-702092D01*
X1283135D01*
Y-703202D01*
Y-704312D01*
X1284246D01*
Y-705423D01*
Y-706533D01*
X1285356D01*
Y-707643D01*
X1286466D01*
Y-708754D01*
Y-709864D01*
Y-710974D01*
X1287576D01*
Y-712085D01*
X1288687D01*
Y-713195D01*
X1289797D01*
Y-714305D01*
X1288687D01*
Y-715416D01*
X1289797D01*
Y-716526D01*
X1290908D01*
Y-717636D01*
X1292018D01*
Y-718746D01*
Y-719857D01*
X1294238D01*
Y-720967D01*
X1293128D01*
Y-722077D01*
X1294238D01*
Y-723188D01*
X1295349D01*
Y-724298D01*
Y-725408D01*
Y-726519D01*
X1296459D01*
Y-727629D01*
X1297569D01*
Y-728739D01*
X1298680D01*
Y-729850D01*
Y-730960D01*
Y-732070D01*
X1299790D01*
Y-733181D01*
X1300900D01*
Y-734291D01*
Y-735401D01*
X1302011D01*
Y-736512D01*
Y-737622D01*
X1303121D01*
Y-738732D01*
X1304231D01*
Y-739842D01*
X1305342D01*
Y-740953D01*
X1304231D01*
Y-742063D01*
X1305342D01*
Y-743173D01*
X1306452D01*
Y-744284D01*
X1307562D01*
Y-745394D01*
X1306452D01*
Y-746504D01*
X1308672D01*
Y-747615D01*
Y-748725D01*
X1309783D01*
Y-749835D01*
X1310893D01*
Y-750946D01*
Y-752056D01*
Y-753166D01*
X1312004D01*
Y-754277D01*
X1313114D01*
Y-755387D01*
X1314224D01*
Y-756497D01*
X1313114D01*
Y-757608D01*
X1314224D01*
Y-758718D01*
X1315334D01*
Y-759828D01*
X1316445D01*
Y-760938D01*
Y-762049D01*
Y-763159D01*
X1317555D01*
Y-764269D01*
X1318665D01*
Y-765380D01*
X1319776D01*
Y-766490D01*
Y-767600D01*
Y-768711D01*
X1320886D01*
Y-769821D01*
X1321996D01*
Y-770931D01*
X1323107D01*
Y-772042D01*
Y-773152D01*
Y-774262D01*
X1324217D01*
Y-775373D01*
X1325327D01*
Y-776483D01*
Y-777593D01*
X1326438D01*
Y-778704D01*
Y-779814D01*
X1327548D01*
Y-780924D01*
X1328658D01*
Y-782034D01*
X1329768D01*
Y-783145D01*
X1328658D01*
Y-784255D01*
X1329768D01*
Y-785365D01*
X1330879D01*
Y-786476D01*
X1331989D01*
Y-787586D01*
X1330879D01*
Y-788696D01*
X1331989D01*
Y-789807D01*
X1333099D01*
Y-790917D01*
X1334210D01*
Y-792027D01*
X1335320D01*
Y-793138D01*
Y-794248D01*
Y-795358D01*
X1336430D01*
Y-796469D01*
X1337541D01*
Y-797579D01*
Y-798689D01*
Y-799800D01*
X1338651D01*
Y-800910D01*
X1339761D01*
Y-802020D01*
X1340872D01*
Y-803130D01*
Y-804241D01*
Y-805351D01*
X1341982D01*
Y-806462D01*
X1343092D01*
Y-807572D01*
Y-808682D01*
X1344203D01*
Y-809792D01*
Y-810903D01*
X1345313D01*
Y-812013D01*
X1346423D01*
Y-813123D01*
X1347534D01*
Y-814234D01*
Y-815344D01*
Y-816454D01*
X1348644D01*
Y-817565D01*
X1349754D01*
Y-818675D01*
Y-819785D01*
X1350864D01*
Y-820896D01*
Y-822006D01*
X1351975D01*
Y-823116D01*
X1353085D01*
Y-824226D01*
X1354195D01*
Y-825337D01*
X1353085D01*
Y-826447D01*
X1354195D01*
Y-827558D01*
X1355306D01*
Y-828668D01*
X1356416D01*
Y-829778D01*
X1355306D01*
Y-830888D01*
X1356416D01*
Y-831999D01*
X1357526D01*
Y-833109D01*
X1358637D01*
Y-834219D01*
Y-835330D01*
X1359747D01*
Y-836440D01*
Y-837550D01*
X1360857D01*
Y-838661D01*
X1361968D01*
Y-839771D01*
Y-840881D01*
Y-841992D01*
X1363078D01*
Y-843102D01*
Y-844212D01*
Y-845322D01*
X1364188D01*
Y-846433D01*
Y-847543D01*
Y-848654D01*
Y-849764D01*
Y-850874D01*
X1363078D01*
Y-851984D01*
Y-853095D01*
Y-854205D01*
X1361968D01*
Y-855315D01*
X1363078D01*
Y-856426D01*
X1361968D01*
Y-857536D01*
X1360857D01*
Y-858646D01*
X1359747D01*
Y-859757D01*
X1358637D01*
Y-860867D01*
X1357526D01*
Y-861977D01*
X1356416D01*
Y-863088D01*
X1355306D01*
Y-864198D01*
X1351975D01*
Y-865308D01*
X1348644D01*
Y-866418D01*
X1347534D01*
Y-865308D01*
X1346423D01*
Y-866418D01*
X1345313D01*
Y-865308D01*
X1344203D01*
Y-866418D01*
X1343092D01*
Y-865308D01*
X1341982D01*
Y-866418D01*
X1340872D01*
Y-865308D01*
X1339761D01*
Y-866418D01*
X1338651D01*
Y-865308D01*
X1337541D01*
Y-866418D01*
X1336430D01*
Y-865308D01*
X1335320D01*
Y-866418D01*
X1334210D01*
Y-865308D01*
X1333099D01*
Y-866418D01*
X1331989D01*
Y-865308D01*
X1330879D01*
Y-866418D01*
X1329768D01*
Y-865308D01*
X1328658D01*
Y-866418D01*
X1327548D01*
Y-865308D01*
X1326438D01*
Y-866418D01*
X1325327D01*
Y-865308D01*
X1324217D01*
Y-866418D01*
X1323107D01*
Y-865308D01*
X1321996D01*
Y-866418D01*
X1320886D01*
Y-865308D01*
X1319776D01*
Y-866418D01*
X1318665D01*
Y-865308D01*
X1317555D01*
Y-866418D01*
X1316445D01*
Y-865308D01*
X1315334D01*
Y-866418D01*
X1314224D01*
Y-865308D01*
X1313114D01*
Y-866418D01*
X1312004D01*
Y-865308D01*
X1310893D01*
Y-866418D01*
X1309783D01*
Y-865308D01*
X1308672D01*
Y-866418D01*
X1307562D01*
Y-865308D01*
X1306452D01*
Y-866418D01*
X1305342D01*
Y-865308D01*
X1304231D01*
Y-866418D01*
X1303121D01*
Y-865308D01*
X1302011D01*
Y-866418D01*
X1300900D01*
Y-865308D01*
X1299790D01*
Y-866418D01*
X1298680D01*
Y-865308D01*
X1297569D01*
Y-866418D01*
X1296459D01*
Y-865308D01*
X1295349D01*
Y-866418D01*
X1294238D01*
Y-865308D01*
X1293128D01*
Y-866418D01*
X1292018D01*
Y-865308D01*
X1290908D01*
Y-866418D01*
X1289797D01*
Y-865308D01*
X1288687D01*
Y-866418D01*
X1287576D01*
Y-865308D01*
X1286466D01*
Y-866418D01*
X1285356D01*
Y-865308D01*
X1284246D01*
Y-866418D01*
X1283135D01*
Y-865308D01*
X1282025D01*
Y-866418D01*
X1280915D01*
Y-865308D01*
X1279804D01*
Y-866418D01*
X1278694D01*
Y-865308D01*
X1277584D01*
Y-866418D01*
X1276473D01*
Y-865308D01*
X1275363D01*
Y-866418D01*
X1274253D01*
Y-865308D01*
X1273142D01*
Y-866418D01*
X1272032D01*
Y-865308D01*
X1270922D01*
Y-866418D01*
X1269812D01*
Y-865308D01*
X1268701D01*
Y-866418D01*
X1267591D01*
Y-865308D01*
X1266480D01*
Y-866418D01*
X1265370D01*
Y-865308D01*
X1264260D01*
Y-866418D01*
X1263150D01*
Y-865308D01*
X1262039D01*
Y-866418D01*
X1260929D01*
Y-865308D01*
X1259819D01*
Y-866418D01*
X1258708D01*
Y-865308D01*
X1257598D01*
Y-866418D01*
X1256488D01*
Y-865308D01*
X1255377D01*
Y-866418D01*
X1254267D01*
Y-865308D01*
X1253157D01*
Y-866418D01*
X1252046D01*
Y-865308D01*
X1250936D01*
Y-866418D01*
X1249826D01*
Y-865308D01*
X1248716D01*
Y-866418D01*
X1247605D01*
Y-865308D01*
X1246495D01*
Y-866418D01*
X1245384D01*
Y-865308D01*
X1244274D01*
Y-866418D01*
X1243164D01*
Y-865308D01*
X1242054D01*
Y-866418D01*
X1240943D01*
Y-865308D01*
X1239833D01*
Y-866418D01*
X1238723D01*
Y-865308D01*
X1237612D01*
Y-866418D01*
X1236502D01*
Y-865308D01*
X1235392D01*
Y-866418D01*
X1234281D01*
Y-865308D01*
X1233171D01*
Y-866418D01*
X1232061D01*
Y-865308D01*
X1230950D01*
Y-866418D01*
X1229840D01*
Y-865308D01*
X1228730D01*
Y-866418D01*
X1227620D01*
Y-865308D01*
X1226509D01*
Y-866418D01*
X1225399D01*
Y-865308D01*
X1224289D01*
Y-866418D01*
X1223178D01*
Y-865308D01*
X1222068D01*
Y-866418D01*
X1220958D01*
Y-865308D01*
X1219847D01*
Y-866418D01*
X1218737D01*
Y-865308D01*
X1217627D01*
Y-866418D01*
X1216516D01*
Y-865308D01*
X1215406D01*
Y-866418D01*
X1214296D01*
Y-865308D01*
X1213185D01*
Y-866418D01*
X1212075D01*
Y-865308D01*
X1210965D01*
Y-866418D01*
X1209854D01*
Y-865308D01*
X1208744D01*
Y-866418D01*
X1207634D01*
Y-865308D01*
X1206524D01*
Y-866418D01*
X1205413D01*
Y-865308D01*
X1204303D01*
Y-866418D01*
X1203193D01*
Y-865308D01*
X1202082D01*
Y-866418D01*
X1200972D01*
Y-865308D01*
X1199862D01*
Y-866418D01*
X1198751D01*
Y-865308D01*
X1197641D01*
Y-866418D01*
X1196531D01*
Y-865308D01*
X1195420D01*
Y-866418D01*
X1194310D01*
Y-865308D01*
X1193200D01*
Y-866418D01*
X1192089D01*
Y-865308D01*
X1190979D01*
Y-866418D01*
X1189869D01*
Y-865308D01*
X1188758D01*
Y-866418D01*
X1187648D01*
Y-865308D01*
X1186538D01*
Y-866418D01*
X1185428D01*
Y-865308D01*
X1184317D01*
Y-866418D01*
X1183207D01*
Y-865308D01*
X1182097D01*
Y-866418D01*
X1180986D01*
Y-865308D01*
X1179876D01*
Y-866418D01*
X1178766D01*
Y-865308D01*
X1177655D01*
Y-866418D01*
X1176545D01*
Y-865308D01*
X1175435D01*
Y-866418D01*
X1174324D01*
Y-865308D01*
X1173214D01*
Y-866418D01*
X1172104D01*
Y-865308D01*
X1170993D01*
Y-866418D01*
X1169883D01*
Y-865308D01*
X1168773D01*
Y-866418D01*
X1167662D01*
Y-865308D01*
X1166552D01*
Y-866418D01*
X1165442D01*
Y-865308D01*
X1164332D01*
Y-866418D01*
X1163221D01*
Y-865308D01*
X1162111D01*
Y-866418D01*
X1161001D01*
Y-865308D01*
X1159890D01*
Y-866418D01*
X1158780D01*
Y-865308D01*
X1157670D01*
Y-866418D01*
X1156559D01*
Y-865308D01*
X1155449D01*
Y-866418D01*
X1154339D01*
Y-865308D01*
X1153228D01*
Y-866418D01*
X1152118D01*
Y-865308D01*
X1151008D01*
Y-866418D01*
X1149897D01*
Y-865308D01*
X1148787D01*
Y-866418D01*
X1147677D01*
Y-865308D01*
X1146566D01*
Y-866418D01*
X1145456D01*
Y-865308D01*
X1144346D01*
Y-866418D01*
X1143236D01*
Y-865308D01*
X1142125D01*
Y-866418D01*
X1141015D01*
Y-865308D01*
X1139905D01*
Y-866418D01*
X1138794D01*
Y-865308D01*
X1137684D01*
Y-866418D01*
X1136574D01*
Y-865308D01*
X1135463D01*
Y-866418D01*
X1134353D01*
Y-865308D01*
X1133243D01*
Y-866418D01*
X1132132D01*
Y-865308D01*
X1131022D01*
Y-866418D01*
X1129912D01*
Y-865308D01*
X1128801D01*
Y-866418D01*
X1127691D01*
Y-865308D01*
X1126581D01*
Y-866418D01*
X1125470D01*
Y-865308D01*
X1124360D01*
Y-866418D01*
X1123250D01*
Y-865308D01*
X1122139D01*
Y-866418D01*
X1121029D01*
Y-865308D01*
X1119919D01*
Y-866418D01*
X1118809D01*
Y-865308D01*
X1117698D01*
Y-866418D01*
X1116588D01*
Y-865308D01*
X1115478D01*
Y-866418D01*
X1114367D01*
Y-865308D01*
X1113257D01*
Y-866418D01*
X1112147D01*
Y-865308D01*
X1111036D01*
Y-866418D01*
X1109926D01*
Y-865308D01*
X1108816D01*
Y-866418D01*
X1107705D01*
Y-865308D01*
X1106595D01*
Y-866418D01*
X1105485D01*
Y-865308D01*
X1104374D01*
Y-866418D01*
X1103264D01*
Y-865308D01*
X1102154D01*
Y-866418D01*
X1101043D01*
Y-865308D01*
X1099933D01*
Y-866418D01*
X1098823D01*
Y-865308D01*
X1097713D01*
Y-866418D01*
X1096602D01*
Y-865308D01*
X1095492D01*
Y-866418D01*
X1094382D01*
Y-865308D01*
X1093271D01*
Y-866418D01*
X1092161D01*
Y-865308D01*
X1091051D01*
Y-866418D01*
X1089940D01*
Y-865308D01*
X1088830D01*
Y-866418D01*
X1087720D01*
Y-865308D01*
X1086609D01*
Y-866418D01*
X1085499D01*
Y-865308D01*
X1084389D01*
Y-866418D01*
X1083278D01*
Y-865308D01*
X1082168D01*
Y-866418D01*
X1081058D01*
Y-865308D01*
X1079947D01*
Y-866418D01*
X1078837D01*
Y-865308D01*
X1077727D01*
Y-866418D01*
X1076617D01*
Y-865308D01*
X1075506D01*
Y-866418D01*
X1074396D01*
Y-865308D01*
X1073286D01*
Y-866418D01*
X1072175D01*
Y-865308D01*
X1071065D01*
Y-866418D01*
X1069955D01*
Y-865308D01*
X1068844D01*
Y-866418D01*
X1067734D01*
Y-865308D01*
X1066624D01*
Y-866418D01*
X1065513D01*
Y-865308D01*
X1064403D01*
Y-866418D01*
X1063293D01*
Y-865308D01*
X1062182D01*
Y-866418D01*
X1061072D01*
Y-865308D01*
X1059962D01*
Y-866418D01*
X1058851D01*
Y-865308D01*
X1057741D01*
Y-866418D01*
X1056631D01*
Y-865308D01*
X1055521D01*
Y-866418D01*
X1054410D01*
Y-865308D01*
X1053300D01*
Y-866418D01*
X1052190D01*
Y-865308D01*
X1051079D01*
Y-866418D01*
X1049969D01*
Y-865308D01*
X1048859D01*
Y-866418D01*
X1047748D01*
Y-865308D01*
X1046638D01*
Y-866418D01*
X1045528D01*
Y-865308D01*
X1044417D01*
Y-866418D01*
X1043307D01*
Y-865308D01*
X1042197D01*
Y-866418D01*
X1041086D01*
Y-865308D01*
X1039976D01*
Y-866418D01*
X1038866D01*
Y-865308D01*
X1037755D01*
Y-866418D01*
X1036645D01*
Y-865308D01*
X1035535D01*
Y-866418D01*
X1034425D01*
Y-865308D01*
X1033314D01*
Y-866418D01*
X1032204D01*
Y-865308D01*
X1031094D01*
Y-866418D01*
X1029983D01*
Y-865308D01*
X1028873D01*
Y-866418D01*
X1027763D01*
Y-865308D01*
X1026652D01*
Y-866418D01*
X1025542D01*
Y-865308D01*
X1024432D01*
Y-866418D01*
X1023321D01*
Y-865308D01*
X1022211D01*
Y-866418D01*
X1021101D01*
Y-865308D01*
X1019990D01*
Y-866418D01*
X1018880D01*
Y-865308D01*
X1017770D01*
Y-866418D01*
X1016659D01*
Y-865308D01*
X1015549D01*
Y-866418D01*
X1014439D01*
Y-865308D01*
X1013329D01*
Y-866418D01*
X1012218D01*
Y-865308D01*
X1011108D01*
Y-866418D01*
X1009998D01*
Y-865308D01*
X1008887D01*
Y-866418D01*
X1007777D01*
Y-865308D01*
X1006667D01*
Y-866418D01*
X1005556D01*
Y-865308D01*
X1004446D01*
Y-866418D01*
X1003336D01*
Y-865308D01*
X1002225D01*
Y-866418D01*
X1001115D01*
Y-865308D01*
X1000005D01*
Y-866418D01*
X998894D01*
Y-865308D01*
X997784D01*
Y-866418D01*
X996674D01*
Y-865308D01*
X995563D01*
Y-866418D01*
X994453D01*
Y-865308D01*
X993343D01*
Y-866418D01*
X992233D01*
Y-865308D01*
X991122D01*
Y-866418D01*
X990012D01*
Y-865308D01*
X988902D01*
Y-866418D01*
X987791D01*
Y-865308D01*
X986681D01*
Y-866418D01*
X985571D01*
Y-865308D01*
X984460D01*
Y-866418D01*
X983350D01*
Y-865308D01*
X982240D01*
Y-866418D01*
X981129D01*
Y-865308D01*
X980019D01*
Y-866418D01*
X978909D01*
Y-865308D01*
X977798D01*
Y-866418D01*
X976688D01*
Y-865308D01*
X975578D01*
Y-866418D01*
X974468D01*
Y-865308D01*
X973357D01*
Y-866418D01*
X972247D01*
Y-865308D01*
X971137D01*
Y-866418D01*
X970026D01*
Y-865308D01*
X968916D01*
Y-866418D01*
X967806D01*
Y-865308D01*
X966695D01*
Y-866418D01*
X965585D01*
Y-865308D01*
X964475D01*
Y-866418D01*
X963364D01*
Y-865308D01*
X962254D01*
Y-866418D01*
X961144D01*
Y-865308D01*
X960034D01*
Y-866418D01*
X958923D01*
Y-865308D01*
X957813D01*
Y-866418D01*
X956702D01*
Y-865308D01*
X955592D01*
Y-866418D01*
X954482D01*
Y-865308D01*
X953372D01*
Y-866418D01*
X952261D01*
Y-865308D01*
X951151D01*
Y-866418D01*
X950041D01*
Y-865308D01*
X948930D01*
Y-866418D01*
X947820D01*
Y-865308D01*
X946710D01*
Y-866418D01*
X945599D01*
Y-865308D01*
X944489D01*
Y-866418D01*
X943379D01*
Y-865308D01*
X942268D01*
Y-866418D01*
X941158D01*
Y-865308D01*
X940048D01*
Y-866418D01*
X938938D01*
Y-865308D01*
X937827D01*
Y-866418D01*
X936717D01*
Y-865308D01*
X935606D01*
Y-866418D01*
X934496D01*
Y-865308D01*
X933386D01*
Y-866418D01*
X932276D01*
Y-865308D01*
X931165D01*
Y-866418D01*
X930055D01*
Y-865308D01*
X928945D01*
Y-866418D01*
X927834D01*
Y-865308D01*
X926724D01*
Y-866418D01*
X925614D01*
Y-865308D01*
X924503D01*
Y-866418D01*
X923393D01*
Y-865308D01*
X922283D01*
Y-866418D01*
X921172D01*
Y-865308D01*
X920062D01*
Y-866418D01*
X918952D01*
Y-865308D01*
X917841D01*
Y-866418D01*
X916731D01*
Y-865308D01*
X915621D01*
Y-866418D01*
X914510D01*
Y-865308D01*
X913400D01*
Y-866418D01*
X912290D01*
Y-865308D01*
X911180D01*
Y-866418D01*
X910069D01*
Y-865308D01*
X908959D01*
Y-866418D01*
X907849D01*
Y-865308D01*
X906738D01*
Y-866418D01*
X905628D01*
Y-865308D01*
X904518D01*
Y-866418D01*
X903407D01*
Y-865308D01*
X902297D01*
Y-866418D01*
X901187D01*
Y-865308D01*
X900076D01*
Y-866418D01*
X898966D01*
Y-865308D01*
X897856D01*
Y-866418D01*
X896745D01*
Y-865308D01*
X895635D01*
Y-866418D01*
X894525D01*
Y-865308D01*
X893414D01*
Y-866418D01*
X892304D01*
Y-865308D01*
X891194D01*
Y-866418D01*
X890084D01*
Y-865308D01*
X888973D01*
Y-866418D01*
X887863D01*
Y-865308D01*
X886753D01*
Y-866418D01*
X885642D01*
Y-865308D01*
X884532D01*
Y-866418D01*
X883422D01*
Y-865308D01*
X882311D01*
Y-866418D01*
X881201D01*
Y-865308D01*
X880091D01*
Y-866418D01*
X878980D01*
Y-865308D01*
X877870D01*
Y-866418D01*
X876760D01*
Y-865308D01*
X875649D01*
Y-866418D01*
X874539D01*
Y-865308D01*
X873429D01*
Y-866418D01*
X872318D01*
Y-865308D01*
X871208D01*
Y-866418D01*
X870098D01*
Y-865308D01*
X868988D01*
Y-866418D01*
X867877D01*
Y-865308D01*
X866767D01*
Y-866418D01*
X865657D01*
Y-865308D01*
X864546D01*
Y-866418D01*
X863436D01*
Y-865308D01*
X862326D01*
Y-866418D01*
X861215D01*
Y-865308D01*
X860105D01*
Y-866418D01*
X858995D01*
Y-865308D01*
X857884D01*
Y-866418D01*
X856774D01*
Y-865308D01*
X855664D01*
Y-866418D01*
X854553D01*
Y-865308D01*
X853443D01*
Y-866418D01*
X852333D01*
Y-865308D01*
X851222D01*
Y-866418D01*
X850112D01*
Y-865308D01*
X849002D01*
Y-866418D01*
X847892D01*
Y-865308D01*
X846781D01*
Y-866418D01*
X845671D01*
Y-865308D01*
X844561D01*
Y-866418D01*
X843450D01*
Y-865308D01*
X842340D01*
Y-866418D01*
X841230D01*
Y-865308D01*
X840119D01*
Y-866418D01*
X839009D01*
Y-865308D01*
X837899D01*
Y-866418D01*
X836788D01*
Y-865308D01*
X835678D01*
Y-866418D01*
X834568D01*
Y-865308D01*
X833457D01*
Y-866418D01*
X832347D01*
Y-865308D01*
X831237D01*
Y-866418D01*
X830126D01*
Y-865308D01*
X829016D01*
Y-866418D01*
X827906D01*
Y-865308D01*
X826796D01*
Y-866418D01*
X825685D01*
Y-865308D01*
X824575D01*
Y-866418D01*
X823465D01*
Y-865308D01*
X822354D01*
Y-866418D01*
X821244D01*
Y-865308D01*
X820134D01*
Y-866418D01*
X819023D01*
Y-865308D01*
X817913D01*
Y-866418D01*
X816803D01*
Y-865308D01*
X815692D01*
Y-866418D01*
X814582D01*
Y-865308D01*
X813472D01*
Y-866418D01*
X812361D01*
Y-865308D01*
X811251D01*
Y-866418D01*
X810141D01*
Y-865308D01*
X809030D01*
Y-866418D01*
X807920D01*
Y-865308D01*
X806810D01*
Y-866418D01*
X805700D01*
Y-865308D01*
X804589D01*
Y-866418D01*
X803479D01*
Y-865308D01*
X802369D01*
Y-866418D01*
X801258D01*
Y-865308D01*
X800148D01*
Y-866418D01*
X799038D01*
Y-865308D01*
X797927D01*
Y-866418D01*
X796817D01*
Y-865308D01*
X795707D01*
Y-866418D01*
X794596D01*
Y-865308D01*
X793486D01*
Y-866418D01*
X792376D01*
Y-865308D01*
X791265D01*
Y-866418D01*
X790155D01*
Y-865308D01*
X789045D01*
Y-866418D01*
X787935D01*
Y-865308D01*
X786824D01*
Y-866418D01*
X785714D01*
Y-865308D01*
X784604D01*
Y-866418D01*
X783493D01*
Y-865308D01*
X782383D01*
Y-866418D01*
X781273D01*
Y-865308D01*
X780162D01*
Y-866418D01*
X779052D01*
Y-865308D01*
X777942D01*
Y-866418D01*
X776831D01*
Y-865308D01*
X775721D01*
Y-866418D01*
X774611D01*
Y-865308D01*
X773500D01*
Y-866418D01*
X772390D01*
Y-865308D01*
X771280D01*
Y-866418D01*
X770169D01*
Y-865308D01*
X769059D01*
Y-866418D01*
X767949D01*
Y-865308D01*
X766839D01*
Y-866418D01*
X765728D01*
Y-865308D01*
X764618D01*
Y-866418D01*
X763508D01*
Y-865308D01*
X762397D01*
Y-866418D01*
X761287D01*
Y-865308D01*
X760177D01*
Y-866418D01*
X759066D01*
Y-865308D01*
X757956D01*
Y-866418D01*
X756846D01*
Y-865308D01*
X755735D01*
Y-866418D01*
X754625D01*
Y-865308D01*
X753515D01*
Y-866418D01*
X752404D01*
Y-865308D01*
X751294D01*
Y-866418D01*
X750184D01*
Y-865308D01*
X749073D01*
Y-866418D01*
X747963D01*
Y-865308D01*
X746853D01*
Y-866418D01*
X745743D01*
Y-865308D01*
X744632D01*
Y-866418D01*
X743522D01*
Y-865308D01*
X742412D01*
Y-866418D01*
X741301D01*
Y-865308D01*
X740191D01*
Y-866418D01*
X739081D01*
Y-865308D01*
X737970D01*
Y-866418D01*
X736860D01*
Y-865308D01*
X735750D01*
Y-866418D01*
X734639D01*
Y-865308D01*
X733529D01*
Y-866418D01*
X732419D01*
Y-865308D01*
X731308D01*
Y-866418D01*
X730198D01*
Y-865308D01*
X729088D01*
Y-866418D01*
X727977D01*
Y-865308D01*
X726867D01*
Y-866418D01*
X725757D01*
Y-865308D01*
X724647D01*
Y-866418D01*
X723536D01*
Y-865308D01*
X722426D01*
Y-866418D01*
X721316D01*
Y-865308D01*
X720205D01*
Y-866418D01*
X719095D01*
Y-865308D01*
X717985D01*
Y-866418D01*
X716874D01*
Y-865308D01*
X715764D01*
Y-866418D01*
X714654D01*
Y-865308D01*
X709102D01*
Y-864198D01*
X707992D01*
Y-863088D01*
X704661D01*
Y-861977D01*
X703551D01*
Y-860867D01*
X702440D01*
Y-859757D01*
X701330D01*
Y-858646D01*
X700220D01*
Y-857536D01*
Y-856426D01*
Y-855315D01*
X699109D01*
Y-854205D01*
X697999D01*
Y-853095D01*
X699109D01*
Y-851984D01*
X697999D01*
Y-850874D01*
Y-849764D01*
Y-848654D01*
Y-847543D01*
Y-846433D01*
Y-845322D01*
Y-844212D01*
X699109D01*
Y-843102D01*
Y-841992D01*
Y-840881D01*
X700220D01*
Y-839771D01*
X701330D01*
Y-838661D01*
X700220D01*
Y-837550D01*
X701330D01*
Y-836440D01*
X702440D01*
Y-835330D01*
X703551D01*
Y-834219D01*
Y-833109D01*
Y-831999D01*
X704661D01*
Y-830888D01*
X705771D01*
Y-829778D01*
X706881D01*
Y-828668D01*
Y-827558D01*
Y-826447D01*
X707992D01*
Y-825337D01*
X709102D01*
Y-824226D01*
X710212D01*
Y-823116D01*
Y-822006D01*
Y-820896D01*
X711323D01*
Y-819785D01*
X712433D01*
Y-818675D01*
Y-817565D01*
X713543D01*
Y-816454D01*
Y-815344D01*
X714654D01*
Y-814234D01*
X715764D01*
Y-813123D01*
X716874D01*
Y-812013D01*
X715764D01*
Y-810903D01*
X716874D01*
Y-809792D01*
X717985D01*
Y-808682D01*
X719095D01*
Y-807572D01*
Y-806462D01*
X720205D01*
Y-805351D01*
Y-804241D01*
X721316D01*
Y-803130D01*
X722426D01*
Y-802020D01*
Y-800910D01*
Y-799800D01*
X723536D01*
Y-798689D01*
X724647D01*
Y-797579D01*
Y-796469D01*
Y-795358D01*
X725757D01*
Y-794248D01*
X726867D01*
Y-793138D01*
X727977D01*
Y-792027D01*
Y-790917D01*
X729088D01*
Y-789807D01*
Y-788696D01*
X730198D01*
Y-787586D01*
Y-786476D01*
X731308D01*
Y-785365D01*
Y-784255D01*
X732419D01*
Y-783145D01*
X733529D01*
Y-782034D01*
X734639D01*
Y-780924D01*
Y-779814D01*
Y-778704D01*
X735750D01*
Y-777593D01*
X736860D01*
Y-776483D01*
Y-775373D01*
X737970D01*
Y-774262D01*
Y-773152D01*
X739081D01*
Y-772042D01*
X740191D01*
Y-770931D01*
Y-769821D01*
Y-768711D01*
X741301D01*
Y-767600D01*
X742412D01*
Y-766490D01*
X743522D01*
Y-765380D01*
X742412D01*
Y-764269D01*
X744632D01*
Y-763159D01*
Y-762049D01*
X745743D01*
Y-760938D01*
Y-759828D01*
X746853D01*
Y-758718D01*
Y-757608D01*
X747963D01*
Y-756497D01*
X749073D01*
Y-755387D01*
Y-754277D01*
Y-753166D01*
X750184D01*
Y-752056D01*
X751294D01*
Y-750946D01*
X752404D01*
Y-749835D01*
Y-748725D01*
Y-747615D01*
X753515D01*
Y-746504D01*
X754625D01*
Y-745394D01*
Y-744284D01*
X755735D01*
Y-743173D01*
Y-742063D01*
X756846D01*
Y-740953D01*
X757956D01*
Y-739842D01*
X759066D01*
Y-738732D01*
X757956D01*
Y-737622D01*
X759066D01*
Y-736512D01*
X760177D01*
Y-735401D01*
X761287D01*
Y-734291D01*
Y-733181D01*
X762397D01*
Y-732070D01*
Y-730960D01*
X763508D01*
Y-729850D01*
X764618D01*
Y-728739D01*
X765728D01*
Y-727629D01*
X764618D01*
Y-726519D01*
X765728D01*
Y-725408D01*
X766839D01*
Y-724298D01*
X767949D01*
Y-723188D01*
X766839D01*
Y-722077D01*
X767949D01*
Y-720967D01*
X769059D01*
Y-719857D01*
X770169D01*
Y-718746D01*
Y-717636D01*
X771280D01*
Y-716526D01*
Y-715416D01*
X772390D01*
Y-714305D01*
X773500D01*
Y-713195D01*
Y-712085D01*
Y-710974D01*
X774611D01*
Y-709864D01*
X775721D01*
Y-708754D01*
X776831D01*
Y-707643D01*
Y-706533D01*
Y-705423D01*
X777942D01*
Y-704312D01*
X779052D01*
Y-703202D01*
Y-702092D01*
X780162D01*
Y-700981D01*
Y-699871D01*
X781273D01*
Y-698761D01*
X782383D01*
Y-697651D01*
X783493D01*
Y-696540D01*
X782383D01*
Y-695430D01*
X783493D01*
Y-694320D01*
X784604D01*
Y-693209D01*
X785714D01*
Y-692099D01*
Y-690989D01*
X786824D01*
Y-689878D01*
Y-688768D01*
X787935D01*
Y-687658D01*
X789045D01*
Y-686547D01*
Y-685437D01*
Y-684327D01*
X790155D01*
Y-683216D01*
X791265D01*
Y-682106D01*
Y-680996D01*
Y-679885D01*
X792376D01*
Y-678775D01*
X793486D01*
Y-677665D01*
X794596D01*
Y-676555D01*
Y-675444D01*
X795707D01*
Y-674334D01*
Y-673224D01*
X796817D01*
Y-672113D01*
Y-671003D01*
X797927D01*
Y-669893D01*
Y-668782D01*
X799038D01*
Y-667672D01*
X800148D01*
Y-666562D01*
X801258D01*
Y-665451D01*
Y-664341D01*
Y-663231D01*
X802369D01*
Y-662120D01*
X803479D01*
Y-661010D01*
Y-659900D01*
X804589D01*
Y-658789D01*
Y-657679D01*
X805700D01*
Y-656569D01*
X806810D01*
Y-655459D01*
X807920D01*
Y-654348D01*
X806810D01*
Y-653238D01*
X807920D01*
Y-652128D01*
X809030D01*
Y-651017D01*
X810141D01*
Y-649907D01*
X809030D01*
Y-648797D01*
X810141D01*
Y-647686D01*
X811251D01*
Y-646576D01*
X812361D01*
Y-645466D01*
Y-644355D01*
X813472D01*
Y-643245D01*
Y-642135D01*
X814582D01*
Y-641024D01*
X815692D01*
Y-639914D01*
X816803D01*
Y-638804D01*
X815692D01*
Y-637693D01*
X816803D01*
Y-636583D01*
X817913D01*
Y-635473D01*
X819023D01*
Y-634363D01*
Y-633252D01*
Y-632142D01*
X820134D01*
Y-631032D01*
X821244D01*
Y-629921D01*
Y-628811D01*
X822354D01*
Y-627701D01*
Y-626590D01*
X823465D01*
Y-625480D01*
X824575D01*
Y-624370D01*
X825685D01*
Y-623259D01*
X824575D01*
Y-622149D01*
X825685D01*
Y-621039D01*
X826796D01*
Y-619928D01*
X827906D01*
Y-618818D01*
Y-617708D01*
X829016D01*
Y-616597D01*
Y-615487D01*
X830126D01*
Y-614377D01*
X831237D01*
Y-613267D01*
X832347D01*
Y-612156D01*
X831237D01*
Y-611046D01*
X832347D01*
Y-609936D01*
X833457D01*
Y-608825D01*
X834568D01*
Y-607715D01*
X833457D01*
Y-606605D01*
X834568D01*
Y-605494D01*
X835678D01*
Y-604384D01*
X836788D01*
Y-603274D01*
Y-602163D01*
X837899D01*
Y-601053D01*
Y-599943D01*
X839009D01*
Y-598832D01*
X840119D01*
Y-597722D01*
Y-596612D01*
Y-595501D01*
X841230D01*
Y-594391D01*
X842340D01*
Y-593281D01*
X843450D01*
Y-592171D01*
Y-591060D01*
Y-589950D01*
X844561D01*
Y-588840D01*
X845671D01*
Y-587729D01*
Y-586619D01*
X846781D01*
Y-585509D01*
Y-584398D01*
X847892D01*
Y-583288D01*
X849002D01*
Y-582178D01*
X850112D01*
Y-581067D01*
X849002D01*
Y-579957D01*
X850112D01*
Y-578847D01*
X851222D01*
Y-577736D01*
X852333D01*
Y-576626D01*
Y-575516D01*
X853443D01*
Y-574405D01*
Y-573295D01*
X854553D01*
Y-572185D01*
X855664D01*
Y-571075D01*
Y-569964D01*
Y-568854D01*
X856774D01*
Y-567744D01*
X857884D01*
Y-566633D01*
X858995D01*
Y-565523D01*
X857884D01*
Y-564413D01*
X858995D01*
Y-563302D01*
X860105D01*
Y-562192D01*
X861215D01*
Y-561082D01*
Y-559971D01*
X862326D01*
Y-558861D01*
Y-557751D01*
X863436D01*
Y-556640D01*
Y-555530D01*
X864546D01*
Y-554420D01*
Y-553309D01*
X865657D01*
Y-552199D01*
X866767D01*
Y-551089D01*
X867877D01*
Y-549979D01*
Y-548868D01*
Y-547758D01*
X868988D01*
Y-546648D01*
X870098D01*
Y-545537D01*
Y-544427D01*
X871208D01*
Y-543317D01*
Y-542206D01*
X872318D01*
Y-541096D01*
X873429D01*
Y-539986D01*
X874539D01*
Y-538875D01*
X873429D01*
Y-537765D01*
X874539D01*
Y-536655D01*
X875649D01*
Y-535544D01*
X876760D01*
Y-534434D01*
X875649D01*
Y-533324D01*
X877870D01*
Y-532213D01*
Y-531103D01*
X878980D01*
Y-529993D01*
X880091D01*
Y-528883D01*
X881201D01*
Y-527772D01*
X880091D01*
Y-526662D01*
X881201D01*
Y-525552D01*
X882311D01*
Y-524441D01*
X883422D01*
Y-523331D01*
X882311D01*
Y-522221D01*
X883422D01*
Y-521110D01*
X884532D01*
Y-520000D01*
X885642D01*
Y-518890D01*
Y-517779D01*
Y-516669D01*
X886753D01*
Y-515559D01*
X887863D01*
Y-514448D01*
X888973D01*
Y-513338D01*
Y-512228D01*
Y-511118D01*
X890084D01*
Y-510007D01*
X891194D01*
Y-508897D01*
X892304D01*
Y-507787D01*
Y-506676D01*
Y-505566D01*
X893414D01*
Y-504456D01*
X894525D01*
Y-503345D01*
Y-502235D01*
X895635D01*
Y-501125D01*
Y-500014D01*
X896745D01*
Y-498904D01*
X897856D01*
Y-497794D01*
X898966D01*
Y-496683D01*
X897856D01*
Y-495573D01*
X898966D01*
Y-494463D01*
X900076D01*
Y-493353D01*
X901187D01*
Y-492242D01*
Y-491132D01*
Y-490022D01*
X902297D01*
Y-488911D01*
X903407D01*
Y-487801D01*
X904518D01*
Y-486691D01*
Y-485580D01*
Y-484470D01*
X905628D01*
Y-483360D01*
X906738D01*
Y-482249D01*
Y-481139D01*
Y-480029D01*
X907849D01*
Y-478918D01*
X908959D01*
Y-477808D01*
X910069D01*
Y-476698D01*
Y-475587D01*
Y-474477D01*
X911180D01*
Y-473367D01*
X912290D01*
Y-472257D01*
Y-471146D01*
X913400D01*
Y-470036D01*
Y-468926D01*
X914510D01*
Y-467815D01*
X915621D01*
Y-466705D01*
X916731D01*
Y-465595D01*
Y-464484D01*
Y-463374D01*
X917841D01*
Y-462264D01*
X918952D01*
Y-461153D01*
Y-460043D01*
X920062D01*
Y-458933D01*
Y-457822D01*
X921172D01*
Y-456712D01*
X922283D01*
Y-455602D01*
Y-454491D01*
Y-453381D01*
X923393D01*
Y-452271D01*
X924503D01*
Y-451161D01*
X925614D01*
Y-450050D01*
X924503D01*
Y-448940D01*
X925614D01*
Y-447830D01*
X926724D01*
Y-446719D01*
X927834D01*
Y-445609D01*
Y-444499D01*
X930055D01*
Y-443388D01*
X928945D01*
Y-442278D01*
X930055D01*
Y-441168D01*
X931165D01*
Y-440057D01*
Y-438947D01*
Y-437837D01*
X932276D01*
Y-436726D01*
X933386D01*
Y-435616D01*
X934496D01*
Y-434506D01*
Y-433396D01*
Y-432285D01*
X935606D01*
Y-431175D01*
X936717D01*
Y-430065D01*
Y-428954D01*
X937827D01*
Y-427844D01*
Y-426734D01*
X938938D01*
Y-425623D01*
X940048D01*
Y-424513D01*
X941158D01*
Y-423403D01*
X940048D01*
Y-422292D01*
X941158D01*
Y-421182D01*
X942268D01*
Y-420072D01*
X943379D01*
Y-418961D01*
X942268D01*
Y-417851D01*
X944489D01*
Y-416741D01*
Y-415630D01*
X945599D01*
Y-414520D01*
X946710D01*
Y-413410D01*
Y-412300D01*
Y-411189D01*
X947820D01*
Y-410079D01*
X948930D01*
Y-408969D01*
X950041D01*
Y-407858D01*
X948930D01*
Y-406748D01*
X950041D01*
Y-405638D01*
X951151D01*
Y-404527D01*
X952261D01*
Y-403417D01*
Y-402307D01*
X953372D01*
Y-401196D01*
Y-400086D01*
X954482D01*
Y-398976D01*
X955592D01*
Y-397865D01*
Y-396755D01*
Y-395645D01*
X956702D01*
Y-394534D01*
X957813D01*
Y-393424D01*
X958923D01*
Y-392314D01*
Y-391204D01*
Y-390093D01*
X960034D01*
Y-388983D01*
X961144D01*
Y-387873D01*
Y-386762D01*
X962254D01*
Y-385652D01*
Y-384542D01*
X963364D01*
Y-383431D01*
X964475D01*
Y-382321D01*
X965585D01*
Y-381211D01*
X964475D01*
Y-380100D01*
X965585D01*
Y-378990D01*
X966695D01*
Y-377880D01*
X967806D01*
Y-376769D01*
X966695D01*
Y-375659D01*
X967806D01*
Y-374549D01*
X968916D01*
Y-373438D01*
X970026D01*
Y-372328D01*
X971137D01*
Y-371218D01*
Y-370108D01*
Y-368997D01*
X972247D01*
Y-367887D01*
X973357D01*
Y-366776D01*
Y-365666D01*
Y-364556D01*
X974468D01*
Y-363446D01*
X975578D01*
Y-362335D01*
X976688D01*
Y-361225D01*
Y-360115D01*
Y-359004D01*
X977798D01*
Y-357894D01*
X978909D01*
Y-356784D01*
Y-355673D01*
X980019D01*
Y-354563D01*
Y-353453D01*
X981129D01*
Y-352342D01*
X982240D01*
Y-351232D01*
X983350D01*
Y-350122D01*
Y-349012D01*
Y-347901D01*
X984460D01*
Y-346791D01*
X985571D01*
Y-345681D01*
Y-344570D01*
X986681D01*
Y-343460D01*
Y-342350D01*
X987791D01*
Y-341239D01*
X988902D01*
Y-340129D01*
Y-339019D01*
Y-337908D01*
X990012D01*
Y-336798D01*
X991122D01*
Y-335688D01*
X992233D01*
Y-334577D01*
X991122D01*
Y-333467D01*
X992233D01*
Y-332357D01*
X993343D01*
Y-331246D01*
X994453D01*
Y-330136D01*
Y-329026D01*
X995563D01*
Y-327916D01*
Y-326805D01*
X996674D01*
Y-325695D01*
X997784D01*
Y-324585D01*
Y-323474D01*
Y-322364D01*
X998894D01*
Y-321254D01*
X1000005D01*
Y-320143D01*
X1001115D01*
Y-319033D01*
Y-317923D01*
Y-316812D01*
X1002225D01*
Y-315702D01*
X1003336D01*
Y-314592D01*
Y-313481D01*
X1004446D01*
Y-312371D01*
Y-311261D01*
X1005556D01*
Y-310151D01*
X1006667D01*
Y-309040D01*
X1007777D01*
Y-307930D01*
X1006667D01*
Y-306820D01*
X1007777D01*
Y-305709D01*
X1008887D01*
Y-304599D01*
X1009998D01*
Y-303489D01*
X1008887D01*
Y-302378D01*
X1011108D01*
Y-301268D01*
Y-300158D01*
X1012218D01*
Y-299047D01*
X1013329D01*
Y-297937D01*
X1014439D01*
Y-296827D01*
X1013329D01*
Y-295716D01*
X1014439D01*
Y-294606D01*
X1015549D01*
Y-293496D01*
X1016659D01*
Y-292385D01*
Y-291275D01*
X1017770D01*
Y-290165D01*
Y-289055D01*
X1019990D01*
Y-287944D01*
X1021101D01*
Y-286834D01*
X1023321D01*
Y-285724D01*
X1026652D01*
Y-284613D01*
X1034425D01*
Y-285724D01*
X1035535D01*
Y-284613D01*
X1036645D01*
Y-285724D01*
D02*
G37*
%LPC*%
G36*
X1057510Y632093D02*
X1056493Y632025D01*
X1056290Y631958D01*
X1055646Y631720D01*
X1055103Y631517D01*
X1054425Y631246D01*
X1054256Y631212D01*
X1054222Y631178D01*
X1053849Y631009D01*
X1052697Y630398D01*
X1052053Y629958D01*
X1051815Y629720D01*
X1051679Y629653D01*
X1051578Y629551D01*
X1051510Y629415D01*
X1051103Y629009D01*
X1051035Y628873D01*
X1050900Y628737D01*
X1050832Y628602D01*
X1050493Y628127D01*
X1048324Y623721D01*
X1048392Y623450D01*
X1048595Y622975D01*
X1048730Y622636D01*
X1048934Y622161D01*
X1049205Y621483D01*
X1049409Y621009D01*
X1049680Y620331D01*
X1050561Y618636D01*
X1050866Y618263D01*
X1051205Y617856D01*
X1051679Y617382D01*
X1051815Y617314D01*
X1051951Y617178D01*
X1052086Y617111D01*
X1052222Y616975D01*
X1052832Y616636D01*
X1054934Y615619D01*
X1055273Y615484D01*
X1055951Y615280D01*
X1056391Y615179D01*
X1056934Y615111D01*
X1057781Y615077D01*
X1057985Y615145D01*
X1058629Y615246D01*
X1058900Y615314D01*
X1059849Y615653D01*
X1060594Y615992D01*
X1061781Y616636D01*
X1062425Y617077D01*
X1063442Y618094D01*
X1063510Y618229D01*
X1063645Y618365D01*
X1063713Y618500D01*
X1063849Y618636D01*
X1063917Y618772D01*
X1064255Y619246D01*
X1065137Y621077D01*
X1065408Y621755D01*
X1065747Y622839D01*
X1065815Y623314D01*
X1065747Y624399D01*
X1065679Y624602D01*
X1065510Y625043D01*
X1065306Y625585D01*
X1065035Y626263D01*
X1064696Y627009D01*
X1063917Y628466D01*
X1063442Y629076D01*
X1063306Y629212D01*
X1063239Y629348D01*
X1063001Y629585D01*
X1062866Y629653D01*
X1062594Y629924D01*
X1062459Y629992D01*
X1062323Y630127D01*
X1062188Y630195D01*
X1061645Y630534D01*
X1060222Y631212D01*
X1059883Y631347D01*
X1059408Y631551D01*
X1059069Y631687D01*
X1057985Y632025D01*
X1057510Y632093D01*
D02*
G37*
G36*
X1032204Y-340129D02*
X1029983D01*
Y-341239D01*
X1028873D01*
Y-342350D01*
Y-343460D01*
X1027763D01*
Y-344570D01*
Y-345681D01*
X1026652D01*
Y-346791D01*
Y-347901D01*
X1025542D01*
Y-349012D01*
X1024432D01*
Y-350122D01*
Y-351232D01*
X1023321D01*
Y-352342D01*
Y-353453D01*
X1022211D01*
Y-354563D01*
Y-355673D01*
X1021101D01*
Y-356784D01*
X1019990D01*
Y-357894D01*
Y-359004D01*
X1018880D01*
Y-360115D01*
Y-361225D01*
X1017770D01*
Y-362335D01*
X1016659D01*
Y-363446D01*
Y-364556D01*
X1015549D01*
Y-365666D01*
Y-366776D01*
X1014439D01*
Y-367887D01*
X1013329D01*
Y-368997D01*
Y-370108D01*
X1012218D01*
Y-371218D01*
Y-372328D01*
X1011108D01*
Y-373438D01*
Y-374549D01*
X1009998D01*
Y-375659D01*
Y-376769D01*
X1008887D01*
Y-377880D01*
X1007777D01*
Y-378990D01*
Y-380100D01*
X1006667D01*
Y-381211D01*
Y-382321D01*
X1005556D01*
Y-383431D01*
X1004446D01*
Y-384542D01*
Y-385652D01*
X1003336D01*
Y-386762D01*
Y-387873D01*
X1002225D01*
Y-388983D01*
Y-390093D01*
X1001115D01*
Y-391204D01*
X1000005D01*
Y-392314D01*
Y-393424D01*
X998894D01*
Y-394534D01*
Y-395645D01*
X997784D01*
Y-396755D01*
X996674D01*
Y-397865D01*
Y-398976D01*
X995563D01*
Y-400086D01*
Y-401196D01*
X994453D01*
Y-402307D01*
Y-403417D01*
X993343D01*
Y-404527D01*
X992233D01*
Y-405638D01*
Y-406748D01*
X991122D01*
Y-407858D01*
Y-408969D01*
X990012D01*
Y-410079D01*
X988902D01*
Y-411189D01*
Y-412300D01*
X987791D01*
Y-413410D01*
Y-414520D01*
X986681D01*
Y-415630D01*
Y-416741D01*
X985571D01*
Y-417851D01*
X984460D01*
Y-418961D01*
Y-420072D01*
X983350D01*
Y-421182D01*
Y-422292D01*
X982240D01*
Y-423403D01*
Y-424513D01*
X981129D01*
Y-425623D01*
X980019D01*
Y-426734D01*
Y-427844D01*
X978909D01*
Y-428954D01*
Y-430065D01*
X977798D01*
Y-431175D01*
X976688D01*
Y-432285D01*
Y-433396D01*
X975578D01*
Y-434506D01*
Y-435616D01*
X974468D01*
Y-436726D01*
Y-437837D01*
X973357D01*
Y-438947D01*
X972247D01*
Y-440057D01*
Y-441168D01*
X971137D01*
Y-442278D01*
Y-443388D01*
X970026D01*
Y-444499D01*
Y-445609D01*
X968916D01*
Y-446719D01*
X967806D01*
Y-447830D01*
Y-448940D01*
X966695D01*
Y-450050D01*
Y-451161D01*
X965585D01*
Y-452271D01*
X964475D01*
Y-453381D01*
Y-454491D01*
X963364D01*
Y-455602D01*
Y-456712D01*
X962254D01*
Y-457822D01*
Y-458933D01*
X961144D01*
Y-460043D01*
X960034D01*
Y-461153D01*
Y-462264D01*
X958923D01*
Y-463374D01*
Y-464484D01*
X957813D01*
Y-465595D01*
Y-466705D01*
X956702D01*
Y-467815D01*
X955592D01*
Y-468926D01*
Y-470036D01*
X954482D01*
Y-471146D01*
Y-472257D01*
X953372D01*
Y-473367D01*
X952261D01*
Y-474477D01*
Y-475587D01*
X951151D01*
Y-476698D01*
Y-477808D01*
X950041D01*
Y-478918D01*
X948930D01*
Y-480029D01*
Y-481139D01*
X947820D01*
Y-482249D01*
Y-483360D01*
X946710D01*
Y-484470D01*
Y-485580D01*
X945599D01*
Y-486691D01*
Y-487801D01*
X944489D01*
Y-488911D01*
X943379D01*
Y-490022D01*
Y-491132D01*
X942268D01*
Y-492242D01*
Y-493353D01*
X941158D01*
Y-494463D01*
X940048D01*
Y-495573D01*
Y-496683D01*
X938938D01*
Y-497794D01*
Y-498904D01*
X937827D01*
Y-500014D01*
Y-501125D01*
X936717D01*
Y-502235D01*
X935606D01*
Y-503345D01*
Y-504456D01*
X934496D01*
Y-505566D01*
Y-506676D01*
X933386D01*
Y-507787D01*
Y-508897D01*
X932276D01*
Y-510007D01*
X931165D01*
Y-511118D01*
Y-512228D01*
X930055D01*
Y-513338D01*
Y-514448D01*
X928945D01*
Y-515559D01*
X927834D01*
Y-516669D01*
Y-517779D01*
X926724D01*
Y-518890D01*
Y-520000D01*
X925614D01*
Y-521110D01*
X924503D01*
Y-522221D01*
Y-523331D01*
X923393D01*
Y-524441D01*
Y-525552D01*
X922283D01*
Y-526662D01*
Y-527772D01*
X921172D01*
Y-528883D01*
Y-529993D01*
X920062D01*
Y-531103D01*
X918952D01*
Y-532213D01*
Y-533324D01*
X917841D01*
Y-534434D01*
Y-535544D01*
X916731D01*
Y-536655D01*
X915621D01*
Y-537765D01*
Y-538875D01*
X914510D01*
Y-539986D01*
Y-541096D01*
X913400D01*
Y-542206D01*
Y-543317D01*
X912290D01*
Y-544427D01*
X911180D01*
Y-545537D01*
Y-546648D01*
X910069D01*
Y-547758D01*
Y-548868D01*
X908959D01*
Y-549979D01*
X907849D01*
Y-551089D01*
Y-552199D01*
X906738D01*
Y-553309D01*
Y-554420D01*
X905628D01*
Y-555530D01*
Y-556640D01*
X904518D01*
Y-557751D01*
X903407D01*
Y-558861D01*
Y-559971D01*
X902297D01*
Y-561082D01*
Y-562192D01*
X901187D01*
Y-563302D01*
X900076D01*
Y-564413D01*
Y-565523D01*
X898966D01*
Y-566633D01*
Y-567744D01*
X897856D01*
Y-568854D01*
Y-569964D01*
X896745D01*
Y-571075D01*
X895635D01*
Y-572185D01*
Y-573295D01*
X894525D01*
Y-574405D01*
Y-575516D01*
X893414D01*
Y-576626D01*
Y-577736D01*
X892304D01*
Y-578847D01*
X891194D01*
Y-579957D01*
Y-581067D01*
X890084D01*
Y-582178D01*
Y-583288D01*
X888973D01*
Y-584398D01*
X887863D01*
Y-585509D01*
Y-586619D01*
X886753D01*
Y-587729D01*
Y-588840D01*
X885642D01*
Y-589950D01*
Y-591060D01*
X884532D01*
Y-592171D01*
X883422D01*
Y-593281D01*
Y-594391D01*
X882311D01*
Y-595501D01*
Y-596612D01*
X881201D01*
Y-597722D01*
Y-598832D01*
X880091D01*
Y-599943D01*
X878980D01*
Y-601053D01*
Y-602163D01*
X877870D01*
Y-603274D01*
Y-604384D01*
X876760D01*
Y-605494D01*
X875649D01*
Y-606605D01*
Y-607715D01*
X874539D01*
Y-608825D01*
Y-609936D01*
X873429D01*
Y-611046D01*
Y-612156D01*
X872318D01*
Y-613267D01*
X871208D01*
Y-614377D01*
Y-615487D01*
X870098D01*
Y-616597D01*
Y-617708D01*
X868988D01*
Y-618818D01*
X867877D01*
Y-619928D01*
Y-621039D01*
X866767D01*
Y-622149D01*
Y-623259D01*
X865657D01*
Y-624370D01*
Y-625480D01*
X864546D01*
Y-626590D01*
X863436D01*
Y-627701D01*
Y-628811D01*
X862326D01*
Y-629921D01*
Y-631032D01*
X861215D01*
Y-632142D01*
X860105D01*
Y-633252D01*
Y-634363D01*
X858995D01*
Y-635473D01*
Y-636583D01*
X857884D01*
Y-637693D01*
Y-638804D01*
X856774D01*
Y-639914D01*
Y-641024D01*
X855664D01*
Y-642135D01*
X854553D01*
Y-643245D01*
Y-644355D01*
X853443D01*
Y-645466D01*
Y-646576D01*
X852333D01*
Y-647686D01*
X851222D01*
Y-648797D01*
Y-649907D01*
X850112D01*
Y-651017D01*
Y-652128D01*
X849002D01*
Y-653238D01*
X847892D01*
Y-654348D01*
Y-655459D01*
X846781D01*
Y-656569D01*
Y-657679D01*
X845671D01*
Y-658789D01*
Y-659900D01*
X844561D01*
Y-661010D01*
X843450D01*
Y-662120D01*
Y-663231D01*
X842340D01*
Y-664341D01*
Y-665451D01*
X841230D01*
Y-666562D01*
Y-667672D01*
X840119D01*
Y-668782D01*
X839009D01*
Y-669893D01*
Y-671003D01*
X837899D01*
Y-672113D01*
Y-673224D01*
X836788D01*
Y-674334D01*
X835678D01*
Y-675444D01*
Y-676555D01*
X834568D01*
Y-677665D01*
Y-678775D01*
X833457D01*
Y-679885D01*
Y-680996D01*
X832347D01*
Y-682106D01*
X831237D01*
Y-683216D01*
Y-684327D01*
X830126D01*
Y-685437D01*
Y-686547D01*
X829016D01*
Y-687658D01*
Y-688768D01*
X827906D01*
Y-689878D01*
X826796D01*
Y-690989D01*
Y-692099D01*
X825685D01*
Y-693209D01*
Y-694320D01*
X824575D01*
Y-695430D01*
X823465D01*
Y-696540D01*
Y-697651D01*
X822354D01*
Y-698761D01*
Y-699871D01*
X821244D01*
Y-700981D01*
X820134D01*
Y-702092D01*
Y-703202D01*
X819023D01*
Y-704312D01*
Y-705423D01*
X817913D01*
Y-706533D01*
Y-707643D01*
X816803D01*
Y-708754D01*
Y-709864D01*
X815692D01*
Y-710974D01*
X814582D01*
Y-712085D01*
Y-713195D01*
X813472D01*
Y-714305D01*
Y-715416D01*
X812361D01*
Y-716526D01*
X811251D01*
Y-717636D01*
Y-718746D01*
X810141D01*
Y-719857D01*
Y-720967D01*
X809030D01*
Y-722077D01*
Y-723188D01*
X807920D01*
Y-724298D01*
X806810D01*
Y-725408D01*
Y-726519D01*
X805700D01*
Y-727629D01*
Y-728739D01*
X804589D01*
Y-729850D01*
Y-730960D01*
X803479D01*
Y-732070D01*
X802369D01*
Y-733181D01*
Y-734291D01*
X801258D01*
Y-735401D01*
Y-736512D01*
X800148D01*
Y-737622D01*
X799038D01*
Y-738732D01*
Y-739842D01*
X797927D01*
Y-740953D01*
Y-742063D01*
X796817D01*
Y-743173D01*
X795707D01*
Y-744284D01*
Y-745394D01*
X794596D01*
Y-746504D01*
Y-747615D01*
X793486D01*
Y-748725D01*
Y-749835D01*
X792376D01*
Y-750946D01*
Y-752056D01*
X791265D01*
Y-753166D01*
X790155D01*
Y-754277D01*
Y-755387D01*
X789045D01*
Y-756497D01*
Y-757608D01*
X787935D01*
Y-758718D01*
X786824D01*
Y-759828D01*
Y-760938D01*
X785714D01*
Y-762049D01*
Y-763159D01*
X784604D01*
Y-764269D01*
Y-765380D01*
X783493D01*
Y-766490D01*
X782383D01*
Y-767600D01*
Y-768711D01*
X781273D01*
Y-769821D01*
Y-770931D01*
X780162D01*
Y-772042D01*
X779052D01*
Y-773152D01*
Y-774262D01*
X777942D01*
Y-775373D01*
Y-776483D01*
X776831D01*
Y-777593D01*
Y-778704D01*
X775721D01*
Y-779814D01*
X774611D01*
Y-780924D01*
Y-782034D01*
X773500D01*
Y-783145D01*
Y-784255D01*
X772390D01*
Y-785365D01*
X771280D01*
Y-786476D01*
Y-787586D01*
X770169D01*
Y-788696D01*
Y-789807D01*
X769059D01*
Y-790917D01*
Y-792027D01*
X767949D01*
Y-793138D01*
Y-794248D01*
X766839D01*
Y-795358D01*
X765728D01*
Y-796469D01*
Y-797579D01*
X764618D01*
Y-798689D01*
Y-799800D01*
X763508D01*
Y-800910D01*
X762397D01*
Y-802020D01*
Y-803130D01*
X761287D01*
Y-804241D01*
Y-805351D01*
X760177D01*
Y-806462D01*
X759066D01*
Y-807572D01*
Y-808682D01*
X757956D01*
Y-809792D01*
Y-810903D01*
X756846D01*
Y-812013D01*
Y-813123D01*
X755735D01*
Y-814234D01*
X754625D01*
Y-815344D01*
Y-816454D01*
X753515D01*
Y-817565D01*
Y-818675D01*
X752404D01*
Y-819785D01*
Y-820896D01*
X751294D01*
Y-822006D01*
X750184D01*
Y-823116D01*
Y-824226D01*
X749073D01*
Y-825337D01*
Y-826447D01*
X747963D01*
Y-827558D01*
X746853D01*
Y-828668D01*
Y-829778D01*
Y-830888D01*
X1315334D01*
Y-829778D01*
Y-828668D01*
Y-827558D01*
X1314224D01*
Y-826447D01*
Y-825337D01*
X1313114D01*
Y-824226D01*
X1312004D01*
Y-823116D01*
Y-822006D01*
X1310893D01*
Y-820896D01*
Y-819785D01*
X1309783D01*
Y-818675D01*
X1308672D01*
Y-817565D01*
Y-816454D01*
X1307562D01*
Y-815344D01*
Y-814234D01*
X1306452D01*
Y-813123D01*
X1305342D01*
Y-812013D01*
Y-810903D01*
Y-809792D01*
X1304231D01*
Y-808682D01*
X1303121D01*
Y-807572D01*
X1302011D01*
Y-806462D01*
X1303121D01*
Y-805351D01*
X1300900D01*
Y-804241D01*
Y-803130D01*
X1299790D01*
Y-802020D01*
Y-800910D01*
X1298680D01*
Y-799800D01*
Y-798689D01*
X1297569D01*
Y-797579D01*
X1296459D01*
Y-796469D01*
Y-795358D01*
Y-794248D01*
X1295349D01*
Y-793138D01*
X1294238D01*
Y-792027D01*
X1293128D01*
Y-790917D01*
Y-789807D01*
X1292018D01*
Y-788696D01*
Y-787586D01*
X1290908D01*
Y-786476D01*
X1289797D01*
Y-785365D01*
Y-784255D01*
Y-783145D01*
X1288687D01*
Y-782034D01*
X1287576D01*
Y-780924D01*
Y-779814D01*
X1286466D01*
Y-778704D01*
X1285356D01*
Y-777593D01*
Y-776483D01*
X1284246D01*
Y-775373D01*
Y-774262D01*
X1283135D01*
Y-773152D01*
Y-772042D01*
X1282025D01*
Y-770931D01*
X1280915D01*
Y-769821D01*
Y-768711D01*
Y-767600D01*
X1279804D01*
Y-766490D01*
X1278694D01*
Y-765380D01*
X1277584D01*
Y-764269D01*
X1278694D01*
Y-763159D01*
X1276473D01*
Y-762049D01*
Y-760938D01*
X1275363D01*
Y-759828D01*
Y-758718D01*
X1274253D01*
Y-757608D01*
Y-756497D01*
X1273142D01*
Y-755387D01*
X1272032D01*
Y-754277D01*
Y-753166D01*
Y-752056D01*
X1270922D01*
Y-750946D01*
X1269812D01*
Y-749835D01*
X1268701D01*
Y-748725D01*
Y-747615D01*
X1267591D01*
Y-746504D01*
Y-745394D01*
X1266480D01*
Y-744284D01*
X1265370D01*
Y-743173D01*
Y-742063D01*
Y-740953D01*
X1264260D01*
Y-739842D01*
X1263150D01*
Y-738732D01*
Y-737622D01*
X1262039D01*
Y-736512D01*
X1260929D01*
Y-735401D01*
Y-734291D01*
X1259819D01*
Y-733181D01*
Y-732070D01*
X1258708D01*
Y-730960D01*
Y-729850D01*
X1257598D01*
Y-728739D01*
X1256488D01*
Y-727629D01*
Y-726519D01*
X1255377D01*
Y-725408D01*
Y-724298D01*
X1254267D01*
Y-723188D01*
X1253157D01*
Y-722077D01*
X1254267D01*
Y-720967D01*
X1252046D01*
Y-719857D01*
Y-718746D01*
X1250936D01*
Y-717636D01*
Y-716526D01*
X1249826D01*
Y-715416D01*
Y-714305D01*
X1248716D01*
Y-713195D01*
X1247605D01*
Y-712085D01*
Y-710974D01*
Y-709864D01*
X1246495D01*
Y-708754D01*
X1245384D01*
Y-707643D01*
X1244274D01*
Y-706533D01*
Y-705423D01*
X1243164D01*
Y-704312D01*
Y-703202D01*
X1242054D01*
Y-702092D01*
X1240943D01*
Y-700981D01*
Y-699871D01*
Y-698761D01*
X1239833D01*
Y-697651D01*
X1238723D01*
Y-696540D01*
X1237612D01*
Y-695430D01*
Y-694320D01*
X1236502D01*
Y-693209D01*
Y-692099D01*
X1235392D01*
Y-690989D01*
Y-689878D01*
X1234281D01*
Y-688768D01*
Y-687658D01*
X1233171D01*
Y-686547D01*
X1232061D01*
Y-685437D01*
Y-684327D01*
X1230950D01*
Y-683216D01*
Y-682106D01*
X1229840D01*
Y-680996D01*
X1228730D01*
Y-679885D01*
Y-678775D01*
X1227620D01*
Y-677665D01*
Y-676555D01*
X1226509D01*
Y-675444D01*
Y-674334D01*
X1225399D01*
Y-673224D01*
Y-672113D01*
X1224289D01*
Y-671003D01*
X1223178D01*
Y-669893D01*
Y-668782D01*
Y-667672D01*
X1222068D01*
Y-666562D01*
X1220958D01*
Y-665451D01*
X1219847D01*
Y-664341D01*
Y-663231D01*
X1218737D01*
Y-662120D01*
Y-661010D01*
X1217627D01*
Y-659900D01*
X1216516D01*
Y-658789D01*
Y-657679D01*
Y-656569D01*
X1215406D01*
Y-655459D01*
X1214296D01*
Y-654348D01*
X1213185D01*
Y-653238D01*
Y-652128D01*
X1212075D01*
Y-651017D01*
Y-649907D01*
X1210965D01*
Y-648797D01*
Y-647686D01*
X1209854D01*
Y-646576D01*
Y-645466D01*
X1208744D01*
Y-644355D01*
X1207634D01*
Y-643245D01*
Y-642135D01*
X1206524D01*
Y-641024D01*
Y-639914D01*
X1205413D01*
Y-638804D01*
X1204303D01*
Y-637693D01*
Y-636583D01*
X1203193D01*
Y-635473D01*
Y-634363D01*
X1202082D01*
Y-633252D01*
X1200972D01*
Y-632142D01*
Y-631032D01*
X1199862D01*
Y-629921D01*
Y-628811D01*
X1198751D01*
Y-627701D01*
Y-626590D01*
Y-625480D01*
X1196531D01*
Y-624370D01*
Y-623259D01*
X1195420D01*
Y-622149D01*
Y-621039D01*
X1194310D01*
Y-619928D01*
Y-618818D01*
X1193200D01*
Y-617708D01*
X1192089D01*
Y-616597D01*
Y-615487D01*
Y-614377D01*
X1190979D01*
Y-613267D01*
X1189869D01*
Y-612156D01*
X1188758D01*
Y-611046D01*
Y-609936D01*
X1187648D01*
Y-608825D01*
Y-607715D01*
X1186538D01*
Y-606605D01*
Y-605494D01*
X1185428D01*
Y-604384D01*
Y-603274D01*
X1184317D01*
Y-602163D01*
X1183207D01*
Y-601053D01*
Y-599943D01*
X1182097D01*
Y-598832D01*
Y-597722D01*
X1180986D01*
Y-596612D01*
X1179876D01*
Y-595501D01*
Y-594391D01*
X1178766D01*
Y-593281D01*
Y-592171D01*
X1177655D01*
Y-591060D01*
X1176545D01*
Y-589950D01*
Y-588840D01*
X1175435D01*
Y-587729D01*
Y-586619D01*
X1174324D01*
Y-585509D01*
Y-584398D01*
Y-583288D01*
X1172104D01*
Y-582178D01*
Y-581067D01*
X1170993D01*
Y-579957D01*
Y-578847D01*
X1169883D01*
Y-577736D01*
Y-576626D01*
X1168773D01*
Y-575516D01*
X1167662D01*
Y-574405D01*
Y-573295D01*
Y-572185D01*
X1166552D01*
Y-571075D01*
X1165442D01*
Y-569964D01*
X1164332D01*
Y-568854D01*
Y-567744D01*
X1163221D01*
Y-566633D01*
Y-565523D01*
X1162111D01*
Y-564413D01*
Y-563302D01*
X1161001D01*
Y-562192D01*
Y-561082D01*
X1159890D01*
Y-559971D01*
X1158780D01*
Y-558861D01*
Y-557751D01*
X1157670D01*
Y-556640D01*
X1156559D01*
Y-555530D01*
Y-554420D01*
X1155449D01*
Y-553309D01*
Y-552199D01*
X1154339D01*
Y-551089D01*
Y-549979D01*
X1153228D01*
Y-548868D01*
X1152118D01*
Y-547758D01*
Y-546648D01*
X1151008D01*
Y-545537D01*
Y-544427D01*
X1149897D01*
Y-543317D01*
X1148787D01*
Y-542206D01*
Y-541096D01*
X1147677D01*
Y-539986D01*
Y-538875D01*
X1146566D01*
Y-537765D01*
Y-536655D01*
X1145456D01*
Y-535544D01*
Y-534434D01*
X1144346D01*
Y-533324D01*
X1143236D01*
Y-532213D01*
Y-531103D01*
Y-529993D01*
X1142125D01*
Y-528883D01*
X1141015D01*
Y-527772D01*
X1139905D01*
Y-526662D01*
Y-525552D01*
X1138794D01*
Y-524441D01*
Y-523331D01*
X1137684D01*
Y-522221D01*
X1136574D01*
Y-521110D01*
Y-520000D01*
Y-518890D01*
X1135463D01*
Y-517779D01*
X1134353D01*
Y-516669D01*
Y-515559D01*
X1133243D01*
Y-514448D01*
X1132132D01*
Y-513338D01*
Y-512228D01*
X1131022D01*
Y-511118D01*
Y-510007D01*
X1129912D01*
Y-508897D01*
Y-507787D01*
X1128801D01*
Y-506676D01*
X1127691D01*
Y-505566D01*
Y-504456D01*
X1126581D01*
Y-503345D01*
Y-502235D01*
X1125470D01*
Y-501125D01*
X1124360D01*
Y-500014D01*
Y-498904D01*
X1123250D01*
Y-497794D01*
Y-496683D01*
X1122139D01*
Y-495573D01*
Y-494463D01*
X1121029D01*
Y-493353D01*
X1119919D01*
Y-492242D01*
Y-491132D01*
X1118809D01*
Y-490022D01*
Y-488911D01*
Y-487801D01*
X1117698D01*
Y-486691D01*
X1116588D01*
Y-485580D01*
X1115478D01*
Y-484470D01*
Y-483360D01*
X1114367D01*
Y-482249D01*
Y-481139D01*
X1113257D01*
Y-480029D01*
X1112147D01*
Y-478918D01*
Y-477808D01*
Y-476698D01*
X1111036D01*
Y-475587D01*
X1109926D01*
Y-474477D01*
Y-473367D01*
X1108816D01*
Y-472257D01*
X1107705D01*
Y-471146D01*
Y-470036D01*
X1106595D01*
Y-468926D01*
Y-467815D01*
X1105485D01*
Y-466705D01*
Y-465595D01*
X1104374D01*
Y-464484D01*
X1103264D01*
Y-463374D01*
Y-462264D01*
X1102154D01*
Y-461153D01*
Y-460043D01*
X1101043D01*
Y-458933D01*
X1099933D01*
Y-457822D01*
Y-456712D01*
X1098823D01*
Y-455602D01*
Y-454491D01*
X1097713D01*
Y-453381D01*
Y-452271D01*
X1096602D01*
Y-451161D01*
X1095492D01*
Y-450050D01*
Y-448940D01*
X1094382D01*
Y-447830D01*
Y-446719D01*
Y-445609D01*
X1093271D01*
Y-444499D01*
X1092161D01*
Y-443388D01*
X1091051D01*
Y-442278D01*
Y-441168D01*
X1089940D01*
Y-440057D01*
Y-438947D01*
X1088830D01*
Y-437837D01*
X1087720D01*
Y-436726D01*
Y-435616D01*
Y-434506D01*
X1086609D01*
Y-433396D01*
X1085499D01*
Y-432285D01*
X1084389D01*
Y-431175D01*
Y-430065D01*
X1083278D01*
Y-428954D01*
Y-427844D01*
X1082168D01*
Y-426734D01*
Y-425623D01*
X1081058D01*
Y-424513D01*
Y-423403D01*
X1079947D01*
Y-422292D01*
X1078837D01*
Y-421182D01*
Y-420072D01*
X1077727D01*
Y-418961D01*
Y-417851D01*
X1076617D01*
Y-416741D01*
X1075506D01*
Y-415630D01*
Y-414520D01*
X1074396D01*
Y-413410D01*
Y-412300D01*
X1073286D01*
Y-411189D01*
X1072175D01*
Y-410079D01*
Y-408969D01*
X1071065D01*
Y-407858D01*
Y-406748D01*
X1069955D01*
Y-405638D01*
Y-404527D01*
X1068844D01*
Y-403417D01*
X1067734D01*
Y-402307D01*
Y-401196D01*
X1066624D01*
Y-400086D01*
Y-398976D01*
X1065513D01*
Y-397865D01*
Y-396755D01*
X1064403D01*
Y-395645D01*
X1063293D01*
Y-394534D01*
Y-393424D01*
Y-392314D01*
X1062182D01*
Y-391204D01*
X1061072D01*
Y-390093D01*
X1059962D01*
Y-388983D01*
Y-387873D01*
X1058851D01*
Y-386762D01*
Y-385652D01*
X1057741D01*
Y-384542D01*
Y-383431D01*
X1056631D01*
Y-382321D01*
Y-381211D01*
X1055521D01*
Y-380100D01*
X1054410D01*
Y-378990D01*
Y-377880D01*
X1053300D01*
Y-376769D01*
Y-375659D01*
X1052190D01*
Y-374549D01*
X1051079D01*
Y-373438D01*
Y-372328D01*
X1049969D01*
Y-371218D01*
Y-370108D01*
X1048859D01*
Y-368997D01*
X1047748D01*
Y-367887D01*
Y-366776D01*
X1046638D01*
Y-365666D01*
Y-364556D01*
X1045528D01*
Y-363446D01*
Y-362335D01*
X1044417D01*
Y-361225D01*
X1043307D01*
Y-360115D01*
Y-359004D01*
X1042197D01*
Y-357894D01*
Y-356784D01*
X1041086D01*
Y-355673D01*
Y-354563D01*
X1039976D01*
Y-353453D01*
X1038866D01*
Y-352342D01*
Y-351232D01*
Y-350122D01*
X1037755D01*
Y-349012D01*
X1036645D01*
Y-347901D01*
X1035535D01*
Y-346791D01*
Y-345681D01*
X1034425D01*
Y-344570D01*
Y-343460D01*
X1033314D01*
Y-342350D01*
Y-341239D01*
X1032204D01*
Y-340129D01*
D02*
G37*
%LPD*%
G36*
X1053300Y-463374D02*
X1052190D01*
Y-464484D01*
Y-465595D01*
X1051079D01*
Y-466705D01*
Y-467815D01*
X1049969D01*
Y-468926D01*
Y-470036D01*
X1048859D01*
Y-471146D01*
X1047748D01*
Y-472257D01*
Y-473367D01*
X1046638D01*
Y-474477D01*
Y-475587D01*
X1045528D01*
Y-476698D01*
Y-477808D01*
X1044417D01*
Y-478918D01*
Y-480029D01*
X1043307D01*
Y-481139D01*
Y-482249D01*
X1042197D01*
Y-483360D01*
Y-484470D01*
X1041086D01*
Y-485580D01*
X1039976D01*
Y-486691D01*
Y-487801D01*
Y-488911D01*
X1038866D01*
Y-490022D01*
X1037755D01*
Y-491132D01*
Y-492242D01*
X1036645D01*
Y-493353D01*
Y-494463D01*
X1035535D01*
Y-495573D01*
Y-496683D01*
X1034425D01*
Y-497794D01*
Y-498904D01*
X1033314D01*
Y-500014D01*
Y-501125D01*
X1032204D01*
Y-502235D01*
Y-503345D01*
X1031094D01*
Y-504456D01*
Y-505566D01*
X1029983D01*
Y-506676D01*
Y-507787D01*
X1028873D01*
Y-508897D01*
X1027763D01*
Y-510007D01*
Y-511118D01*
X1026652D01*
Y-512228D01*
Y-513338D01*
X1025542D01*
Y-514448D01*
Y-515559D01*
X1024432D01*
Y-516669D01*
Y-517779D01*
X1023321D01*
Y-518890D01*
Y-520000D01*
X1022211D01*
Y-521110D01*
Y-522221D01*
X1021101D01*
Y-523331D01*
X1019990D01*
Y-524441D01*
Y-525552D01*
X1018880D01*
Y-526662D01*
Y-527772D01*
X1017770D01*
Y-528883D01*
Y-529993D01*
X1016659D01*
Y-531103D01*
Y-532213D01*
X1015549D01*
Y-533324D01*
Y-534434D01*
X1014439D01*
Y-535544D01*
Y-536655D01*
X1013329D01*
Y-537765D01*
Y-538875D01*
X1012218D01*
Y-539986D01*
Y-541096D01*
X1011108D01*
Y-542206D01*
Y-543317D01*
X1009998D01*
Y-544427D01*
X1008887D01*
Y-545537D01*
Y-546648D01*
X1007777D01*
Y-547758D01*
Y-548868D01*
X1006667D01*
Y-549979D01*
Y-551089D01*
X1005556D01*
Y-552199D01*
Y-553309D01*
X1004446D01*
Y-554420D01*
Y-555530D01*
X1003336D01*
Y-556640D01*
Y-557751D01*
X1002225D01*
Y-558861D01*
Y-559971D01*
X1001115D01*
Y-561082D01*
X1000005D01*
Y-562192D01*
Y-563302D01*
X998894D01*
Y-564413D01*
Y-565523D01*
X997784D01*
Y-566633D01*
Y-567744D01*
X996674D01*
Y-568854D01*
Y-569964D01*
X995563D01*
Y-571075D01*
Y-572185D01*
X994453D01*
Y-573295D01*
Y-574405D01*
X993343D01*
Y-575516D01*
Y-576626D01*
X992233D01*
Y-577736D01*
Y-578847D01*
X991122D01*
Y-579957D01*
X990012D01*
Y-581067D01*
Y-582178D01*
X988902D01*
Y-583288D01*
Y-584398D01*
X987791D01*
Y-585509D01*
Y-586619D01*
X986681D01*
Y-587729D01*
Y-588840D01*
X985571D01*
Y-589950D01*
Y-591060D01*
X984460D01*
Y-592171D01*
Y-593281D01*
X983350D01*
Y-594391D01*
Y-595501D01*
X982240D01*
Y-596612D01*
Y-597722D01*
X981129D01*
Y-598832D01*
X980019D01*
Y-599943D01*
Y-601053D01*
X978909D01*
Y-602163D01*
Y-603274D01*
X977798D01*
Y-604384D01*
Y-605494D01*
X976688D01*
Y-606605D01*
Y-607715D01*
X975578D01*
Y-608825D01*
Y-609936D01*
X974468D01*
Y-611046D01*
Y-612156D01*
X973357D01*
Y-613267D01*
Y-614377D01*
X972247D01*
Y-615487D01*
Y-616597D01*
X971137D01*
Y-617708D01*
X970026D01*
Y-618818D01*
Y-619928D01*
X968916D01*
Y-621039D01*
Y-622149D01*
X967806D01*
Y-623259D01*
Y-624370D01*
X966695D01*
Y-625480D01*
Y-626590D01*
X965585D01*
Y-627701D01*
Y-628811D01*
X964475D01*
Y-629921D01*
Y-631032D01*
X963364D01*
Y-632142D01*
X962254D01*
Y-633252D01*
Y-634363D01*
X966695D01*
Y-633252D01*
X970026D01*
Y-632142D01*
X973357D01*
Y-631032D01*
X976688D01*
Y-629921D01*
X980019D01*
Y-628811D01*
X984460D01*
Y-627701D01*
X987791D01*
Y-626590D01*
X991122D01*
Y-625480D01*
X994453D01*
Y-624370D01*
X998894D01*
Y-623259D01*
X1002225D01*
Y-622149D01*
X1005556D01*
Y-621039D01*
X1008887D01*
Y-619928D01*
X1013329D01*
Y-618818D01*
X1016659D01*
Y-617708D01*
X1019990D01*
Y-616597D01*
X1023321D01*
Y-615487D01*
X1027763D01*
Y-614377D01*
X1031094D01*
Y-613267D01*
X1034425D01*
Y-612156D01*
X1037755D01*
Y-611046D01*
X1041086D01*
Y-609936D01*
X1045528D01*
Y-608825D01*
X1048859D01*
Y-607715D01*
X1052190D01*
Y-606605D01*
X1056631D01*
Y-605494D01*
X1059962D01*
Y-604384D01*
X1063293D01*
Y-603274D01*
X1066624D01*
Y-602163D01*
X1069955D01*
Y-601053D01*
X1074396D01*
Y-599943D01*
X1077727D01*
Y-598832D01*
X1081058D01*
Y-597722D01*
X1085499D01*
Y-596612D01*
X1088830D01*
Y-597722D01*
X1087720D01*
Y-598832D01*
X1086609D01*
Y-599943D01*
Y-601053D01*
Y-602163D01*
X1085499D01*
Y-603274D01*
Y-604384D01*
X1084389D01*
Y-605494D01*
Y-606605D01*
X1083278D01*
Y-607715D01*
Y-608825D01*
X1082168D01*
Y-609936D01*
Y-611046D01*
X1081058D01*
Y-612156D01*
Y-613267D01*
Y-614377D01*
X1079947D01*
Y-615487D01*
Y-616597D01*
X1078837D01*
Y-617708D01*
Y-618818D01*
X1077727D01*
Y-619928D01*
Y-621039D01*
X1076617D01*
Y-622149D01*
Y-623259D01*
X1075506D01*
Y-624370D01*
Y-625480D01*
X1074396D01*
Y-626590D01*
Y-627701D01*
X1073286D01*
Y-628811D01*
Y-629921D01*
Y-631032D01*
X1072175D01*
Y-632142D01*
X1071065D01*
Y-633252D01*
Y-634363D01*
Y-635473D01*
X1069955D01*
Y-636583D01*
Y-637693D01*
X1068844D01*
Y-638804D01*
Y-639914D01*
X1067734D01*
Y-641024D01*
Y-642135D01*
X1066624D01*
Y-643245D01*
Y-644355D01*
X1065513D01*
Y-645466D01*
Y-646576D01*
Y-647686D01*
X1064403D01*
Y-648797D01*
Y-649907D01*
X1063293D01*
Y-651017D01*
Y-652128D01*
X1062182D01*
Y-653238D01*
Y-654348D01*
X1061072D01*
Y-655459D01*
Y-656569D01*
X1059962D01*
Y-657679D01*
Y-658789D01*
X1058851D01*
Y-659900D01*
Y-661010D01*
X1057741D01*
Y-662120D01*
Y-663231D01*
Y-664341D01*
X1056631D01*
Y-665451D01*
Y-666562D01*
X1055521D01*
Y-667672D01*
Y-668782D01*
X1054410D01*
Y-669893D01*
Y-671003D01*
X1053300D01*
Y-672113D01*
Y-673224D01*
X1052190D01*
Y-674334D01*
Y-675444D01*
X1051079D01*
Y-676555D01*
Y-677665D01*
X1049969D01*
Y-678775D01*
Y-679885D01*
Y-680996D01*
X1048859D01*
Y-682106D01*
Y-683216D01*
X1047748D01*
Y-684327D01*
Y-685437D01*
X1046638D01*
Y-686547D01*
Y-687658D01*
X1045528D01*
Y-688768D01*
Y-689878D01*
X1044417D01*
Y-690989D01*
Y-692099D01*
X1043307D01*
Y-693209D01*
Y-694320D01*
X1042197D01*
Y-695430D01*
Y-696540D01*
Y-697651D01*
X1041086D01*
Y-698761D01*
Y-699871D01*
X1039976D01*
Y-700981D01*
Y-702092D01*
X1038866D01*
Y-703202D01*
Y-704312D01*
X1037755D01*
Y-705423D01*
Y-706533D01*
X1036645D01*
Y-707643D01*
Y-708754D01*
X1035535D01*
Y-709864D01*
Y-710974D01*
X1034425D01*
Y-712085D01*
Y-713195D01*
Y-714305D01*
X1033314D01*
Y-715416D01*
Y-716526D01*
X1032204D01*
Y-717636D01*
Y-718746D01*
X1031094D01*
Y-719857D01*
Y-720967D01*
X1029983D01*
Y-722077D01*
Y-723188D01*
X1028873D01*
Y-724298D01*
Y-725408D01*
X1027763D01*
Y-726519D01*
Y-727629D01*
X1026652D01*
Y-728739D01*
Y-729850D01*
Y-730960D01*
X1025542D01*
Y-732070D01*
Y-733181D01*
X1024432D01*
Y-734291D01*
Y-735401D01*
X1023321D01*
Y-736512D01*
Y-737622D01*
X1022211D01*
Y-738732D01*
Y-739842D01*
X1021101D01*
Y-740953D01*
Y-742063D01*
X1019990D01*
Y-743173D01*
Y-744284D01*
Y-745394D01*
X1018880D01*
Y-746504D01*
X1022211D01*
Y-745394D01*
X1026652D01*
Y-744284D01*
X1032204D01*
Y-743173D01*
X1036645D01*
Y-742063D01*
X1041086D01*
Y-740953D01*
X1045528D01*
Y-742063D01*
X1044417D01*
Y-743173D01*
X1043307D01*
Y-744284D01*
X1042197D01*
Y-745394D01*
X1041086D01*
Y-746504D01*
Y-747615D01*
X1039976D01*
Y-748725D01*
X1038866D01*
Y-749835D01*
X1037755D01*
Y-750946D01*
X1036645D01*
Y-752056D01*
X1035535D01*
Y-753166D01*
X1034425D01*
Y-754277D01*
X1033314D01*
Y-755387D01*
Y-756497D01*
X1032204D01*
Y-757608D01*
X1031094D01*
Y-758718D01*
X1029983D01*
Y-759828D01*
X1028873D01*
Y-760938D01*
X1027763D01*
Y-762049D01*
Y-763159D01*
X1026652D01*
Y-764269D01*
X1025542D01*
Y-765380D01*
X1024432D01*
Y-766490D01*
X1023321D01*
Y-767600D01*
X1022211D01*
Y-768711D01*
X1021101D01*
Y-769821D01*
X1019990D01*
Y-770931D01*
Y-772042D01*
X1018880D01*
Y-773152D01*
X1017770D01*
Y-774262D01*
X1016659D01*
Y-775373D01*
X1015549D01*
Y-776483D01*
X1014439D01*
Y-777593D01*
Y-778704D01*
X1013329D01*
Y-779814D01*
X1012218D01*
Y-780924D01*
X1011108D01*
Y-782034D01*
X1009998D01*
Y-783145D01*
X1008887D01*
Y-784255D01*
X1007777D01*
Y-785365D01*
X1006667D01*
Y-786476D01*
Y-787586D01*
X1005556D01*
Y-788696D01*
X1004446D01*
Y-789807D01*
X1003336D01*
Y-790917D01*
X1002225D01*
Y-789807D01*
Y-788696D01*
Y-787586D01*
Y-786476D01*
X1001115D01*
Y-785365D01*
Y-784255D01*
Y-783145D01*
Y-782034D01*
Y-780924D01*
Y-779814D01*
Y-778704D01*
X1000005D01*
Y-777593D01*
Y-776483D01*
Y-775373D01*
Y-774262D01*
Y-773152D01*
X998894D01*
Y-772042D01*
Y-770931D01*
Y-769821D01*
Y-768711D01*
Y-767600D01*
Y-766490D01*
X997784D01*
Y-765380D01*
Y-764269D01*
Y-763159D01*
Y-762049D01*
Y-760938D01*
Y-759828D01*
X996674D01*
Y-758718D01*
Y-757608D01*
Y-756497D01*
Y-755387D01*
Y-754277D01*
Y-753166D01*
Y-752056D01*
X995563D01*
Y-750946D01*
Y-749835D01*
Y-748725D01*
Y-747615D01*
Y-746504D01*
X994453D01*
Y-745394D01*
Y-744284D01*
Y-743173D01*
Y-742063D01*
Y-740953D01*
Y-739842D01*
Y-738732D01*
X993343D01*
Y-737622D01*
Y-736512D01*
Y-735401D01*
Y-734291D01*
Y-733181D01*
X992233D01*
Y-732070D01*
Y-730960D01*
X994453D01*
Y-732070D01*
X995563D01*
Y-733181D01*
X996674D01*
Y-734291D01*
X998894D01*
Y-735401D01*
X1000005D01*
Y-736512D01*
X1001115D01*
Y-737622D01*
X1002225D01*
Y-738732D01*
X1004446D01*
Y-739842D01*
X1005556D01*
Y-740953D01*
X1006667D01*
Y-742063D01*
X1008887D01*
Y-743173D01*
X1009998D01*
Y-744284D01*
X1011108D01*
Y-745394D01*
X1012218D01*
Y-744284D01*
X1013329D01*
Y-743173D01*
Y-742063D01*
Y-740953D01*
Y-739842D01*
X1014439D01*
Y-738732D01*
Y-737622D01*
Y-736512D01*
Y-735401D01*
X1015549D01*
Y-734291D01*
Y-733181D01*
X1016659D01*
Y-732070D01*
X1015549D01*
Y-730960D01*
X1016659D01*
Y-729850D01*
Y-728739D01*
Y-727629D01*
X1017770D01*
Y-726519D01*
Y-725408D01*
Y-724298D01*
Y-723188D01*
X1018880D01*
Y-722077D01*
Y-720967D01*
Y-719857D01*
Y-718746D01*
X1019990D01*
Y-717636D01*
Y-716526D01*
Y-715416D01*
X1021101D01*
Y-714305D01*
Y-713195D01*
Y-712085D01*
Y-710974D01*
X1022211D01*
Y-709864D01*
Y-708754D01*
X1023321D01*
Y-707643D01*
X1022211D01*
Y-706533D01*
X1023321D01*
Y-705423D01*
Y-704312D01*
Y-703202D01*
X1024432D01*
Y-702092D01*
Y-700981D01*
Y-699871D01*
Y-698761D01*
X1025542D01*
Y-697651D01*
Y-696540D01*
Y-695430D01*
Y-694320D01*
X1026652D01*
Y-693209D01*
Y-692099D01*
Y-690989D01*
X1027763D01*
Y-689878D01*
Y-688768D01*
Y-687658D01*
Y-686547D01*
X1028873D01*
Y-685437D01*
Y-684327D01*
X1029983D01*
Y-683216D01*
X1028873D01*
Y-682106D01*
X1029983D01*
Y-680996D01*
Y-679885D01*
Y-678775D01*
Y-677665D01*
X1031094D01*
Y-676555D01*
Y-675444D01*
Y-674334D01*
Y-673224D01*
X1032204D01*
Y-672113D01*
Y-671003D01*
Y-669893D01*
X1033314D01*
Y-668782D01*
Y-667672D01*
Y-666562D01*
X1034425D01*
Y-665451D01*
Y-664341D01*
Y-663231D01*
Y-662120D01*
Y-661010D01*
X1035535D01*
Y-659900D01*
Y-658789D01*
Y-657679D01*
X1036645D01*
Y-656569D01*
Y-655459D01*
Y-654348D01*
Y-653238D01*
X1037755D01*
Y-652128D01*
Y-651017D01*
Y-649907D01*
Y-648797D01*
X1038866D01*
Y-647686D01*
Y-646576D01*
Y-645466D01*
X1039976D01*
Y-644355D01*
Y-643245D01*
Y-642135D01*
X1041086D01*
Y-641024D01*
Y-639914D01*
Y-638804D01*
Y-637693D01*
Y-636583D01*
X1042197D01*
Y-635473D01*
Y-634363D01*
Y-633252D01*
X1043307D01*
Y-632142D01*
Y-631032D01*
Y-629921D01*
X1041086D01*
Y-631032D01*
X1037755D01*
Y-632142D01*
X1034425D01*
Y-633252D01*
X1031094D01*
Y-634363D01*
X1027763D01*
Y-635473D01*
X1024432D01*
Y-636583D01*
X1021101D01*
Y-637693D01*
X1017770D01*
Y-638804D01*
X1014439D01*
Y-639914D01*
X1011108D01*
Y-641024D01*
X1007777D01*
Y-642135D01*
X1004446D01*
Y-643245D01*
X1001115D01*
Y-644355D01*
X997784D01*
Y-645466D01*
X995563D01*
Y-646576D01*
X992233D01*
Y-647686D01*
X988902D01*
Y-648797D01*
X985571D01*
Y-649907D01*
X982240D01*
Y-651017D01*
X978909D01*
Y-652128D01*
X975578D01*
Y-653238D01*
X972247D01*
Y-654348D01*
X968916D01*
Y-655459D01*
X965585D01*
Y-656569D01*
X962254D01*
Y-657679D01*
X958923D01*
Y-658789D01*
X955592D01*
Y-659900D01*
X952261D01*
Y-661010D01*
X948930D01*
Y-662120D01*
X945599D01*
Y-663231D01*
X942268D01*
Y-664341D01*
X940048D01*
Y-665451D01*
X935606D01*
Y-666562D01*
X933386D01*
Y-667672D01*
X930055D01*
Y-668782D01*
X926724D01*
Y-669893D01*
X924503D01*
Y-668782D01*
X925614D01*
Y-667672D01*
Y-666562D01*
Y-665451D01*
X926724D01*
Y-664341D01*
Y-663231D01*
X927834D01*
Y-662120D01*
Y-661010D01*
Y-659900D01*
X928945D01*
Y-658789D01*
Y-657679D01*
X930055D01*
Y-656569D01*
Y-655459D01*
X931165D01*
Y-654348D01*
Y-653238D01*
Y-652128D01*
X932276D01*
Y-651017D01*
Y-649907D01*
X933386D01*
Y-648797D01*
Y-647686D01*
Y-646576D01*
X934496D01*
Y-645466D01*
Y-644355D01*
X935606D01*
Y-643245D01*
Y-642135D01*
Y-641024D01*
X936717D01*
Y-639914D01*
Y-638804D01*
X937827D01*
Y-637693D01*
Y-636583D01*
Y-635473D01*
X938938D01*
Y-634363D01*
Y-633252D01*
X940048D01*
Y-632142D01*
Y-631032D01*
X941158D01*
Y-629921D01*
Y-628811D01*
Y-627701D01*
X942268D01*
Y-626590D01*
Y-625480D01*
X943379D01*
Y-624370D01*
Y-623259D01*
Y-622149D01*
X944489D01*
Y-621039D01*
Y-619928D01*
X945599D01*
Y-618818D01*
Y-617708D01*
Y-616597D01*
X946710D01*
Y-615487D01*
Y-614377D01*
X947820D01*
Y-613267D01*
Y-612156D01*
Y-611046D01*
X948930D01*
Y-609936D01*
Y-608825D01*
X950041D01*
Y-607715D01*
Y-606605D01*
Y-605494D01*
X951151D01*
Y-604384D01*
Y-603274D01*
X952261D01*
Y-602163D01*
Y-601053D01*
X953372D01*
Y-599943D01*
Y-598832D01*
Y-597722D01*
X954482D01*
Y-596612D01*
Y-595501D01*
X955592D01*
Y-594391D01*
Y-593281D01*
X956702D01*
Y-592171D01*
Y-591060D01*
Y-589950D01*
X957813D01*
Y-588840D01*
Y-587729D01*
Y-586619D01*
X958923D01*
Y-585509D01*
Y-584398D01*
X960034D01*
Y-583288D01*
Y-582178D01*
X961144D01*
Y-581067D01*
Y-579957D01*
Y-578847D01*
X962254D01*
Y-577736D01*
Y-576626D01*
X963364D01*
Y-575516D01*
Y-574405D01*
Y-573295D01*
X964475D01*
Y-572185D01*
Y-571075D01*
X965585D01*
Y-569964D01*
Y-568854D01*
Y-567744D01*
X966695D01*
Y-566633D01*
Y-565523D01*
X967806D01*
Y-564413D01*
Y-563302D01*
Y-562192D01*
X968916D01*
Y-561082D01*
Y-559971D01*
X970026D01*
Y-558861D01*
Y-557751D01*
Y-556640D01*
X971137D01*
Y-555530D01*
Y-554420D01*
X972247D01*
Y-553309D01*
Y-552199D01*
X973357D01*
Y-551089D01*
Y-549979D01*
Y-548868D01*
X974468D01*
Y-547758D01*
Y-546648D01*
X975578D01*
Y-545537D01*
Y-544427D01*
Y-543317D01*
X976688D01*
Y-542206D01*
Y-541096D01*
X977798D01*
Y-539986D01*
Y-538875D01*
Y-537765D01*
X978909D01*
Y-536655D01*
Y-535544D01*
X980019D01*
Y-534434D01*
Y-533324D01*
X981129D01*
Y-532213D01*
Y-531103D01*
Y-529993D01*
X982240D01*
Y-528883D01*
Y-527772D01*
Y-526662D01*
X983350D01*
Y-525552D01*
Y-524441D01*
X984460D01*
Y-523331D01*
Y-522221D01*
X985571D01*
Y-521110D01*
Y-520000D01*
Y-518890D01*
X986681D01*
Y-517779D01*
Y-516669D01*
X987791D01*
Y-515559D01*
Y-514448D01*
Y-513338D01*
X988902D01*
Y-512228D01*
Y-511118D01*
X990012D01*
Y-510007D01*
Y-508897D01*
Y-507787D01*
X991122D01*
Y-506676D01*
Y-505566D01*
X992233D01*
Y-504456D01*
Y-503345D01*
X993343D01*
Y-502235D01*
Y-501125D01*
Y-500014D01*
X994453D01*
Y-498904D01*
Y-497794D01*
X995563D01*
Y-496683D01*
Y-495573D01*
X996674D01*
Y-494463D01*
Y-493353D01*
Y-492242D01*
X997784D01*
Y-491132D01*
Y-490022D01*
Y-488911D01*
X998894D01*
Y-487801D01*
Y-486691D01*
X1000005D01*
Y-485580D01*
Y-484470D01*
X1001115D01*
Y-483360D01*
Y-482249D01*
Y-481139D01*
X1002225D01*
Y-480029D01*
Y-478918D01*
Y-477808D01*
X1003336D01*
Y-476698D01*
Y-475587D01*
X1004446D01*
Y-474477D01*
Y-473367D01*
X1005556D01*
Y-472257D01*
Y-471146D01*
Y-470036D01*
X1006667D01*
Y-468926D01*
Y-467815D01*
X1007777D01*
Y-466705D01*
Y-465595D01*
Y-464484D01*
X1008887D01*
Y-463374D01*
X1016659D01*
Y-462264D01*
X1053300D01*
Y-463374D01*
D02*
G37*
%TF.MD5,f7a6f6a240ea78a041c9ec14d4adc18f*%
M02*
