%TF.GenerationSoftware,Altium Limited,Altium Designer,21.2.2 (38)*%
G04 Layer_Color=16777215*
%FSLAX26Y26*%
%MOIN*%
%TF.SameCoordinates,75BC83C2-9D79-468A-8CB9-4745F9D1B378*%
%TF.FilePolarity,Negative*%
%TF.FileFunction,Soldermask,Top*%
%TF.Part,Single*%
G01*
G75*
%TA.AperFunction,ComponentPad*%
%ADD28C,0.070008*%
%ADD29R,0.070008X0.070008*%
%ADD30C,0.063118*%
%ADD31C,0.100913*%
%ADD32R,0.063118X0.063118*%
%TA.AperFunction,ViaPad*%
%ADD33C,0.130047*%
%ADD34C,0.036000*%
%TA.AperFunction,SMDPad,CuDef*%
G04:AMPARAMS|DCode=38|XSize=59.181mil|YSize=37.921mil|CornerRadius=7.74mil|HoleSize=0mil|Usage=FLASHONLY|Rotation=180.000|XOffset=0mil|YOffset=0mil|HoleType=Round|Shape=RoundedRectangle|*
%AMROUNDEDRECTD38*
21,1,0.059181,0.022441,0,0,180.0*
21,1,0.043701,0.037921,0,0,180.0*
1,1,0.015480,-0.021850,0.011220*
1,1,0.015480,0.021850,0.011220*
1,1,0.015480,0.021850,-0.011220*
1,1,0.015480,-0.021850,-0.011220*
%
%ADD38ROUNDEDRECTD38*%
%ADD39R,0.043433X0.082803*%
%ADD40R,0.133984X0.082803*%
%ADD41R,0.045402X0.045402*%
%ADD42R,0.047370X0.039496*%
%ADD43R,0.039496X0.047370*%
%ADD44R,0.031622X0.037528*%
D28*
X898032Y-139370D02*
D03*
X798032D02*
D03*
X698032D02*
D03*
X598032D02*
D03*
X698032Y-39370D02*
D03*
X798032D02*
D03*
D29*
X598032D02*
D03*
X898032D02*
D03*
D30*
X1502355Y-60230D02*
D03*
X1602355Y-100387D02*
D03*
Y-20072D02*
D03*
Y60243D02*
D03*
Y-20072D02*
D03*
X1502355Y20085D02*
D03*
D31*
X1692906Y-236214D02*
D03*
Y236227D02*
D03*
D32*
X1502355Y100400D02*
D03*
D33*
X1397638Y-570866D02*
D03*
Y728346D02*
D03*
X137795Y0D02*
D03*
D34*
X1299213Y-669291D02*
D03*
X1181102Y748032D02*
D03*
X1299213Y295276D02*
D03*
X1614173Y669291D02*
D03*
X1692913Y78740D02*
D03*
X1811024Y-196850D02*
D03*
X511811Y216535D02*
D03*
X1358268Y-393701D02*
D03*
X1807087Y437008D02*
D03*
X1496063Y216535D02*
D03*
X1598981Y462765D02*
D03*
X767716Y177165D02*
D03*
D38*
X472441Y-417716D02*
D03*
Y-488189D02*
D03*
X1003937Y-437401D02*
D03*
Y-507874D02*
D03*
D39*
X657480Y-588583D02*
D03*
X748032D02*
D03*
X838583D02*
D03*
D40*
X748032Y-356299D02*
D03*
D41*
X1122047Y-447835D02*
D03*
Y-497047D02*
D03*
Y-73819D02*
D03*
Y-123031D02*
D03*
D42*
Y344488D02*
D03*
Y403543D02*
D03*
Y167323D02*
D03*
Y226378D02*
D03*
Y9842D02*
D03*
Y68898D02*
D03*
D43*
X1505906Y393701D02*
D03*
X1564961D02*
D03*
X1525591Y511811D02*
D03*
X1584646D02*
D03*
X1742126D02*
D03*
X1683071D02*
D03*
D44*
X1712598Y437008D02*
D03*
X1750000Y350394D02*
D03*
X1675197D02*
D03*
%TF.MD5,6c4f810bc1365c835eaeafea791be854*%
M02*
