%TF.GenerationSoftware,Altium Limited,Altium Designer,21.2.2 (38)*%
G04 Layer_Color=32768*
%FSLAX26Y26*%
%MOIN*%
%TF.SameCoordinates,75BC83C2-9D79-468A-8CB9-4745F9D1B378*%
%TF.FilePolarity,Positive*%
%TF.FileFunction,Other,Top_Courtyard*%
%TF.Part,Single*%
G01*
G75*
%TA.AperFunction,NonConductor*%
%ADD45C,0.003937*%
%ADD46C,0.001968*%
D45*
X748032Y-492126D02*
Y-452756D01*
X728346Y-472441D02*
X767716D01*
X1104331D02*
X1139764D01*
X1122047Y-490157D02*
Y-454724D01*
Y356299D02*
Y391732D01*
X1104331Y374016D02*
X1139764D01*
X1517716Y393701D02*
X1553150D01*
X1535433Y375984D02*
Y411417D01*
X1537401Y511811D02*
X1572835D01*
X1555118Y494094D02*
Y529528D01*
X1694882Y511811D02*
X1730315D01*
X1712598Y494094D02*
Y529528D01*
X1122047Y179134D02*
Y214567D01*
X1104331Y196850D02*
X1139764D01*
X1692913Y393701D02*
X1732283D01*
X1712598Y374016D02*
Y413386D01*
X1104331Y-98425D02*
X1139764D01*
X1122047Y-116142D02*
Y-80709D01*
Y21654D02*
Y57087D01*
X1104331Y39370D02*
X1139764D01*
D46*
X438976Y-511811D02*
X505906D01*
X438976Y-393701D02*
X505906D01*
X438976Y-511811D02*
Y-393701D01*
X505906Y-511811D02*
Y-393701D01*
X472441Y-472441D02*
Y-433071D01*
X452756Y-452756D02*
X492126D01*
X456693Y-198819D02*
X1039370D01*
Y797244D01*
X456693D02*
X1039370D01*
X456693Y-198819D02*
Y797244D01*
X612205Y-629921D02*
X883858D01*
X612205Y-314961D02*
X883858D01*
X612205Y-629921D02*
Y-314961D01*
X883858Y-629921D02*
Y-314961D01*
X1151575Y-525591D02*
Y-419291D01*
X1092520Y-525591D02*
Y-419291D01*
X1151575D01*
X1092520Y-525591D02*
X1151575D01*
X970472Y-531496D02*
X1037402D01*
X970472Y-413386D02*
X1037402D01*
X970472Y-531496D02*
Y-413386D01*
X1037402Y-531496D02*
Y-413386D01*
X1003937Y-492126D02*
Y-452756D01*
X984252Y-472441D02*
X1023622D01*
X1082677Y309055D02*
X1161417D01*
X1082677Y438976D02*
X1161417D01*
X1082677Y309055D02*
Y438976D01*
X1161417Y309055D02*
Y438976D01*
X1470472Y354331D02*
Y433071D01*
X1600394Y354331D02*
Y433071D01*
X1470472D02*
X1600394D01*
X1470472Y354331D02*
X1600394D01*
X1490157Y472441D02*
Y551181D01*
X1620079Y472441D02*
Y551181D01*
X1490157D02*
X1620079D01*
X1490157Y472441D02*
X1620079D01*
X1777559Y472441D02*
Y551181D01*
X1647638Y472441D02*
Y551181D01*
Y472441D02*
X1777559D01*
X1647638Y551181D02*
X1777559D01*
X1082677Y131890D02*
X1161417D01*
X1082677Y261811D02*
X1161417D01*
X1082677Y131890D02*
Y261811D01*
X1161417Y131890D02*
Y261811D01*
X1775591Y331693D02*
Y455709D01*
X1649606Y331693D02*
Y455709D01*
X1775591D01*
X1649606Y331693D02*
X1775591D01*
X1151575Y-151575D02*
Y-45276D01*
X1092520Y-151575D02*
Y-45276D01*
X1151575D01*
X1092520Y-151575D02*
X1151575D01*
X1673228Y-19685D02*
Y19685D01*
X1653543Y0D02*
X1692913D01*
X1409449Y-290551D02*
X1937008D01*
Y290551D01*
X1409449D02*
X1937008D01*
X1409449Y-290551D02*
Y290551D01*
X1082677Y-25591D02*
X1161417D01*
X1082677Y104331D02*
X1161417D01*
X1082677Y-25591D02*
Y104331D01*
X1161417Y-25591D02*
Y104331D01*
%TF.MD5,ef1eb519fca8185a9e8893be8efa8b83*%
M02*
